{
	"patcher" : 	{
		"fileversion" : 1,
		"rect" : [ 0.0, 42.0, 1304.0, 700.0 ],
		"bglocked" : 0,
		"defrect" : [ 0.0, 42.0, 1304.0, 700.0 ],
		"openrect" : [ 0.0, 0.0, 0.0, 0.0 ],
		"openinpresentation" : 0,
		"default_fontsize" : 12.0,
		"default_fontface" : 0,
		"default_fontname" : "Arial",
		"gridonopen" : 0,
		"gridsize" : [ 15.0, 15.0 ],
		"gridsnaponopen" : 0,
		"toolbarvisible" : 1,
		"boxanimatetime" : 200,
		"imprint" : 0,
		"boxes" : [ 			{
				"box" : 				{
					"maxclass" : "inlet",
					"numoutlets" : 1,
					"id" : "obj-109",
					"outlettype" : [ "" ],
					"patching_rect" : [ 750.0, 255.0, 25.0, 25.0 ],
					"numinlets" : 0,
					"comment" : "Channel 6 length"
				}

			}
, 			{
				"box" : 				{
					"maxclass" : "inlet",
					"numoutlets" : 1,
					"id" : "obj-110",
					"outlettype" : [ "" ],
					"patching_rect" : [ 675.0, 255.0, 25.0, 25.0 ],
					"numinlets" : 0,
					"comment" : "Channel 5 length"
				}

			}
, 			{
				"box" : 				{
					"maxclass" : "inlet",
					"numoutlets" : 1,
					"id" : "obj-111",
					"outlettype" : [ "" ],
					"patching_rect" : [ 600.0, 255.0, 25.0, 25.0 ],
					"numinlets" : 0,
					"comment" : "Channel 4 length"
				}

			}
, 			{
				"box" : 				{
					"maxclass" : "inlet",
					"numoutlets" : 1,
					"id" : "obj-107",
					"outlettype" : [ "" ],
					"patching_rect" : [ 525.0, 255.0, 25.0, 25.0 ],
					"numinlets" : 0,
					"comment" : "Channel 3 length"
				}

			}
, 			{
				"box" : 				{
					"maxclass" : "inlet",
					"numoutlets" : 1,
					"id" : "obj-108",
					"outlettype" : [ "" ],
					"patching_rect" : [ 450.0, 255.0, 25.0, 25.0 ],
					"numinlets" : 0,
					"comment" : "Channel 2 length"
				}

			}
, 			{
				"box" : 				{
					"maxclass" : "inlet",
					"numoutlets" : 1,
					"id" : "obj-106",
					"outlettype" : [ "" ],
					"patching_rect" : [ 375.0, 255.0, 25.0, 25.0 ],
					"numinlets" : 0,
					"comment" : "Channel 1 length"
				}

			}
, 			{
				"box" : 				{
					"maxclass" : "inlet",
					"numoutlets" : 1,
					"id" : "obj-105",
					"outlettype" : [ "" ],
					"patching_rect" : [ 300.0, 255.0, 25.0, 25.0 ],
					"numinlets" : 0,
					"comment" : "Channel 0 length"
				}

			}
, 			{
				"box" : 				{
					"maxclass" : "comment",
					"text" : "buttons 0-6 mute channels, button 7 mutes all channels",
					"linecount" : 3,
					"fontname" : "Arial",
					"numoutlets" : 0,
					"id" : "obj-104",
					"fontsize" : 12.0,
					"patching_rect" : [ 885.0, 465.0, 150.0, 48.0 ],
					"numinlets" : 1
				}

			}
, 			{
				"box" : 				{
					"maxclass" : "message",
					"text" : "0 stop",
					"fontname" : "Arial",
					"numoutlets" : 1,
					"id" : "obj-102",
					"outlettype" : [ "" ],
					"fontsize" : 12.0,
					"patching_rect" : [ 840.0, 720.0, 43.0, 18.0 ],
					"numinlets" : 2
				}

			}
, 			{
				"box" : 				{
					"maxclass" : "message",
					"text" : "6 stop",
					"fontname" : "Arial",
					"numoutlets" : 1,
					"id" : "obj-96",
					"outlettype" : [ "" ],
					"fontsize" : 12.0,
					"patching_rect" : [ 930.0, 540.0, 43.0, 18.0 ],
					"numinlets" : 2
				}

			}
, 			{
				"box" : 				{
					"maxclass" : "message",
					"text" : "5 stop",
					"fontname" : "Arial",
					"numoutlets" : 1,
					"id" : "obj-97",
					"outlettype" : [ "" ],
					"fontsize" : 12.0,
					"patching_rect" : [ 915.0, 570.0, 43.0, 18.0 ],
					"numinlets" : 2
				}

			}
, 			{
				"box" : 				{
					"maxclass" : "message",
					"text" : "4 stop",
					"fontname" : "Arial",
					"numoutlets" : 1,
					"id" : "obj-98",
					"outlettype" : [ "" ],
					"fontsize" : 12.0,
					"patching_rect" : [ 900.0, 600.0, 43.0, 18.0 ],
					"numinlets" : 2
				}

			}
, 			{
				"box" : 				{
					"maxclass" : "message",
					"text" : "3 stop",
					"fontname" : "Arial",
					"numoutlets" : 1,
					"id" : "obj-99",
					"outlettype" : [ "" ],
					"fontsize" : 12.0,
					"patching_rect" : [ 885.0, 630.0, 43.0, 18.0 ],
					"numinlets" : 2
				}

			}
, 			{
				"box" : 				{
					"maxclass" : "message",
					"text" : "2 stop",
					"fontname" : "Arial",
					"numoutlets" : 1,
					"id" : "obj-100",
					"outlettype" : [ "" ],
					"fontsize" : 12.0,
					"patching_rect" : [ 870.0, 660.0, 43.0, 18.0 ],
					"numinlets" : 2
				}

			}
, 			{
				"box" : 				{
					"maxclass" : "message",
					"text" : "1 stop",
					"fontname" : "Arial",
					"numoutlets" : 1,
					"id" : "obj-101",
					"outlettype" : [ "" ],
					"fontsize" : 12.0,
					"patching_rect" : [ 855.0, 690.0, 43.0, 18.0 ],
					"numinlets" : 2
				}

			}
, 			{
				"box" : 				{
					"maxclass" : "newobj",
					"text" : "sel 0 1 2 3 4 5 6 7 8 9 10 11 12 13 14 15",
					"fontname" : "Arial",
					"numoutlets" : 17,
					"id" : "obj-95",
					"outlettype" : [ "bang", "bang", "bang", "bang", "bang", "bang", "bang", "bang", "bang", "bang", "bang", "bang", "bang", "bang", "bang", "bang", "" ],
					"fontsize" : 12.0,
					"patching_rect" : [ 840.0, 510.0, 259.0, 20.0 ],
					"numinlets" : 1
				}

			}
, 			{
				"box" : 				{
					"maxclass" : "newobj",
					"text" : "prepend 6",
					"fontname" : "Arial",
					"numoutlets" : 1,
					"id" : "obj-85",
					"outlettype" : [ "" ],
					"fontsize" : 12.0,
					"patching_rect" : [ 705.0, 375.0, 65.0, 20.0 ],
					"numinlets" : 1
				}

			}
, 			{
				"box" : 				{
					"maxclass" : "newobj",
					"text" : "prepend 5",
					"fontname" : "Arial",
					"numoutlets" : 1,
					"id" : "obj-84",
					"outlettype" : [ "" ],
					"fontsize" : 12.0,
					"patching_rect" : [ 630.0, 375.0, 65.0, 20.0 ],
					"numinlets" : 1
				}

			}
, 			{
				"box" : 				{
					"maxclass" : "newobj",
					"text" : "prepend 4",
					"fontname" : "Arial",
					"numoutlets" : 1,
					"id" : "obj-83",
					"outlettype" : [ "" ],
					"fontsize" : 12.0,
					"patching_rect" : [ 555.0, 375.0, 65.0, 20.0 ],
					"numinlets" : 1
				}

			}
, 			{
				"box" : 				{
					"maxclass" : "newobj",
					"text" : "prepend 3",
					"fontname" : "Arial",
					"numoutlets" : 1,
					"id" : "obj-82",
					"outlettype" : [ "" ],
					"fontsize" : 12.0,
					"patching_rect" : [ 480.0, 375.0, 65.0, 20.0 ],
					"numinlets" : 1
				}

			}
, 			{
				"box" : 				{
					"maxclass" : "newobj",
					"text" : "prepend 2",
					"fontname" : "Arial",
					"numoutlets" : 1,
					"id" : "obj-81",
					"outlettype" : [ "" ],
					"fontsize" : 12.0,
					"patching_rect" : [ 405.0, 375.0, 65.0, 20.0 ],
					"numinlets" : 1
				}

			}
, 			{
				"box" : 				{
					"maxclass" : "newobj",
					"text" : "prepend 1",
					"fontname" : "Arial",
					"numoutlets" : 1,
					"id" : "obj-80",
					"outlettype" : [ "" ],
					"fontsize" : 12.0,
					"patching_rect" : [ 330.0, 375.0, 65.0, 20.0 ],
					"numinlets" : 1
				}

			}
, 			{
				"box" : 				{
					"maxclass" : "comment",
					"text" : "Button presses on each row are processed here",
					"linecount" : 2,
					"fontname" : "Arial",
					"numoutlets" : 0,
					"id" : "obj-79",
					"fontsize" : 12.0,
					"patching_rect" : [ 405.0, 180.0, 150.0, 34.0 ],
					"numinlets" : 1
				}

			}
, 			{
				"box" : 				{
					"maxclass" : "newobj",
					"text" : "p rowMesg",
					"fontname" : "Arial",
					"numoutlets" : 1,
					"id" : "obj-76",
					"outlettype" : [ "" ],
					"fontsize" : 12.0,
					"patching_rect" : [ 705.0, 330.0, 69.0, 20.0 ],
					"numinlets" : 2,
					"patcher" : 					{
						"fileversion" : 1,
						"rect" : [ 0.0, 0.0, 640.0, 480.0 ],
						"bglocked" : 0,
						"defrect" : [ 0.0, 0.0, 640.0, 480.0 ],
						"openrect" : [ 0.0, 0.0, 0.0, 0.0 ],
						"openinpresentation" : 0,
						"default_fontsize" : 12.0,
						"default_fontface" : 0,
						"default_fontname" : "Arial",
						"gridonopen" : 0,
						"gridsize" : [ 15.0, 15.0 ],
						"gridsnaponopen" : 0,
						"toolbarvisible" : 1,
						"boxanimatetime" : 200,
						"imprint" : 0,
						"boxes" : [ 							{
								"box" : 								{
									"maxclass" : "newobj",
									"text" : "gate",
									"fontname" : "Arial",
									"numoutlets" : 1,
									"id" : "obj-43",
									"outlettype" : [ "" ],
									"fontsize" : 12.0,
									"patching_rect" : [ 66.5, 137.5, 34.0, 20.0 ],
									"numinlets" : 2
								}

							}
, 							{
								"box" : 								{
									"maxclass" : "toggle",
									"numoutlets" : 1,
									"id" : "obj-37",
									"outlettype" : [ "int" ],
									"patching_rect" : [ 66.5, 107.5, 20.0, 20.0 ],
									"numinlets" : 1
								}

							}
, 							{
								"box" : 								{
									"maxclass" : "message",
									"text" : "goto $1",
									"fontname" : "Arial",
									"numoutlets" : 1,
									"id" : "obj-20",
									"outlettype" : [ "" ],
									"fontsize" : 12.0,
									"patching_rect" : [ 111.5, 197.5, 51.0, 18.0 ],
									"numinlets" : 2
								}

							}
, 							{
								"box" : 								{
									"maxclass" : "message",
									"text" : "play",
									"fontname" : "Arial",
									"numoutlets" : 1,
									"id" : "obj-13",
									"outlettype" : [ "" ],
									"fontsize" : 12.0,
									"patching_rect" : [ 66.5, 197.5, 33.0, 18.0 ],
									"numinlets" : 2
								}

							}
, 							{
								"box" : 								{
									"maxclass" : "newobj",
									"text" : "trigger b l",
									"fontname" : "Arial",
									"numoutlets" : 2,
									"id" : "obj-11",
									"outlettype" : [ "bang", "" ],
									"fontsize" : 12.0,
									"patching_rect" : [ 66.5, 167.5, 64.0, 20.0 ],
									"numinlets" : 1
								}

							}
, 							{
								"box" : 								{
									"maxclass" : "inlet",
									"numoutlets" : 1,
									"id" : "obj-62",
									"outlettype" : [ "bang" ],
									"patching_rect" : [ 66.5, 40.0, 25.0, 25.0 ],
									"numinlets" : 0,
									"comment" : ""
								}

							}
, 							{
								"box" : 								{
									"maxclass" : "inlet",
									"numoutlets" : 1,
									"id" : "obj-63",
									"outlettype" : [ "float" ],
									"patching_rect" : [ 81.5, 40.0, 25.0, 25.0 ],
									"numinlets" : 0,
									"comment" : ""
								}

							}
, 							{
								"box" : 								{
									"maxclass" : "outlet",
									"numoutlets" : 0,
									"id" : "obj-64",
									"patching_rect" : [ 84.0, 275.5, 25.0, 25.0 ],
									"numinlets" : 1,
									"comment" : ""
								}

							}
 ],
						"lines" : [ 							{
								"patchline" : 								{
									"source" : [ "obj-20", 0 ],
									"destination" : [ "obj-64", 0 ],
									"hidden" : 0,
									"midpoints" : [  ]
								}

							}
, 							{
								"patchline" : 								{
									"source" : [ "obj-13", 0 ],
									"destination" : [ "obj-64", 0 ],
									"hidden" : 0,
									"midpoints" : [  ]
								}

							}
, 							{
								"patchline" : 								{
									"source" : [ "obj-63", 0 ],
									"destination" : [ "obj-43", 1 ],
									"hidden" : 0,
									"midpoints" : [  ]
								}

							}
, 							{
								"patchline" : 								{
									"source" : [ "obj-62", 0 ],
									"destination" : [ "obj-37", 0 ],
									"hidden" : 0,
									"midpoints" : [  ]
								}

							}
, 							{
								"patchline" : 								{
									"source" : [ "obj-11", 0 ],
									"destination" : [ "obj-37", 0 ],
									"hidden" : 0,
									"midpoints" : [ 76.0, 188.5, 51.5, 188.5, 51.5, 101.5, 76.0, 101.5 ]
								}

							}
, 							{
								"patchline" : 								{
									"source" : [ "obj-43", 0 ],
									"destination" : [ "obj-11", 0 ],
									"hidden" : 0,
									"midpoints" : [ 76.0, 158.5, 76.0, 158.5 ]
								}

							}
, 							{
								"patchline" : 								{
									"source" : [ "obj-37", 0 ],
									"destination" : [ "obj-43", 0 ],
									"hidden" : 0,
									"midpoints" : [ 76.0, 113.5, 76.0, 113.5 ]
								}

							}
, 							{
								"patchline" : 								{
									"source" : [ "obj-11", 1 ],
									"destination" : [ "obj-20", 0 ],
									"hidden" : 0,
									"midpoints" : [ 121.0, 188.5, 121.0, 188.5 ]
								}

							}
, 							{
								"patchline" : 								{
									"source" : [ "obj-11", 0 ],
									"destination" : [ "obj-13", 0 ],
									"hidden" : 0,
									"midpoints" : [ 76.0, 188.5, 76.0, 188.5 ]
								}

							}
 ]
					}
,
					"saved_object_attributes" : 					{
						"default_fontsize" : 12.0,
						"fontname" : "Arial",
						"fontface" : 0,
						"default_fontface" : 0,
						"fontsize" : 12.0,
						"globalpatchername" : "",
						"default_fontname" : "Arial"
					}

				}

			}
, 			{
				"box" : 				{
					"maxclass" : "newobj",
					"text" : "/ 16.",
					"fontname" : "Arial",
					"numoutlets" : 1,
					"id" : "obj-77",
					"outlettype" : [ "float" ],
					"fontsize" : 12.0,
					"patching_rect" : [ 735.0, 300.0, 34.0, 20.0 ],
					"numinlets" : 2
				}

			}
, 			{
				"box" : 				{
					"maxclass" : "newobj",
					"text" : "p rowMesg",
					"fontname" : "Arial",
					"numoutlets" : 1,
					"id" : "obj-74",
					"outlettype" : [ "" ],
					"fontsize" : 12.0,
					"patching_rect" : [ 630.0, 330.0, 69.0, 20.0 ],
					"numinlets" : 2,
					"patcher" : 					{
						"fileversion" : 1,
						"rect" : [ 0.0, 0.0, 640.0, 480.0 ],
						"bglocked" : 0,
						"defrect" : [ 0.0, 0.0, 640.0, 480.0 ],
						"openrect" : [ 0.0, 0.0, 0.0, 0.0 ],
						"openinpresentation" : 0,
						"default_fontsize" : 12.0,
						"default_fontface" : 0,
						"default_fontname" : "Arial",
						"gridonopen" : 0,
						"gridsize" : [ 15.0, 15.0 ],
						"gridsnaponopen" : 0,
						"toolbarvisible" : 1,
						"boxanimatetime" : 200,
						"imprint" : 0,
						"boxes" : [ 							{
								"box" : 								{
									"maxclass" : "newobj",
									"text" : "gate",
									"fontname" : "Arial",
									"numoutlets" : 1,
									"id" : "obj-43",
									"outlettype" : [ "" ],
									"fontsize" : 12.0,
									"patching_rect" : [ 66.5, 137.5, 34.0, 20.0 ],
									"numinlets" : 2
								}

							}
, 							{
								"box" : 								{
									"maxclass" : "toggle",
									"numoutlets" : 1,
									"id" : "obj-37",
									"outlettype" : [ "int" ],
									"patching_rect" : [ 66.5, 107.5, 20.0, 20.0 ],
									"numinlets" : 1
								}

							}
, 							{
								"box" : 								{
									"maxclass" : "message",
									"text" : "goto $1",
									"fontname" : "Arial",
									"numoutlets" : 1,
									"id" : "obj-20",
									"outlettype" : [ "" ],
									"fontsize" : 12.0,
									"patching_rect" : [ 111.5, 197.5, 51.0, 18.0 ],
									"numinlets" : 2
								}

							}
, 							{
								"box" : 								{
									"maxclass" : "message",
									"text" : "play",
									"fontname" : "Arial",
									"numoutlets" : 1,
									"id" : "obj-13",
									"outlettype" : [ "" ],
									"fontsize" : 12.0,
									"patching_rect" : [ 66.5, 197.5, 33.0, 18.0 ],
									"numinlets" : 2
								}

							}
, 							{
								"box" : 								{
									"maxclass" : "newobj",
									"text" : "trigger b l",
									"fontname" : "Arial",
									"numoutlets" : 2,
									"id" : "obj-11",
									"outlettype" : [ "bang", "" ],
									"fontsize" : 12.0,
									"patching_rect" : [ 66.5, 167.5, 64.0, 20.0 ],
									"numinlets" : 1
								}

							}
, 							{
								"box" : 								{
									"maxclass" : "inlet",
									"numoutlets" : 1,
									"id" : "obj-62",
									"outlettype" : [ "bang" ],
									"patching_rect" : [ 66.5, 40.0, 25.0, 25.0 ],
									"numinlets" : 0,
									"comment" : ""
								}

							}
, 							{
								"box" : 								{
									"maxclass" : "inlet",
									"numoutlets" : 1,
									"id" : "obj-63",
									"outlettype" : [ "float" ],
									"patching_rect" : [ 81.5, 40.0, 25.0, 25.0 ],
									"numinlets" : 0,
									"comment" : ""
								}

							}
, 							{
								"box" : 								{
									"maxclass" : "outlet",
									"numoutlets" : 0,
									"id" : "obj-64",
									"patching_rect" : [ 84.0, 275.5, 25.0, 25.0 ],
									"numinlets" : 1,
									"comment" : ""
								}

							}
 ],
						"lines" : [ 							{
								"patchline" : 								{
									"source" : [ "obj-11", 0 ],
									"destination" : [ "obj-13", 0 ],
									"hidden" : 0,
									"midpoints" : [ 76.0, 188.5, 76.0, 188.5 ]
								}

							}
, 							{
								"patchline" : 								{
									"source" : [ "obj-11", 1 ],
									"destination" : [ "obj-20", 0 ],
									"hidden" : 0,
									"midpoints" : [ 121.0, 188.5, 121.0, 188.5 ]
								}

							}
, 							{
								"patchline" : 								{
									"source" : [ "obj-37", 0 ],
									"destination" : [ "obj-43", 0 ],
									"hidden" : 0,
									"midpoints" : [ 76.0, 113.5, 76.0, 113.5 ]
								}

							}
, 							{
								"patchline" : 								{
									"source" : [ "obj-43", 0 ],
									"destination" : [ "obj-11", 0 ],
									"hidden" : 0,
									"midpoints" : [ 76.0, 158.5, 76.0, 158.5 ]
								}

							}
, 							{
								"patchline" : 								{
									"source" : [ "obj-11", 0 ],
									"destination" : [ "obj-37", 0 ],
									"hidden" : 0,
									"midpoints" : [ 76.0, 188.5, 51.5, 188.5, 51.5, 101.5, 76.0, 101.5 ]
								}

							}
, 							{
								"patchline" : 								{
									"source" : [ "obj-62", 0 ],
									"destination" : [ "obj-37", 0 ],
									"hidden" : 0,
									"midpoints" : [  ]
								}

							}
, 							{
								"patchline" : 								{
									"source" : [ "obj-63", 0 ],
									"destination" : [ "obj-43", 1 ],
									"hidden" : 0,
									"midpoints" : [  ]
								}

							}
, 							{
								"patchline" : 								{
									"source" : [ "obj-13", 0 ],
									"destination" : [ "obj-64", 0 ],
									"hidden" : 0,
									"midpoints" : [  ]
								}

							}
, 							{
								"patchline" : 								{
									"source" : [ "obj-20", 0 ],
									"destination" : [ "obj-64", 0 ],
									"hidden" : 0,
									"midpoints" : [  ]
								}

							}
 ]
					}
,
					"saved_object_attributes" : 					{
						"default_fontsize" : 12.0,
						"fontname" : "Arial",
						"fontface" : 0,
						"default_fontface" : 0,
						"fontsize" : 12.0,
						"globalpatchername" : "",
						"default_fontname" : "Arial"
					}

				}

			}
, 			{
				"box" : 				{
					"maxclass" : "newobj",
					"text" : "/ 16.",
					"fontname" : "Arial",
					"numoutlets" : 1,
					"id" : "obj-75",
					"outlettype" : [ "float" ],
					"fontsize" : 12.0,
					"patching_rect" : [ 660.0, 300.0, 34.0, 20.0 ],
					"numinlets" : 2
				}

			}
, 			{
				"box" : 				{
					"maxclass" : "newobj",
					"text" : "p rowMesg",
					"fontname" : "Arial",
					"numoutlets" : 1,
					"id" : "obj-72",
					"outlettype" : [ "" ],
					"fontsize" : 12.0,
					"patching_rect" : [ 555.0, 330.0, 69.0, 20.0 ],
					"numinlets" : 2,
					"patcher" : 					{
						"fileversion" : 1,
						"rect" : [ 0.0, 0.0, 640.0, 480.0 ],
						"bglocked" : 0,
						"defrect" : [ 0.0, 0.0, 640.0, 480.0 ],
						"openrect" : [ 0.0, 0.0, 0.0, 0.0 ],
						"openinpresentation" : 0,
						"default_fontsize" : 12.0,
						"default_fontface" : 0,
						"default_fontname" : "Arial",
						"gridonopen" : 0,
						"gridsize" : [ 15.0, 15.0 ],
						"gridsnaponopen" : 0,
						"toolbarvisible" : 1,
						"boxanimatetime" : 200,
						"imprint" : 0,
						"boxes" : [ 							{
								"box" : 								{
									"maxclass" : "newobj",
									"text" : "gate",
									"fontname" : "Arial",
									"numoutlets" : 1,
									"id" : "obj-43",
									"outlettype" : [ "" ],
									"fontsize" : 12.0,
									"patching_rect" : [ 66.5, 137.5, 34.0, 20.0 ],
									"numinlets" : 2
								}

							}
, 							{
								"box" : 								{
									"maxclass" : "toggle",
									"numoutlets" : 1,
									"id" : "obj-37",
									"outlettype" : [ "int" ],
									"patching_rect" : [ 66.5, 107.5, 20.0, 20.0 ],
									"numinlets" : 1
								}

							}
, 							{
								"box" : 								{
									"maxclass" : "message",
									"text" : "goto $1",
									"fontname" : "Arial",
									"numoutlets" : 1,
									"id" : "obj-20",
									"outlettype" : [ "" ],
									"fontsize" : 12.0,
									"patching_rect" : [ 111.5, 197.5, 51.0, 18.0 ],
									"numinlets" : 2
								}

							}
, 							{
								"box" : 								{
									"maxclass" : "message",
									"text" : "play",
									"fontname" : "Arial",
									"numoutlets" : 1,
									"id" : "obj-13",
									"outlettype" : [ "" ],
									"fontsize" : 12.0,
									"patching_rect" : [ 66.5, 197.5, 33.0, 18.0 ],
									"numinlets" : 2
								}

							}
, 							{
								"box" : 								{
									"maxclass" : "newobj",
									"text" : "trigger b l",
									"fontname" : "Arial",
									"numoutlets" : 2,
									"id" : "obj-11",
									"outlettype" : [ "bang", "" ],
									"fontsize" : 12.0,
									"patching_rect" : [ 66.5, 167.5, 64.0, 20.0 ],
									"numinlets" : 1
								}

							}
, 							{
								"box" : 								{
									"maxclass" : "inlet",
									"numoutlets" : 1,
									"id" : "obj-62",
									"outlettype" : [ "bang" ],
									"patching_rect" : [ 66.5, 40.0, 25.0, 25.0 ],
									"numinlets" : 0,
									"comment" : ""
								}

							}
, 							{
								"box" : 								{
									"maxclass" : "inlet",
									"numoutlets" : 1,
									"id" : "obj-63",
									"outlettype" : [ "float" ],
									"patching_rect" : [ 81.5, 40.0, 25.0, 25.0 ],
									"numinlets" : 0,
									"comment" : ""
								}

							}
, 							{
								"box" : 								{
									"maxclass" : "outlet",
									"numoutlets" : 0,
									"id" : "obj-64",
									"patching_rect" : [ 84.0, 275.5, 25.0, 25.0 ],
									"numinlets" : 1,
									"comment" : ""
								}

							}
 ],
						"lines" : [ 							{
								"patchline" : 								{
									"source" : [ "obj-20", 0 ],
									"destination" : [ "obj-64", 0 ],
									"hidden" : 0,
									"midpoints" : [  ]
								}

							}
, 							{
								"patchline" : 								{
									"source" : [ "obj-13", 0 ],
									"destination" : [ "obj-64", 0 ],
									"hidden" : 0,
									"midpoints" : [  ]
								}

							}
, 							{
								"patchline" : 								{
									"source" : [ "obj-63", 0 ],
									"destination" : [ "obj-43", 1 ],
									"hidden" : 0,
									"midpoints" : [  ]
								}

							}
, 							{
								"patchline" : 								{
									"source" : [ "obj-62", 0 ],
									"destination" : [ "obj-37", 0 ],
									"hidden" : 0,
									"midpoints" : [  ]
								}

							}
, 							{
								"patchline" : 								{
									"source" : [ "obj-11", 0 ],
									"destination" : [ "obj-37", 0 ],
									"hidden" : 0,
									"midpoints" : [ 76.0, 188.5, 51.5, 188.5, 51.5, 101.5, 76.0, 101.5 ]
								}

							}
, 							{
								"patchline" : 								{
									"source" : [ "obj-43", 0 ],
									"destination" : [ "obj-11", 0 ],
									"hidden" : 0,
									"midpoints" : [ 76.0, 158.5, 76.0, 158.5 ]
								}

							}
, 							{
								"patchline" : 								{
									"source" : [ "obj-37", 0 ],
									"destination" : [ "obj-43", 0 ],
									"hidden" : 0,
									"midpoints" : [ 76.0, 113.5, 76.0, 113.5 ]
								}

							}
, 							{
								"patchline" : 								{
									"source" : [ "obj-11", 1 ],
									"destination" : [ "obj-20", 0 ],
									"hidden" : 0,
									"midpoints" : [ 121.0, 188.5, 121.0, 188.5 ]
								}

							}
, 							{
								"patchline" : 								{
									"source" : [ "obj-11", 0 ],
									"destination" : [ "obj-13", 0 ],
									"hidden" : 0,
									"midpoints" : [ 76.0, 188.5, 76.0, 188.5 ]
								}

							}
 ]
					}
,
					"saved_object_attributes" : 					{
						"default_fontsize" : 12.0,
						"fontname" : "Arial",
						"fontface" : 0,
						"default_fontface" : 0,
						"fontsize" : 12.0,
						"globalpatchername" : "",
						"default_fontname" : "Arial"
					}

				}

			}
, 			{
				"box" : 				{
					"maxclass" : "newobj",
					"text" : "/ 16.",
					"fontname" : "Arial",
					"numoutlets" : 1,
					"id" : "obj-73",
					"outlettype" : [ "float" ],
					"fontsize" : 12.0,
					"patching_rect" : [ 585.0, 300.0, 34.0, 20.0 ],
					"numinlets" : 2
				}

			}
, 			{
				"box" : 				{
					"maxclass" : "newobj",
					"text" : "p rowMesg",
					"fontname" : "Arial",
					"numoutlets" : 1,
					"id" : "obj-70",
					"outlettype" : [ "" ],
					"fontsize" : 12.0,
					"patching_rect" : [ 480.0, 330.0, 69.0, 20.0 ],
					"numinlets" : 2,
					"patcher" : 					{
						"fileversion" : 1,
						"rect" : [ 0.0, 0.0, 640.0, 480.0 ],
						"bglocked" : 0,
						"defrect" : [ 0.0, 0.0, 640.0, 480.0 ],
						"openrect" : [ 0.0, 0.0, 0.0, 0.0 ],
						"openinpresentation" : 0,
						"default_fontsize" : 12.0,
						"default_fontface" : 0,
						"default_fontname" : "Arial",
						"gridonopen" : 0,
						"gridsize" : [ 15.0, 15.0 ],
						"gridsnaponopen" : 0,
						"toolbarvisible" : 1,
						"boxanimatetime" : 200,
						"imprint" : 0,
						"boxes" : [ 							{
								"box" : 								{
									"maxclass" : "newobj",
									"text" : "gate",
									"fontname" : "Arial",
									"numoutlets" : 1,
									"id" : "obj-43",
									"outlettype" : [ "" ],
									"fontsize" : 12.0,
									"patching_rect" : [ 66.5, 137.5, 34.0, 20.0 ],
									"numinlets" : 2
								}

							}
, 							{
								"box" : 								{
									"maxclass" : "toggle",
									"numoutlets" : 1,
									"id" : "obj-37",
									"outlettype" : [ "int" ],
									"patching_rect" : [ 66.5, 107.5, 20.0, 20.0 ],
									"numinlets" : 1
								}

							}
, 							{
								"box" : 								{
									"maxclass" : "message",
									"text" : "goto $1",
									"fontname" : "Arial",
									"numoutlets" : 1,
									"id" : "obj-20",
									"outlettype" : [ "" ],
									"fontsize" : 12.0,
									"patching_rect" : [ 111.5, 197.5, 51.0, 18.0 ],
									"numinlets" : 2
								}

							}
, 							{
								"box" : 								{
									"maxclass" : "message",
									"text" : "play",
									"fontname" : "Arial",
									"numoutlets" : 1,
									"id" : "obj-13",
									"outlettype" : [ "" ],
									"fontsize" : 12.0,
									"patching_rect" : [ 66.5, 197.5, 33.0, 18.0 ],
									"numinlets" : 2
								}

							}
, 							{
								"box" : 								{
									"maxclass" : "newobj",
									"text" : "trigger b l",
									"fontname" : "Arial",
									"numoutlets" : 2,
									"id" : "obj-11",
									"outlettype" : [ "bang", "" ],
									"fontsize" : 12.0,
									"patching_rect" : [ 66.5, 167.5, 64.0, 20.0 ],
									"numinlets" : 1
								}

							}
, 							{
								"box" : 								{
									"maxclass" : "inlet",
									"numoutlets" : 1,
									"id" : "obj-62",
									"outlettype" : [ "bang" ],
									"patching_rect" : [ 66.5, 40.0, 25.0, 25.0 ],
									"numinlets" : 0,
									"comment" : ""
								}

							}
, 							{
								"box" : 								{
									"maxclass" : "inlet",
									"numoutlets" : 1,
									"id" : "obj-63",
									"outlettype" : [ "float" ],
									"patching_rect" : [ 81.5, 40.0, 25.0, 25.0 ],
									"numinlets" : 0,
									"comment" : ""
								}

							}
, 							{
								"box" : 								{
									"maxclass" : "outlet",
									"numoutlets" : 0,
									"id" : "obj-64",
									"patching_rect" : [ 84.0, 275.5, 25.0, 25.0 ],
									"numinlets" : 1,
									"comment" : ""
								}

							}
 ],
						"lines" : [ 							{
								"patchline" : 								{
									"source" : [ "obj-11", 0 ],
									"destination" : [ "obj-13", 0 ],
									"hidden" : 0,
									"midpoints" : [ 76.0, 188.5, 76.0, 188.5 ]
								}

							}
, 							{
								"patchline" : 								{
									"source" : [ "obj-11", 1 ],
									"destination" : [ "obj-20", 0 ],
									"hidden" : 0,
									"midpoints" : [ 121.0, 188.5, 121.0, 188.5 ]
								}

							}
, 							{
								"patchline" : 								{
									"source" : [ "obj-37", 0 ],
									"destination" : [ "obj-43", 0 ],
									"hidden" : 0,
									"midpoints" : [ 76.0, 113.5, 76.0, 113.5 ]
								}

							}
, 							{
								"patchline" : 								{
									"source" : [ "obj-43", 0 ],
									"destination" : [ "obj-11", 0 ],
									"hidden" : 0,
									"midpoints" : [ 76.0, 158.5, 76.0, 158.5 ]
								}

							}
, 							{
								"patchline" : 								{
									"source" : [ "obj-11", 0 ],
									"destination" : [ "obj-37", 0 ],
									"hidden" : 0,
									"midpoints" : [ 76.0, 188.5, 51.5, 188.5, 51.5, 101.5, 76.0, 101.5 ]
								}

							}
, 							{
								"patchline" : 								{
									"source" : [ "obj-62", 0 ],
									"destination" : [ "obj-37", 0 ],
									"hidden" : 0,
									"midpoints" : [  ]
								}

							}
, 							{
								"patchline" : 								{
									"source" : [ "obj-63", 0 ],
									"destination" : [ "obj-43", 1 ],
									"hidden" : 0,
									"midpoints" : [  ]
								}

							}
, 							{
								"patchline" : 								{
									"source" : [ "obj-13", 0 ],
									"destination" : [ "obj-64", 0 ],
									"hidden" : 0,
									"midpoints" : [  ]
								}

							}
, 							{
								"patchline" : 								{
									"source" : [ "obj-20", 0 ],
									"destination" : [ "obj-64", 0 ],
									"hidden" : 0,
									"midpoints" : [  ]
								}

							}
 ]
					}
,
					"saved_object_attributes" : 					{
						"default_fontsize" : 12.0,
						"fontname" : "Arial",
						"fontface" : 0,
						"default_fontface" : 0,
						"fontsize" : 12.0,
						"globalpatchername" : "",
						"default_fontname" : "Arial"
					}

				}

			}
, 			{
				"box" : 				{
					"maxclass" : "newobj",
					"text" : "/ 16.",
					"fontname" : "Arial",
					"numoutlets" : 1,
					"id" : "obj-71",
					"outlettype" : [ "float" ],
					"fontsize" : 12.0,
					"patching_rect" : [ 510.0, 300.0, 34.0, 20.0 ],
					"numinlets" : 2
				}

			}
, 			{
				"box" : 				{
					"maxclass" : "newobj",
					"text" : "p rowMesg",
					"fontname" : "Arial",
					"numoutlets" : 1,
					"id" : "obj-68",
					"outlettype" : [ "" ],
					"fontsize" : 12.0,
					"patching_rect" : [ 405.0, 330.0, 69.0, 20.0 ],
					"numinlets" : 2,
					"patcher" : 					{
						"fileversion" : 1,
						"rect" : [ 0.0, 0.0, 640.0, 480.0 ],
						"bglocked" : 0,
						"defrect" : [ 0.0, 0.0, 640.0, 480.0 ],
						"openrect" : [ 0.0, 0.0, 0.0, 0.0 ],
						"openinpresentation" : 0,
						"default_fontsize" : 12.0,
						"default_fontface" : 0,
						"default_fontname" : "Arial",
						"gridonopen" : 0,
						"gridsize" : [ 15.0, 15.0 ],
						"gridsnaponopen" : 0,
						"toolbarvisible" : 1,
						"boxanimatetime" : 200,
						"imprint" : 0,
						"boxes" : [ 							{
								"box" : 								{
									"maxclass" : "newobj",
									"text" : "gate",
									"fontname" : "Arial",
									"numoutlets" : 1,
									"id" : "obj-43",
									"outlettype" : [ "" ],
									"fontsize" : 12.0,
									"patching_rect" : [ 66.5, 137.5, 34.0, 20.0 ],
									"numinlets" : 2
								}

							}
, 							{
								"box" : 								{
									"maxclass" : "toggle",
									"numoutlets" : 1,
									"id" : "obj-37",
									"outlettype" : [ "int" ],
									"patching_rect" : [ 66.5, 107.5, 20.0, 20.0 ],
									"numinlets" : 1
								}

							}
, 							{
								"box" : 								{
									"maxclass" : "message",
									"text" : "goto $1",
									"fontname" : "Arial",
									"numoutlets" : 1,
									"id" : "obj-20",
									"outlettype" : [ "" ],
									"fontsize" : 12.0,
									"patching_rect" : [ 111.5, 197.5, 51.0, 18.0 ],
									"numinlets" : 2
								}

							}
, 							{
								"box" : 								{
									"maxclass" : "message",
									"text" : "play",
									"fontname" : "Arial",
									"numoutlets" : 1,
									"id" : "obj-13",
									"outlettype" : [ "" ],
									"fontsize" : 12.0,
									"patching_rect" : [ 66.5, 197.5, 33.0, 18.0 ],
									"numinlets" : 2
								}

							}
, 							{
								"box" : 								{
									"maxclass" : "newobj",
									"text" : "trigger b l",
									"fontname" : "Arial",
									"numoutlets" : 2,
									"id" : "obj-11",
									"outlettype" : [ "bang", "" ],
									"fontsize" : 12.0,
									"patching_rect" : [ 66.5, 167.5, 64.0, 20.0 ],
									"numinlets" : 1
								}

							}
, 							{
								"box" : 								{
									"maxclass" : "inlet",
									"numoutlets" : 1,
									"id" : "obj-62",
									"outlettype" : [ "bang" ],
									"patching_rect" : [ 66.5, 40.0, 25.0, 25.0 ],
									"numinlets" : 0,
									"comment" : ""
								}

							}
, 							{
								"box" : 								{
									"maxclass" : "inlet",
									"numoutlets" : 1,
									"id" : "obj-63",
									"outlettype" : [ "float" ],
									"patching_rect" : [ 81.5, 40.0, 25.0, 25.0 ],
									"numinlets" : 0,
									"comment" : ""
								}

							}
, 							{
								"box" : 								{
									"maxclass" : "outlet",
									"numoutlets" : 0,
									"id" : "obj-64",
									"patching_rect" : [ 84.0, 275.5, 25.0, 25.0 ],
									"numinlets" : 1,
									"comment" : ""
								}

							}
 ],
						"lines" : [ 							{
								"patchline" : 								{
									"source" : [ "obj-20", 0 ],
									"destination" : [ "obj-64", 0 ],
									"hidden" : 0,
									"midpoints" : [  ]
								}

							}
, 							{
								"patchline" : 								{
									"source" : [ "obj-13", 0 ],
									"destination" : [ "obj-64", 0 ],
									"hidden" : 0,
									"midpoints" : [  ]
								}

							}
, 							{
								"patchline" : 								{
									"source" : [ "obj-63", 0 ],
									"destination" : [ "obj-43", 1 ],
									"hidden" : 0,
									"midpoints" : [  ]
								}

							}
, 							{
								"patchline" : 								{
									"source" : [ "obj-62", 0 ],
									"destination" : [ "obj-37", 0 ],
									"hidden" : 0,
									"midpoints" : [  ]
								}

							}
, 							{
								"patchline" : 								{
									"source" : [ "obj-11", 0 ],
									"destination" : [ "obj-37", 0 ],
									"hidden" : 0,
									"midpoints" : [ 76.0, 188.5, 51.5, 188.5, 51.5, 101.5, 76.0, 101.5 ]
								}

							}
, 							{
								"patchline" : 								{
									"source" : [ "obj-43", 0 ],
									"destination" : [ "obj-11", 0 ],
									"hidden" : 0,
									"midpoints" : [ 76.0, 158.5, 76.0, 158.5 ]
								}

							}
, 							{
								"patchline" : 								{
									"source" : [ "obj-37", 0 ],
									"destination" : [ "obj-43", 0 ],
									"hidden" : 0,
									"midpoints" : [ 76.0, 113.5, 76.0, 113.5 ]
								}

							}
, 							{
								"patchline" : 								{
									"source" : [ "obj-11", 1 ],
									"destination" : [ "obj-20", 0 ],
									"hidden" : 0,
									"midpoints" : [ 121.0, 188.5, 121.0, 188.5 ]
								}

							}
, 							{
								"patchline" : 								{
									"source" : [ "obj-11", 0 ],
									"destination" : [ "obj-13", 0 ],
									"hidden" : 0,
									"midpoints" : [ 76.0, 188.5, 76.0, 188.5 ]
								}

							}
 ]
					}
,
					"saved_object_attributes" : 					{
						"default_fontsize" : 12.0,
						"fontname" : "Arial",
						"fontface" : 0,
						"default_fontface" : 0,
						"fontsize" : 12.0,
						"globalpatchername" : "",
						"default_fontname" : "Arial"
					}

				}

			}
, 			{
				"box" : 				{
					"maxclass" : "newobj",
					"text" : "/ 16.",
					"fontname" : "Arial",
					"numoutlets" : 1,
					"id" : "obj-69",
					"outlettype" : [ "float" ],
					"fontsize" : 12.0,
					"patching_rect" : [ 435.0, 300.0, 34.0, 20.0 ],
					"numinlets" : 2
				}

			}
, 			{
				"box" : 				{
					"maxclass" : "newobj",
					"text" : "p rowMesg",
					"fontname" : "Arial",
					"numoutlets" : 1,
					"id" : "obj-66",
					"outlettype" : [ "" ],
					"fontsize" : 12.0,
					"patching_rect" : [ 330.0, 330.0, 69.0, 20.0 ],
					"numinlets" : 2,
					"patcher" : 					{
						"fileversion" : 1,
						"rect" : [ 0.0, 0.0, 640.0, 480.0 ],
						"bglocked" : 0,
						"defrect" : [ 0.0, 0.0, 640.0, 480.0 ],
						"openrect" : [ 0.0, 0.0, 0.0, 0.0 ],
						"openinpresentation" : 0,
						"default_fontsize" : 12.0,
						"default_fontface" : 0,
						"default_fontname" : "Arial",
						"gridonopen" : 0,
						"gridsize" : [ 15.0, 15.0 ],
						"gridsnaponopen" : 0,
						"toolbarvisible" : 1,
						"boxanimatetime" : 200,
						"imprint" : 0,
						"boxes" : [ 							{
								"box" : 								{
									"maxclass" : "newobj",
									"text" : "gate",
									"fontname" : "Arial",
									"numoutlets" : 1,
									"id" : "obj-43",
									"outlettype" : [ "" ],
									"fontsize" : 12.0,
									"patching_rect" : [ 66.5, 137.5, 34.0, 20.0 ],
									"numinlets" : 2
								}

							}
, 							{
								"box" : 								{
									"maxclass" : "toggle",
									"numoutlets" : 1,
									"id" : "obj-37",
									"outlettype" : [ "int" ],
									"patching_rect" : [ 66.5, 107.5, 20.0, 20.0 ],
									"numinlets" : 1
								}

							}
, 							{
								"box" : 								{
									"maxclass" : "message",
									"text" : "goto $1",
									"fontname" : "Arial",
									"numoutlets" : 1,
									"id" : "obj-20",
									"outlettype" : [ "" ],
									"fontsize" : 12.0,
									"patching_rect" : [ 111.5, 197.5, 51.0, 18.0 ],
									"numinlets" : 2
								}

							}
, 							{
								"box" : 								{
									"maxclass" : "message",
									"text" : "play",
									"fontname" : "Arial",
									"numoutlets" : 1,
									"id" : "obj-13",
									"outlettype" : [ "" ],
									"fontsize" : 12.0,
									"patching_rect" : [ 66.5, 197.5, 33.0, 18.0 ],
									"numinlets" : 2
								}

							}
, 							{
								"box" : 								{
									"maxclass" : "newobj",
									"text" : "trigger b l",
									"fontname" : "Arial",
									"numoutlets" : 2,
									"id" : "obj-11",
									"outlettype" : [ "bang", "" ],
									"fontsize" : 12.0,
									"patching_rect" : [ 66.5, 167.5, 64.0, 20.0 ],
									"numinlets" : 1
								}

							}
, 							{
								"box" : 								{
									"maxclass" : "inlet",
									"numoutlets" : 1,
									"id" : "obj-62",
									"outlettype" : [ "bang" ],
									"patching_rect" : [ 66.5, 40.0, 25.0, 25.0 ],
									"numinlets" : 0,
									"comment" : ""
								}

							}
, 							{
								"box" : 								{
									"maxclass" : "inlet",
									"numoutlets" : 1,
									"id" : "obj-63",
									"outlettype" : [ "float" ],
									"patching_rect" : [ 81.5, 40.0, 25.0, 25.0 ],
									"numinlets" : 0,
									"comment" : ""
								}

							}
, 							{
								"box" : 								{
									"maxclass" : "outlet",
									"numoutlets" : 0,
									"id" : "obj-64",
									"patching_rect" : [ 84.0, 275.5, 25.0, 25.0 ],
									"numinlets" : 1,
									"comment" : ""
								}

							}
 ],
						"lines" : [ 							{
								"patchline" : 								{
									"source" : [ "obj-11", 0 ],
									"destination" : [ "obj-13", 0 ],
									"hidden" : 0,
									"midpoints" : [ 76.0, 188.5, 76.0, 188.5 ]
								}

							}
, 							{
								"patchline" : 								{
									"source" : [ "obj-11", 1 ],
									"destination" : [ "obj-20", 0 ],
									"hidden" : 0,
									"midpoints" : [ 121.0, 188.5, 121.0, 188.5 ]
								}

							}
, 							{
								"patchline" : 								{
									"source" : [ "obj-37", 0 ],
									"destination" : [ "obj-43", 0 ],
									"hidden" : 0,
									"midpoints" : [ 76.0, 113.5, 76.0, 113.5 ]
								}

							}
, 							{
								"patchline" : 								{
									"source" : [ "obj-43", 0 ],
									"destination" : [ "obj-11", 0 ],
									"hidden" : 0,
									"midpoints" : [ 76.0, 158.5, 76.0, 158.5 ]
								}

							}
, 							{
								"patchline" : 								{
									"source" : [ "obj-11", 0 ],
									"destination" : [ "obj-37", 0 ],
									"hidden" : 0,
									"midpoints" : [ 76.0, 188.5, 51.5, 188.5, 51.5, 101.5, 76.0, 101.5 ]
								}

							}
, 							{
								"patchline" : 								{
									"source" : [ "obj-62", 0 ],
									"destination" : [ "obj-37", 0 ],
									"hidden" : 0,
									"midpoints" : [  ]
								}

							}
, 							{
								"patchline" : 								{
									"source" : [ "obj-63", 0 ],
									"destination" : [ "obj-43", 1 ],
									"hidden" : 0,
									"midpoints" : [  ]
								}

							}
, 							{
								"patchline" : 								{
									"source" : [ "obj-13", 0 ],
									"destination" : [ "obj-64", 0 ],
									"hidden" : 0,
									"midpoints" : [  ]
								}

							}
, 							{
								"patchline" : 								{
									"source" : [ "obj-20", 0 ],
									"destination" : [ "obj-64", 0 ],
									"hidden" : 0,
									"midpoints" : [  ]
								}

							}
 ]
					}
,
					"saved_object_attributes" : 					{
						"default_fontsize" : 12.0,
						"fontname" : "Arial",
						"fontface" : 0,
						"default_fontface" : 0,
						"fontsize" : 12.0,
						"globalpatchername" : "",
						"default_fontname" : "Arial"
					}

				}

			}
, 			{
				"box" : 				{
					"maxclass" : "newobj",
					"text" : "/ 16.",
					"fontname" : "Arial",
					"numoutlets" : 1,
					"id" : "obj-67",
					"outlettype" : [ "float" ],
					"fontsize" : 12.0,
					"patching_rect" : [ 360.0, 300.0, 34.0, 20.0 ],
					"numinlets" : 2
				}

			}
, 			{
				"box" : 				{
					"maxclass" : "newobj",
					"text" : "p rowMesg",
					"fontname" : "Arial",
					"numoutlets" : 1,
					"id" : "obj-65",
					"outlettype" : [ "" ],
					"fontsize" : 12.0,
					"patching_rect" : [ 255.0, 330.0, 69.0, 20.0 ],
					"numinlets" : 2,
					"patcher" : 					{
						"fileversion" : 1,
						"rect" : [ 0.0, 0.0, 640.0, 480.0 ],
						"bglocked" : 0,
						"defrect" : [ 0.0, 0.0, 640.0, 480.0 ],
						"openrect" : [ 0.0, 0.0, 0.0, 0.0 ],
						"openinpresentation" : 0,
						"default_fontsize" : 12.0,
						"default_fontface" : 0,
						"default_fontname" : "Arial",
						"gridonopen" : 0,
						"gridsize" : [ 15.0, 15.0 ],
						"gridsnaponopen" : 0,
						"toolbarvisible" : 1,
						"boxanimatetime" : 200,
						"imprint" : 0,
						"boxes" : [ 							{
								"box" : 								{
									"maxclass" : "newobj",
									"text" : "gate",
									"fontname" : "Arial",
									"numoutlets" : 1,
									"id" : "obj-43",
									"outlettype" : [ "" ],
									"fontsize" : 12.0,
									"patching_rect" : [ 66.5, 137.5, 34.0, 20.0 ],
									"numinlets" : 2
								}

							}
, 							{
								"box" : 								{
									"maxclass" : "toggle",
									"numoutlets" : 1,
									"id" : "obj-37",
									"outlettype" : [ "int" ],
									"patching_rect" : [ 66.5, 107.5, 20.0, 20.0 ],
									"numinlets" : 1
								}

							}
, 							{
								"box" : 								{
									"maxclass" : "message",
									"text" : "goto $1",
									"fontname" : "Arial",
									"numoutlets" : 1,
									"id" : "obj-20",
									"outlettype" : [ "" ],
									"fontsize" : 12.0,
									"patching_rect" : [ 111.5, 197.5, 51.0, 18.0 ],
									"numinlets" : 2
								}

							}
, 							{
								"box" : 								{
									"maxclass" : "message",
									"text" : "play",
									"fontname" : "Arial",
									"numoutlets" : 1,
									"id" : "obj-13",
									"outlettype" : [ "" ],
									"fontsize" : 12.0,
									"patching_rect" : [ 66.5, 197.5, 33.0, 18.0 ],
									"numinlets" : 2
								}

							}
, 							{
								"box" : 								{
									"maxclass" : "newobj",
									"text" : "trigger b l",
									"fontname" : "Arial",
									"numoutlets" : 2,
									"id" : "obj-11",
									"outlettype" : [ "bang", "" ],
									"fontsize" : 12.0,
									"patching_rect" : [ 66.5, 167.5, 64.0, 20.0 ],
									"numinlets" : 1
								}

							}
, 							{
								"box" : 								{
									"maxclass" : "inlet",
									"numoutlets" : 1,
									"id" : "obj-62",
									"outlettype" : [ "bang" ],
									"patching_rect" : [ 66.5, 40.0, 25.0, 25.0 ],
									"numinlets" : 0,
									"comment" : ""
								}

							}
, 							{
								"box" : 								{
									"maxclass" : "inlet",
									"numoutlets" : 1,
									"id" : "obj-63",
									"outlettype" : [ "float" ],
									"patching_rect" : [ 81.5, 40.0, 25.0, 25.0 ],
									"numinlets" : 0,
									"comment" : ""
								}

							}
, 							{
								"box" : 								{
									"maxclass" : "outlet",
									"numoutlets" : 0,
									"id" : "obj-64",
									"patching_rect" : [ 84.0, 275.5, 25.0, 25.0 ],
									"numinlets" : 1,
									"comment" : ""
								}

							}
 ],
						"lines" : [ 							{
								"patchline" : 								{
									"source" : [ "obj-20", 0 ],
									"destination" : [ "obj-64", 0 ],
									"hidden" : 0,
									"midpoints" : [  ]
								}

							}
, 							{
								"patchline" : 								{
									"source" : [ "obj-13", 0 ],
									"destination" : [ "obj-64", 0 ],
									"hidden" : 0,
									"midpoints" : [  ]
								}

							}
, 							{
								"patchline" : 								{
									"source" : [ "obj-63", 0 ],
									"destination" : [ "obj-43", 1 ],
									"hidden" : 0,
									"midpoints" : [  ]
								}

							}
, 							{
								"patchline" : 								{
									"source" : [ "obj-62", 0 ],
									"destination" : [ "obj-37", 0 ],
									"hidden" : 0,
									"midpoints" : [  ]
								}

							}
, 							{
								"patchline" : 								{
									"source" : [ "obj-11", 0 ],
									"destination" : [ "obj-37", 0 ],
									"hidden" : 0,
									"midpoints" : [ 76.0, 188.5, 51.5, 188.5, 51.5, 101.5, 76.0, 101.5 ]
								}

							}
, 							{
								"patchline" : 								{
									"source" : [ "obj-43", 0 ],
									"destination" : [ "obj-11", 0 ],
									"hidden" : 0,
									"midpoints" : [ 76.0, 158.5, 76.0, 158.5 ]
								}

							}
, 							{
								"patchline" : 								{
									"source" : [ "obj-37", 0 ],
									"destination" : [ "obj-43", 0 ],
									"hidden" : 0,
									"midpoints" : [ 76.0, 113.5, 76.0, 113.5 ]
								}

							}
, 							{
								"patchline" : 								{
									"source" : [ "obj-11", 1 ],
									"destination" : [ "obj-20", 0 ],
									"hidden" : 0,
									"midpoints" : [ 121.0, 188.5, 121.0, 188.5 ]
								}

							}
, 							{
								"patchline" : 								{
									"source" : [ "obj-11", 0 ],
									"destination" : [ "obj-13", 0 ],
									"hidden" : 0,
									"midpoints" : [ 76.0, 188.5, 76.0, 188.5 ]
								}

							}
 ]
					}
,
					"saved_object_attributes" : 					{
						"default_fontsize" : 12.0,
						"fontname" : "Arial",
						"fontface" : 0,
						"default_fontface" : 0,
						"fontsize" : 12.0,
						"globalpatchername" : "",
						"default_fontname" : "Arial"
					}

				}

			}
, 			{
				"box" : 				{
					"maxclass" : "newobj",
					"text" : "sel 0 1 2 3 4 5 6 7",
					"fontname" : "Arial",
					"numoutlets" : 9,
					"id" : "obj-23",
					"outlettype" : [ "bang", "bang", "bang", "bang", "bang", "bang", "bang", "bang", "" ],
					"fontsize" : 12.0,
					"patching_rect" : [ 255.0, 225.0, 617.0, 20.0 ],
					"numinlets" : 1
				}

			}
, 			{
				"box" : 				{
					"maxclass" : "newobj",
					"text" : "prepend 0",
					"fontname" : "Arial",
					"numoutlets" : 1,
					"id" : "obj-16",
					"outlettype" : [ "" ],
					"fontsize" : 12.0,
					"patching_rect" : [ 255.0, 375.0, 65.0, 20.0 ],
					"numinlets" : 1
				}

			}
, 			{
				"box" : 				{
					"maxclass" : "outlet",
					"numoutlets" : 0,
					"id" : "obj-14",
					"patching_rect" : [ 810.0, 765.0, 25.0, 25.0 ],
					"numinlets" : 1,
					"comment" : ""
				}

			}
, 			{
				"box" : 				{
					"maxclass" : "newobj",
					"text" : "print X",
					"fontname" : "Arial",
					"numoutlets" : 0,
					"id" : "obj-12",
					"fontsize" : 12.0,
					"patching_rect" : [ 270.0, 180.0, 45.0, 20.0 ],
					"numinlets" : 1
				}

			}
, 			{
				"box" : 				{
					"maxclass" : "newobj",
					"text" : "print Y",
					"fontname" : "Arial",
					"numoutlets" : 0,
					"id" : "obj-7",
					"fontsize" : 12.0,
					"patching_rect" : [ 165.0, 180.0, 45.0, 20.0 ],
					"numinlets" : 1
				}

			}
, 			{
				"box" : 				{
					"maxclass" : "newobj",
					"text" : "/ 16.",
					"fontname" : "Arial",
					"numoutlets" : 1,
					"id" : "obj-10",
					"outlettype" : [ "float" ],
					"fontsize" : 12.0,
					"patching_rect" : [ 285.0, 300.0, 34.0, 20.0 ],
					"numinlets" : 2
				}

			}
, 			{
				"box" : 				{
					"maxclass" : "newobj",
					"text" : "gate",
					"fontname" : "Arial",
					"numoutlets" : 1,
					"id" : "obj-6",
					"outlettype" : [ "" ],
					"fontsize" : 12.0,
					"patching_rect" : [ 255.0, 150.0, 34.0, 20.0 ],
					"numinlets" : 2
				}

			}
, 			{
				"box" : 				{
					"maxclass" : "newobj",
					"text" : "gate",
					"fontname" : "Arial",
					"numoutlets" : 1,
					"id" : "obj-5",
					"outlettype" : [ "" ],
					"fontsize" : 12.0,
					"patching_rect" : [ 135.0, 150.0, 34.0, 20.0 ],
					"numinlets" : 2
				}

			}
, 			{
				"box" : 				{
					"maxclass" : "newobj",
					"text" : "unpack 0 0 0",
					"fontname" : "Arial",
					"numoutlets" : 3,
					"id" : "obj-4",
					"outlettype" : [ "int", "int", "int" ],
					"fontsize" : 12.0,
					"patching_rect" : [ 150.0, 75.0, 259.0, 20.0 ],
					"numinlets" : 1
				}

			}
, 			{
				"box" : 				{
					"maxclass" : "newobj",
					"text" : "route /Slicer/press",
					"fontname" : "Arial",
					"numoutlets" : 2,
					"id" : "obj-2",
					"outlettype" : [ "", "" ],
					"fontsize" : 12.0,
					"patching_rect" : [ 150.0, 45.0, 107.0, 20.0 ],
					"numinlets" : 1
				}

			}
, 			{
				"box" : 				{
					"maxclass" : "newobj",
					"text" : "udpreceive 8000",
					"fontname" : "Arial",
					"numoutlets" : 1,
					"id" : "obj-1",
					"outlettype" : [ "" ],
					"fontsize" : 12.0,
					"patching_rect" : [ 150.0, 15.0, 99.0, 20.0 ],
					"numinlets" : 1
				}

			}
, 			{
				"box" : 				{
					"maxclass" : "newobj",
					"text" : "gate",
					"fontname" : "Arial",
					"numoutlets" : 1,
					"id" : "obj-43",
					"outlettype" : [ "" ],
					"fontsize" : 12.0,
					"patching_rect" : [ 795.0, 450.0, 34.0, 20.0 ],
					"numinlets" : 2
				}

			}
, 			{
				"box" : 				{
					"maxclass" : "toggle",
					"numoutlets" : 1,
					"id" : "obj-37",
					"outlettype" : [ "int" ],
					"patching_rect" : [ 795.0, 420.0, 20.0, 20.0 ],
					"numinlets" : 1
				}

			}
, 			{
				"box" : 				{
					"maxclass" : "newobj",
					"text" : "trigger b l",
					"fontname" : "Arial",
					"numoutlets" : 2,
					"id" : "obj-11",
					"outlettype" : [ "bang", "" ],
					"fontsize" : 12.0,
					"patching_rect" : [ 795.0, 480.0, 64.0, 20.0 ],
					"numinlets" : 1
				}

			}
 ],
		"lines" : [ 			{
				"patchline" : 				{
					"source" : [ "obj-2", 0 ],
					"destination" : [ "obj-4", 0 ],
					"hidden" : 0,
					"midpoints" : [ 159.5, 66.0, 159.5, 66.0 ]
				}

			}
, 			{
				"patchline" : 				{
					"source" : [ "obj-4", 2 ],
					"destination" : [ "obj-6", 0 ],
					"hidden" : 0,
					"midpoints" : [ 399.5, 135.0, 264.5, 135.0 ]
				}

			}
, 			{
				"patchline" : 				{
					"source" : [ "obj-4", 1 ],
					"destination" : [ "obj-6", 1 ],
					"hidden" : 0,
					"midpoints" : [ 279.5, 96.0, 279.5, 96.0 ]
				}

			}
, 			{
				"patchline" : 				{
					"source" : [ "obj-1", 0 ],
					"destination" : [ "obj-2", 0 ],
					"hidden" : 0,
					"midpoints" : [ 159.5, 36.0, 159.5, 36.0 ]
				}

			}
, 			{
				"patchline" : 				{
					"source" : [ "obj-4", 0 ],
					"destination" : [ "obj-5", 1 ],
					"hidden" : 0,
					"midpoints" : [ 159.5, 96.0, 159.5, 96.0 ]
				}

			}
, 			{
				"patchline" : 				{
					"source" : [ "obj-4", 2 ],
					"destination" : [ "obj-5", 0 ],
					"hidden" : 0,
					"midpoints" : [ 399.5, 135.0, 144.5, 135.0 ]
				}

			}
, 			{
				"patchline" : 				{
					"source" : [ "obj-6", 0 ],
					"destination" : [ "obj-23", 0 ],
					"hidden" : 0,
					"midpoints" : [ 264.5, 171.0, 264.5, 171.0 ]
				}

			}
, 			{
				"patchline" : 				{
					"source" : [ "obj-10", 0 ],
					"destination" : [ "obj-65", 1 ],
					"hidden" : 0,
					"midpoints" : [  ]
				}

			}
, 			{
				"patchline" : 				{
					"source" : [ "obj-23", 0 ],
					"destination" : [ "obj-65", 0 ],
					"hidden" : 0,
					"midpoints" : [  ]
				}

			}
, 			{
				"patchline" : 				{
					"source" : [ "obj-67", 0 ],
					"destination" : [ "obj-66", 1 ],
					"hidden" : 0,
					"midpoints" : [  ]
				}

			}
, 			{
				"patchline" : 				{
					"source" : [ "obj-69", 0 ],
					"destination" : [ "obj-68", 1 ],
					"hidden" : 0,
					"midpoints" : [  ]
				}

			}
, 			{
				"patchline" : 				{
					"source" : [ "obj-71", 0 ],
					"destination" : [ "obj-70", 1 ],
					"hidden" : 0,
					"midpoints" : [  ]
				}

			}
, 			{
				"patchline" : 				{
					"source" : [ "obj-73", 0 ],
					"destination" : [ "obj-72", 1 ],
					"hidden" : 0,
					"midpoints" : [  ]
				}

			}
, 			{
				"patchline" : 				{
					"source" : [ "obj-75", 0 ],
					"destination" : [ "obj-74", 1 ],
					"hidden" : 0,
					"midpoints" : [  ]
				}

			}
, 			{
				"patchline" : 				{
					"source" : [ "obj-77", 0 ],
					"destination" : [ "obj-76", 1 ],
					"hidden" : 0,
					"midpoints" : [  ]
				}

			}
, 			{
				"patchline" : 				{
					"source" : [ "obj-23", 1 ],
					"destination" : [ "obj-66", 0 ],
					"hidden" : 0,
					"midpoints" : [  ]
				}

			}
, 			{
				"patchline" : 				{
					"source" : [ "obj-23", 2 ],
					"destination" : [ "obj-68", 0 ],
					"hidden" : 0,
					"midpoints" : [  ]
				}

			}
, 			{
				"patchline" : 				{
					"source" : [ "obj-23", 3 ],
					"destination" : [ "obj-70", 0 ],
					"hidden" : 0,
					"midpoints" : [  ]
				}

			}
, 			{
				"patchline" : 				{
					"source" : [ "obj-23", 4 ],
					"destination" : [ "obj-72", 0 ],
					"hidden" : 0,
					"midpoints" : [  ]
				}

			}
, 			{
				"patchline" : 				{
					"source" : [ "obj-23", 5 ],
					"destination" : [ "obj-74", 0 ],
					"hidden" : 0,
					"midpoints" : [  ]
				}

			}
, 			{
				"patchline" : 				{
					"source" : [ "obj-23", 6 ],
					"destination" : [ "obj-76", 0 ],
					"hidden" : 0,
					"midpoints" : [  ]
				}

			}
, 			{
				"patchline" : 				{
					"source" : [ "obj-5", 0 ],
					"destination" : [ "obj-10", 0 ],
					"hidden" : 0,
					"midpoints" : [ 144.5, 285.0, 294.5, 285.0 ]
				}

			}
, 			{
				"patchline" : 				{
					"source" : [ "obj-5", 0 ],
					"destination" : [ "obj-67", 0 ],
					"hidden" : 0,
					"midpoints" : [ 144.5, 285.0, 369.5, 285.0 ]
				}

			}
, 			{
				"patchline" : 				{
					"source" : [ "obj-5", 0 ],
					"destination" : [ "obj-69", 0 ],
					"hidden" : 0,
					"midpoints" : [ 144.5, 285.0, 444.5, 285.0 ]
				}

			}
, 			{
				"patchline" : 				{
					"source" : [ "obj-5", 0 ],
					"destination" : [ "obj-71", 0 ],
					"hidden" : 0,
					"midpoints" : [ 144.5, 285.0, 519.5, 285.0 ]
				}

			}
, 			{
				"patchline" : 				{
					"source" : [ "obj-5", 0 ],
					"destination" : [ "obj-73", 0 ],
					"hidden" : 0,
					"midpoints" : [ 144.5, 285.0, 594.5, 285.0 ]
				}

			}
, 			{
				"patchline" : 				{
					"source" : [ "obj-5", 0 ],
					"destination" : [ "obj-75", 0 ],
					"hidden" : 0,
					"midpoints" : [ 144.5, 285.0, 669.5, 285.0 ]
				}

			}
, 			{
				"patchline" : 				{
					"source" : [ "obj-5", 0 ],
					"destination" : [ "obj-77", 0 ],
					"hidden" : 0,
					"midpoints" : [ 144.5, 285.0, 744.5, 285.0 ]
				}

			}
, 			{
				"patchline" : 				{
					"source" : [ "obj-76", 0 ],
					"destination" : [ "obj-85", 0 ],
					"hidden" : 0,
					"midpoints" : [  ]
				}

			}
, 			{
				"patchline" : 				{
					"source" : [ "obj-74", 0 ],
					"destination" : [ "obj-84", 0 ],
					"hidden" : 0,
					"midpoints" : [  ]
				}

			}
, 			{
				"patchline" : 				{
					"source" : [ "obj-72", 0 ],
					"destination" : [ "obj-83", 0 ],
					"hidden" : 0,
					"midpoints" : [  ]
				}

			}
, 			{
				"patchline" : 				{
					"source" : [ "obj-70", 0 ],
					"destination" : [ "obj-82", 0 ],
					"hidden" : 0,
					"midpoints" : [  ]
				}

			}
, 			{
				"patchline" : 				{
					"source" : [ "obj-68", 0 ],
					"destination" : [ "obj-81", 0 ],
					"hidden" : 0,
					"midpoints" : [  ]
				}

			}
, 			{
				"patchline" : 				{
					"source" : [ "obj-66", 0 ],
					"destination" : [ "obj-80", 0 ],
					"hidden" : 0,
					"midpoints" : [  ]
				}

			}
, 			{
				"patchline" : 				{
					"source" : [ "obj-65", 0 ],
					"destination" : [ "obj-16", 0 ],
					"hidden" : 0,
					"midpoints" : [  ]
				}

			}
, 			{
				"patchline" : 				{
					"source" : [ "obj-16", 0 ],
					"destination" : [ "obj-14", 0 ],
					"hidden" : 0,
					"midpoints" : [ 264.5, 750.0, 819.5, 750.0 ]
				}

			}
, 			{
				"patchline" : 				{
					"source" : [ "obj-80", 0 ],
					"destination" : [ "obj-14", 0 ],
					"hidden" : 0,
					"midpoints" : [ 339.5, 750.0, 819.5, 750.0 ]
				}

			}
, 			{
				"patchline" : 				{
					"source" : [ "obj-81", 0 ],
					"destination" : [ "obj-14", 0 ],
					"hidden" : 0,
					"midpoints" : [ 414.5, 750.0, 819.5, 750.0 ]
				}

			}
, 			{
				"patchline" : 				{
					"source" : [ "obj-82", 0 ],
					"destination" : [ "obj-14", 0 ],
					"hidden" : 0,
					"midpoints" : [ 489.5, 750.0, 819.5, 750.0 ]
				}

			}
, 			{
				"patchline" : 				{
					"source" : [ "obj-83", 0 ],
					"destination" : [ "obj-14", 0 ],
					"hidden" : 0,
					"midpoints" : [ 564.5, 750.0, 819.5, 750.0 ]
				}

			}
, 			{
				"patchline" : 				{
					"source" : [ "obj-84", 0 ],
					"destination" : [ "obj-14", 0 ],
					"hidden" : 0,
					"midpoints" : [ 639.5, 750.0, 819.5, 750.0 ]
				}

			}
, 			{
				"patchline" : 				{
					"source" : [ "obj-85", 0 ],
					"destination" : [ "obj-14", 0 ],
					"hidden" : 0,
					"midpoints" : [ 714.5, 750.0, 819.5, 750.0 ]
				}

			}
, 			{
				"patchline" : 				{
					"source" : [ "obj-11", 0 ],
					"destination" : [ "obj-37", 0 ],
					"hidden" : 0,
					"midpoints" : [ 804.5, 501.0, 780.0, 501.0, 780.0, 414.0, 804.5, 414.0 ]
				}

			}
, 			{
				"patchline" : 				{
					"source" : [ "obj-43", 0 ],
					"destination" : [ "obj-11", 0 ],
					"hidden" : 0,
					"midpoints" : [ 804.5, 471.0, 804.5, 471.0 ]
				}

			}
, 			{
				"patchline" : 				{
					"source" : [ "obj-37", 0 ],
					"destination" : [ "obj-43", 0 ],
					"hidden" : 0,
					"midpoints" : [ 804.5, 441.0, 804.5, 441.0 ]
				}

			}
, 			{
				"patchline" : 				{
					"source" : [ "obj-23", 7 ],
					"destination" : [ "obj-37", 0 ],
					"hidden" : 0,
					"midpoints" : [  ]
				}

			}
, 			{
				"patchline" : 				{
					"source" : [ "obj-5", 0 ],
					"destination" : [ "obj-43", 1 ],
					"hidden" : 0,
					"midpoints" : [ 144.5, 405.0, 825.0, 405.0, 825.0, 444.0, 819.5, 444.0 ]
				}

			}
, 			{
				"patchline" : 				{
					"source" : [ "obj-11", 1 ],
					"destination" : [ "obj-95", 0 ],
					"hidden" : 0,
					"midpoints" : [  ]
				}

			}
, 			{
				"patchline" : 				{
					"source" : [ "obj-95", 0 ],
					"destination" : [ "obj-102", 0 ],
					"hidden" : 0,
					"midpoints" : [  ]
				}

			}
, 			{
				"patchline" : 				{
					"source" : [ "obj-95", 1 ],
					"destination" : [ "obj-101", 0 ],
					"hidden" : 0,
					"midpoints" : [  ]
				}

			}
, 			{
				"patchline" : 				{
					"source" : [ "obj-95", 2 ],
					"destination" : [ "obj-100", 0 ],
					"hidden" : 0,
					"midpoints" : [  ]
				}

			}
, 			{
				"patchline" : 				{
					"source" : [ "obj-95", 3 ],
					"destination" : [ "obj-99", 0 ],
					"hidden" : 0,
					"midpoints" : [  ]
				}

			}
, 			{
				"patchline" : 				{
					"source" : [ "obj-95", 4 ],
					"destination" : [ "obj-98", 0 ],
					"hidden" : 0,
					"midpoints" : [  ]
				}

			}
, 			{
				"patchline" : 				{
					"source" : [ "obj-95", 5 ],
					"destination" : [ "obj-97", 0 ],
					"hidden" : 0,
					"midpoints" : [  ]
				}

			}
, 			{
				"patchline" : 				{
					"source" : [ "obj-95", 6 ],
					"destination" : [ "obj-96", 0 ],
					"hidden" : 0,
					"midpoints" : [  ]
				}

			}
, 			{
				"patchline" : 				{
					"source" : [ "obj-102", 0 ],
					"destination" : [ "obj-14", 0 ],
					"hidden" : 0,
					"midpoints" : [ 849.5, 750.0, 819.5, 750.0 ]
				}

			}
, 			{
				"patchline" : 				{
					"source" : [ "obj-101", 0 ],
					"destination" : [ "obj-14", 0 ],
					"hidden" : 0,
					"midpoints" : [ 864.5, 708.0, 819.5, 708.0 ]
				}

			}
, 			{
				"patchline" : 				{
					"source" : [ "obj-100", 0 ],
					"destination" : [ "obj-14", 0 ],
					"hidden" : 0,
					"midpoints" : [ 879.5, 678.0, 819.5, 678.0 ]
				}

			}
, 			{
				"patchline" : 				{
					"source" : [ "obj-99", 0 ],
					"destination" : [ "obj-14", 0 ],
					"hidden" : 0,
					"midpoints" : [ 894.5, 648.0, 819.5, 648.0 ]
				}

			}
, 			{
				"patchline" : 				{
					"source" : [ "obj-98", 0 ],
					"destination" : [ "obj-14", 0 ],
					"hidden" : 0,
					"midpoints" : [ 909.5, 618.0, 819.5, 618.0 ]
				}

			}
, 			{
				"patchline" : 				{
					"source" : [ "obj-97", 0 ],
					"destination" : [ "obj-14", 0 ],
					"hidden" : 0,
					"midpoints" : [ 924.5, 588.0, 819.5, 588.0 ]
				}

			}
, 			{
				"patchline" : 				{
					"source" : [ "obj-96", 0 ],
					"destination" : [ "obj-14", 0 ],
					"hidden" : 0,
					"midpoints" : [ 939.5, 558.0, 819.5, 558.0 ]
				}

			}
, 			{
				"patchline" : 				{
					"source" : [ "obj-95", 7 ],
					"destination" : [ "obj-96", 0 ],
					"hidden" : 0,
					"midpoints" : [ 954.5, 531.0, 942.0, 531.0, 942.0, 537.0, 939.5, 537.0 ]
				}

			}
, 			{
				"patchline" : 				{
					"source" : [ "obj-95", 7 ],
					"destination" : [ "obj-97", 0 ],
					"hidden" : 0,
					"midpoints" : [ 954.5, 531.0, 927.0, 531.0, 927.0, 567.0, 924.5, 567.0 ]
				}

			}
, 			{
				"patchline" : 				{
					"source" : [ "obj-95", 7 ],
					"destination" : [ "obj-98", 0 ],
					"hidden" : 0,
					"midpoints" : [ 954.5, 531.0, 915.0, 531.0, 915.0, 555.0, 900.0, 555.0, 900.0, 597.0, 909.5, 597.0 ]
				}

			}
, 			{
				"patchline" : 				{
					"source" : [ "obj-95", 7 ],
					"destination" : [ "obj-99", 0 ],
					"hidden" : 0,
					"midpoints" : [ 954.5, 531.0, 915.0, 531.0, 915.0, 555.0, 894.5, 555.0 ]
				}

			}
, 			{
				"patchline" : 				{
					"source" : [ "obj-95", 7 ],
					"destination" : [ "obj-100", 0 ],
					"hidden" : 0,
					"midpoints" : [ 954.5, 531.0, 915.0, 531.0, 915.0, 555.0, 879.5, 555.0 ]
				}

			}
, 			{
				"patchline" : 				{
					"source" : [ "obj-95", 7 ],
					"destination" : [ "obj-101", 0 ],
					"hidden" : 0,
					"midpoints" : [ 954.5, 531.0, 915.0, 531.0, 915.0, 555.0, 864.5, 555.0 ]
				}

			}
, 			{
				"patchline" : 				{
					"source" : [ "obj-95", 7 ],
					"destination" : [ "obj-102", 0 ],
					"hidden" : 0,
					"midpoints" : [ 954.5, 531.0, 915.0, 531.0, 915.0, 555.0, 849.5, 555.0 ]
				}

			}
, 			{
				"patchline" : 				{
					"source" : [ "obj-105", 0 ],
					"destination" : [ "obj-10", 1 ],
					"hidden" : 0,
					"midpoints" : [  ]
				}

			}
, 			{
				"patchline" : 				{
					"source" : [ "obj-106", 0 ],
					"destination" : [ "obj-67", 1 ],
					"hidden" : 0,
					"midpoints" : [  ]
				}

			}
, 			{
				"patchline" : 				{
					"source" : [ "obj-108", 0 ],
					"destination" : [ "obj-69", 1 ],
					"hidden" : 0,
					"midpoints" : [  ]
				}

			}
, 			{
				"patchline" : 				{
					"source" : [ "obj-107", 0 ],
					"destination" : [ "obj-71", 1 ],
					"hidden" : 0,
					"midpoints" : [  ]
				}

			}
, 			{
				"patchline" : 				{
					"source" : [ "obj-111", 0 ],
					"destination" : [ "obj-73", 1 ],
					"hidden" : 0,
					"midpoints" : [  ]
				}

			}
, 			{
				"patchline" : 				{
					"source" : [ "obj-110", 0 ],
					"destination" : [ "obj-75", 1 ],
					"hidden" : 0,
					"midpoints" : [  ]
				}

			}
, 			{
				"patchline" : 				{
					"source" : [ "obj-109", 0 ],
					"destination" : [ "obj-77", 1 ],
					"hidden" : 0,
					"midpoints" : [  ]
				}

			}
 ]
	}

}
