{
	"patcher" : 	{
		"fileversion" : 1,
		"rect" : [ 0.0, 42.0, 1304.0, 700.0 ],
		"bglocked" : 0,
		"defrect" : [ 0.0, 42.0, 1304.0, 700.0 ],
		"openrect" : [ 0.0, 0.0, 0.0, 0.0 ],
		"openinpresentation" : 1,
		"default_fontsize" : 12.0,
		"default_fontface" : 0,
		"default_fontname" : "Arial",
		"gridonopen" : 0,
		"gridsize" : [ 15.0, 15.0 ],
		"gridsnaponopen" : 0,
		"toolbarvisible" : 1,
		"boxanimatetime" : 200,
		"imprint" : 0,
		"boxes" : [ 			{
				"box" : 				{
					"maxclass" : "newobj",
					"text" : "togedge",
					"fontname" : "Arial",
					"numoutlets" : 2,
					"id" : "obj-5",
					"outlettype" : [ "bang", "bang" ],
					"fontsize" : 12.0,
					"patching_rect" : [ 1065.0, 255.0, 54.0, 20.0 ],
					"numinlets" : 1
				}

			}
, 			{
				"box" : 				{
					"maxclass" : "ubutton",
					"numoutlets" : 4,
					"id" : "obj-115",
					"outlettype" : [ "bang", "bang", "", "int" ],
					"handoff" : "",
					"presentation_rect" : [ 450.0, 156.0, 60.0, 19.0 ],
					"patching_rect" : [ 870.0, 45.0, 44.0, 19.0 ],
					"presentation" : 1,
					"numinlets" : 1
				}

			}
, 			{
				"box" : 				{
					"maxclass" : "message",
					"text" : "0",
					"fontname" : "Arial",
					"numoutlets" : 1,
					"id" : "obj-116",
					"outlettype" : [ "" ],
					"fontsize" : 12.0,
					"patching_rect" : [ 885.0, 180.0, 32.5, 18.0 ],
					"numinlets" : 2
				}

			}
, 			{
				"box" : 				{
					"maxclass" : "message",
					"text" : "Mute",
					"fontname" : "Arial",
					"numoutlets" : 1,
					"id" : "obj-117",
					"outlettype" : [ "" ],
					"bgcolor" : [ 0.0, 0.0, 0.0, 1.0 ],
					"textcolor" : [ 1.0, 1.0, 1.0, 1.0 ],
					"presentation_rect" : [ 450.0, 156.0, 67.0, 18.0 ],
					"fontsize" : 12.0,
					"patching_rect" : [ 885.0, 150.0, 37.0, 18.0 ],
					"presentation" : 1,
					"numinlets" : 2
				}

			}
, 			{
				"box" : 				{
					"maxclass" : "ubutton",
					"numoutlets" : 4,
					"id" : "obj-112",
					"outlettype" : [ "bang", "bang", "", "int" ],
					"handoff" : "",
					"presentation_rect" : [ 375.0, 156.0, 76.0, 19.0 ],
					"patching_rect" : [ 735.0, 45.0, 44.0, 19.0 ],
					"presentation" : 1,
					"numinlets" : 1
				}

			}
, 			{
				"box" : 				{
					"maxclass" : "message",
					"text" : "0",
					"fontname" : "Arial",
					"numoutlets" : 1,
					"id" : "obj-113",
					"outlettype" : [ "" ],
					"fontsize" : 12.0,
					"patching_rect" : [ 750.0, 180.0, 32.5, 18.0 ],
					"numinlets" : 2
				}

			}
, 			{
				"box" : 				{
					"maxclass" : "message",
					"text" : "Mute",
					"fontname" : "Arial",
					"numoutlets" : 1,
					"id" : "obj-114",
					"outlettype" : [ "" ],
					"bgcolor" : [ 0.0, 0.0, 0.0, 1.0 ],
					"textcolor" : [ 1.0, 1.0, 1.0, 1.0 ],
					"presentation_rect" : [ 375.0, 156.0, 63.0, 18.0 ],
					"fontsize" : 12.0,
					"patching_rect" : [ 750.0, 150.0, 37.0, 18.0 ],
					"presentation" : 1,
					"numinlets" : 2
				}

			}
, 			{
				"box" : 				{
					"maxclass" : "ubutton",
					"numoutlets" : 4,
					"id" : "obj-109",
					"outlettype" : [ "bang", "bang", "", "int" ],
					"handoff" : "",
					"presentation_rect" : [ 300.0, 156.0, 71.0, 19.0 ],
					"patching_rect" : [ 600.0, 45.0, 44.0, 19.0 ],
					"presentation" : 1,
					"numinlets" : 1
				}

			}
, 			{
				"box" : 				{
					"maxclass" : "message",
					"text" : "0",
					"fontname" : "Arial",
					"numoutlets" : 1,
					"id" : "obj-110",
					"outlettype" : [ "" ],
					"fontsize" : 12.0,
					"patching_rect" : [ 615.0, 180.0, 32.5, 18.0 ],
					"numinlets" : 2
				}

			}
, 			{
				"box" : 				{
					"maxclass" : "message",
					"text" : "Mute",
					"fontname" : "Arial",
					"numoutlets" : 1,
					"id" : "obj-111",
					"outlettype" : [ "" ],
					"bgcolor" : [ 0.0, 0.0, 0.0, 1.0 ],
					"textcolor" : [ 1.0, 1.0, 1.0, 1.0 ],
					"presentation_rect" : [ 300.0, 156.0, 63.0, 18.0 ],
					"fontsize" : 12.0,
					"patching_rect" : [ 615.0, 150.0, 37.0, 18.0 ],
					"presentation" : 1,
					"numinlets" : 2
				}

			}
, 			{
				"box" : 				{
					"maxclass" : "ubutton",
					"numoutlets" : 4,
					"id" : "obj-106",
					"outlettype" : [ "bang", "bang", "", "int" ],
					"handoff" : "",
					"presentation_rect" : [ 225.0, 156.0, 71.0, 19.0 ],
					"patching_rect" : [ 465.0, 45.0, 44.0, 19.0 ],
					"presentation" : 1,
					"numinlets" : 1
				}

			}
, 			{
				"box" : 				{
					"maxclass" : "message",
					"text" : "0",
					"fontname" : "Arial",
					"numoutlets" : 1,
					"id" : "obj-107",
					"outlettype" : [ "" ],
					"fontsize" : 12.0,
					"patching_rect" : [ 480.0, 180.0, 32.5, 18.0 ],
					"numinlets" : 2
				}

			}
, 			{
				"box" : 				{
					"maxclass" : "message",
					"text" : "Mute",
					"fontname" : "Arial",
					"numoutlets" : 1,
					"id" : "obj-108",
					"outlettype" : [ "" ],
					"bgcolor" : [ 0.0, 0.0, 0.0, 1.0 ],
					"textcolor" : [ 1.0, 1.0, 1.0, 1.0 ],
					"presentation_rect" : [ 225.0, 156.0, 64.0, 18.0 ],
					"fontsize" : 12.0,
					"patching_rect" : [ 480.0, 150.0, 37.0, 18.0 ],
					"presentation" : 1,
					"numinlets" : 2
				}

			}
, 			{
				"box" : 				{
					"maxclass" : "ubutton",
					"numoutlets" : 4,
					"id" : "obj-103",
					"outlettype" : [ "bang", "bang", "", "int" ],
					"handoff" : "",
					"presentation_rect" : [ 150.0, 156.0, 71.0, 19.0 ],
					"patching_rect" : [ 330.0, 45.0, 44.0, 19.0 ],
					"presentation" : 1,
					"numinlets" : 1
				}

			}
, 			{
				"box" : 				{
					"maxclass" : "message",
					"text" : "0",
					"fontname" : "Arial",
					"numoutlets" : 1,
					"id" : "obj-104",
					"outlettype" : [ "" ],
					"fontsize" : 12.0,
					"patching_rect" : [ 345.0, 180.0, 32.5, 18.0 ],
					"numinlets" : 2
				}

			}
, 			{
				"box" : 				{
					"maxclass" : "message",
					"text" : "Mute",
					"fontname" : "Arial",
					"numoutlets" : 1,
					"id" : "obj-105",
					"outlettype" : [ "" ],
					"bgcolor" : [ 0.0, 0.0, 0.0, 1.0 ],
					"textcolor" : [ 1.0, 1.0, 1.0, 1.0 ],
					"presentation_rect" : [ 150.0, 156.0, 64.0, 18.0 ],
					"fontsize" : 12.0,
					"patching_rect" : [ 345.0, 150.0, 37.0, 18.0 ],
					"presentation" : 1,
					"numinlets" : 2
				}

			}
, 			{
				"box" : 				{
					"maxclass" : "ubutton",
					"numoutlets" : 4,
					"id" : "obj-100",
					"outlettype" : [ "bang", "bang", "", "int" ],
					"handoff" : "",
					"presentation_rect" : [ 75.0, 156.0, 71.0, 19.0 ],
					"patching_rect" : [ 195.0, 45.0, 44.0, 19.0 ],
					"presentation" : 1,
					"numinlets" : 1
				}

			}
, 			{
				"box" : 				{
					"maxclass" : "message",
					"text" : "0",
					"fontname" : "Arial",
					"numoutlets" : 1,
					"id" : "obj-101",
					"outlettype" : [ "" ],
					"fontsize" : 12.0,
					"patching_rect" : [ 210.0, 180.0, 32.5, 18.0 ],
					"numinlets" : 2
				}

			}
, 			{
				"box" : 				{
					"maxclass" : "message",
					"text" : "Mute",
					"fontname" : "Arial",
					"numoutlets" : 1,
					"id" : "obj-102",
					"outlettype" : [ "" ],
					"bgcolor" : [ 0.0, 0.0, 0.0, 1.0 ],
					"textcolor" : [ 1.0, 1.0, 1.0, 1.0 ],
					"presentation_rect" : [ 75.0, 156.0, 61.0, 18.0 ],
					"fontsize" : 12.0,
					"patching_rect" : [ 210.0, 150.0, 37.0, 18.0 ],
					"presentation" : 1,
					"numinlets" : 2
				}

			}
, 			{
				"box" : 				{
					"maxclass" : "ubutton",
					"numoutlets" : 4,
					"id" : "obj-99",
					"outlettype" : [ "bang", "bang", "", "int" ],
					"handoff" : "",
					"presentation_rect" : [ 0.0, 156.0, 71.0, 19.0 ],
					"patching_rect" : [ 60.0, 45.0, 44.0, 19.0 ],
					"presentation" : 1,
					"numinlets" : 1
				}

			}
, 			{
				"box" : 				{
					"maxclass" : "message",
					"text" : "0",
					"fontname" : "Arial",
					"numoutlets" : 1,
					"id" : "obj-98",
					"outlettype" : [ "" ],
					"fontsize" : 12.0,
					"patching_rect" : [ 75.0, 135.0, 32.5, 18.0 ],
					"numinlets" : 2
				}

			}
, 			{
				"box" : 				{
					"maxclass" : "message",
					"text" : "Mute",
					"fontname" : "Arial",
					"numoutlets" : 1,
					"id" : "obj-95",
					"outlettype" : [ "" ],
					"bgcolor" : [ 0.0, 0.0, 0.0, 1.0 ],
					"textcolor" : [ 1.0, 1.0, 1.0, 1.0 ],
					"presentation_rect" : [ 0.0, 156.0, 65.0, 18.0 ],
					"fontsize" : 12.0,
					"patching_rect" : [ 75.0, 105.0, 37.0, 18.0 ],
					"presentation" : 1,
					"numinlets" : 2
				}

			}
, 			{
				"box" : 				{
					"maxclass" : "toggle",
					"numoutlets" : 1,
					"id" : "obj-90",
					"outlettype" : [ "int" ],
					"presentation_rect" : [ 609.0, 155.0, 20.0, 20.0 ],
					"patching_rect" : [ 195.0, 570.0, 20.0, 20.0 ],
					"presentation" : 1,
					"numinlets" : 1
				}

			}
, 			{
				"box" : 				{
					"maxclass" : "ubutton",
					"numoutlets" : 4,
					"id" : "obj-89",
					"outlettype" : [ "bang", "bang", "", "int" ],
					"handoff" : "",
					"presentation_rect" : [ 540.0, 156.0, 66.0, 20.0 ],
					"patching_rect" : [ 180.0, 465.0, 97.0, 21.0 ],
					"presentation" : 1,
					"numinlets" : 1
				}

			}
, 			{
				"box" : 				{
					"maxclass" : "meter~",
					"numoutlets" : 1,
					"id" : "obj-88",
					"outlettype" : [ "float" ],
					"presentation_rect" : [ 541.0, 178.0, 63.0, 13.0 ],
					"patching_rect" : [ 30.0, 615.0, 80.0, 13.0 ],
					"presentation" : 1,
					"numinlets" : 1
				}

			}
, 			{
				"box" : 				{
					"maxclass" : "comment",
					"text" : "Channel 7\n",
					"fontname" : "Arial",
					"numoutlets" : 0,
					"id" : "obj-83",
					"presentation_rect" : [ 450.0, 0.0, 67.0, 20.0 ],
					"fontsize" : 12.0,
					"patching_rect" : [ 855.0, 15.0, 67.0, 20.0 ],
					"presentation" : 1,
					"numinlets" : 1
				}

			}
, 			{
				"box" : 				{
					"maxclass" : "comment",
					"text" : "Channel 6\n",
					"fontname" : "Arial",
					"numoutlets" : 0,
					"id" : "obj-82",
					"presentation_rect" : [ 375.0, 0.0, 67.0, 20.0 ],
					"fontsize" : 12.0,
					"patching_rect" : [ 720.0, 15.0, 67.0, 20.0 ],
					"presentation" : 1,
					"numinlets" : 1
				}

			}
, 			{
				"box" : 				{
					"maxclass" : "comment",
					"text" : "Channel 5\n",
					"fontname" : "Arial",
					"numoutlets" : 0,
					"id" : "obj-81",
					"presentation_rect" : [ 300.0, 0.0, 67.0, 20.0 ],
					"fontsize" : 12.0,
					"patching_rect" : [ 585.0, 15.0, 67.0, 20.0 ],
					"presentation" : 1,
					"numinlets" : 1
				}

			}
, 			{
				"box" : 				{
					"maxclass" : "comment",
					"text" : "Channel 4\n",
					"fontname" : "Arial",
					"numoutlets" : 0,
					"id" : "obj-80",
					"presentation_rect" : [ 225.0, 0.0, 67.0, 20.0 ],
					"fontsize" : 12.0,
					"patching_rect" : [ 450.0, 15.0, 67.0, 20.0 ],
					"presentation" : 1,
					"numinlets" : 1
				}

			}
, 			{
				"box" : 				{
					"maxclass" : "comment",
					"text" : "Channel 3\n",
					"fontname" : "Arial",
					"numoutlets" : 0,
					"id" : "obj-79",
					"presentation_rect" : [ 150.0, 0.0, 67.0, 20.0 ],
					"fontsize" : 12.0,
					"patching_rect" : [ 315.0, 15.0, 67.0, 20.0 ],
					"presentation" : 1,
					"numinlets" : 1
				}

			}
, 			{
				"box" : 				{
					"maxclass" : "comment",
					"text" : "Channel 2\n",
					"fontname" : "Arial",
					"numoutlets" : 0,
					"id" : "obj-78",
					"presentation_rect" : [ 75.0, 0.0, 67.0, 20.0 ],
					"fontsize" : 12.0,
					"patching_rect" : [ 180.0, 15.0, 67.0, 20.0 ],
					"presentation" : 1,
					"numinlets" : 1
				}

			}
, 			{
				"box" : 				{
					"maxclass" : "comment",
					"text" : "Channel 1\n",
					"fontname" : "Arial",
					"numoutlets" : 0,
					"id" : "obj-77",
					"presentation_rect" : [ 0.0, 0.0, 67.0, 20.0 ],
					"fontsize" : 12.0,
					"patching_rect" : [ 45.0, 15.0, 67.0, 20.0 ],
					"presentation" : 1,
					"numinlets" : 1
				}

			}
, 			{
				"box" : 				{
					"maxclass" : "meter~",
					"numoutlets" : 1,
					"id" : "obj-75",
					"outlettype" : [ "float" ],
					"presentation_rect" : [ 451.0, 178.0, 63.0, 13.0 ],
					"patching_rect" : [ 885.0, 375.0, 80.0, 13.0 ],
					"presentation" : 1,
					"numinlets" : 1
				}

			}
, 			{
				"box" : 				{
					"maxclass" : "meter~",
					"numoutlets" : 1,
					"id" : "obj-74",
					"outlettype" : [ "float" ],
					"presentation_rect" : [ 376.0, 178.0, 63.0, 13.0 ],
					"patching_rect" : [ 750.0, 375.0, 80.0, 13.0 ],
					"presentation" : 1,
					"numinlets" : 1
				}

			}
, 			{
				"box" : 				{
					"maxclass" : "meter~",
					"numoutlets" : 1,
					"id" : "obj-73",
					"outlettype" : [ "float" ],
					"presentation_rect" : [ 301.0, 178.0, 63.0, 13.0 ],
					"patching_rect" : [ 615.0, 375.0, 80.0, 13.0 ],
					"presentation" : 1,
					"numinlets" : 1
				}

			}
, 			{
				"box" : 				{
					"maxclass" : "meter~",
					"numoutlets" : 1,
					"id" : "obj-72",
					"outlettype" : [ "float" ],
					"presentation_rect" : [ 226.0, 178.0, 63.0, 13.0 ],
					"patching_rect" : [ 480.0, 375.0, 80.0, 13.0 ],
					"presentation" : 1,
					"numinlets" : 1
				}

			}
, 			{
				"box" : 				{
					"maxclass" : "meter~",
					"numoutlets" : 1,
					"id" : "obj-71",
					"outlettype" : [ "float" ],
					"presentation_rect" : [ 151.0, 178.0, 63.0, 13.0 ],
					"patching_rect" : [ 345.0, 375.0, 80.0, 13.0 ],
					"presentation" : 1,
					"numinlets" : 1
				}

			}
, 			{
				"box" : 				{
					"maxclass" : "meter~",
					"numoutlets" : 1,
					"id" : "obj-70",
					"outlettype" : [ "float" ],
					"presentation_rect" : [ 76.0, 178.0, 63.0, 13.0 ],
					"patching_rect" : [ 210.0, 375.0, 80.0, 13.0 ],
					"presentation" : 1,
					"numinlets" : 1
				}

			}
, 			{
				"box" : 				{
					"maxclass" : "newobj",
					"text" : "dac~",
					"fontname" : "Arial",
					"numoutlets" : 0,
					"id" : "obj-69",
					"bgcolor" : [ 0.0, 0.0, 0.0, 1.0 ],
					"textcolor" : [ 1.0, 1.0, 1.0, 1.0 ],
					"presentation_rect" : [ 540.0, 156.0, 63.0, 20.0 ],
					"fontsize" : 12.0,
					"patching_rect" : [ 135.0, 615.0, 50.0, 20.0 ],
					"presentation" : 1,
					"numinlets" : 2
				}

			}
, 			{
				"box" : 				{
					"maxclass" : "gain~",
					"numoutlets" : 2,
					"id" : "obj-64",
					"outlettype" : [ "signal", "int" ],
					"bgcolor" : [ 0.364706, 0.709804, 0.768627, 1.0 ],
					"presentation_rect" : [ 540.0, 15.0, 59.0, 141.0 ],
					"patching_rect" : [ 45.0, 435.0, 59.0, 141.0 ],
					"presentation" : 1,
					"numinlets" : 2
				}

			}
, 			{
				"box" : 				{
					"maxclass" : "gain~",
					"numoutlets" : 2,
					"id" : "obj-60",
					"outlettype" : [ "signal", "int" ],
					"bgcolor" : [ 0.364706, 0.709804, 0.768627, 1.0 ],
					"presentation_rect" : [ 450.0, 15.0, 59.0, 141.0 ],
					"patching_rect" : [ 855.0, 210.0, 59.0, 141.0 ],
					"presentation" : 1,
					"numinlets" : 2
				}

			}
, 			{
				"box" : 				{
					"maxclass" : "gain~",
					"numoutlets" : 2,
					"id" : "obj-54",
					"outlettype" : [ "signal", "int" ],
					"bgcolor" : [ 0.364706, 0.709804, 0.768627, 1.0 ],
					"presentation_rect" : [ 375.0, 15.0, 59.0, 141.0 ],
					"patching_rect" : [ 720.0, 210.0, 59.0, 141.0 ],
					"presentation" : 1,
					"numinlets" : 2
				}

			}
, 			{
				"box" : 				{
					"maxclass" : "gain~",
					"numoutlets" : 2,
					"id" : "obj-56",
					"outlettype" : [ "signal", "int" ],
					"bgcolor" : [ 0.364706, 0.709804, 0.768627, 1.0 ],
					"presentation_rect" : [ 300.0, 15.0, 59.0, 141.0 ],
					"patching_rect" : [ 585.0, 210.0, 59.0, 141.0 ],
					"presentation" : 1,
					"numinlets" : 2
				}

			}
, 			{
				"box" : 				{
					"maxclass" : "gain~",
					"numoutlets" : 2,
					"id" : "obj-50",
					"outlettype" : [ "signal", "int" ],
					"bgcolor" : [ 0.364706, 0.709804, 0.768627, 1.0 ],
					"presentation_rect" : [ 225.0, 15.0, 59.0, 141.0 ],
					"patching_rect" : [ 450.0, 210.0, 59.0, 141.0 ],
					"presentation" : 1,
					"numinlets" : 2
				}

			}
, 			{
				"box" : 				{
					"maxclass" : "gain~",
					"numoutlets" : 2,
					"id" : "obj-52",
					"outlettype" : [ "signal", "int" ],
					"bgcolor" : [ 0.364706, 0.709804, 0.768627, 1.0 ],
					"presentation_rect" : [ 150.0, 15.0, 59.0, 141.0 ],
					"patching_rect" : [ 315.0, 210.0, 59.0, 141.0 ],
					"presentation" : 1,
					"numinlets" : 2
				}

			}
, 			{
				"box" : 				{
					"maxclass" : "gain~",
					"numoutlets" : 2,
					"id" : "obj-48",
					"outlettype" : [ "signal", "int" ],
					"bgcolor" : [ 0.364706, 0.709804, 0.768627, 1.0 ],
					"presentation_rect" : [ 75.0, 15.0, 59.0, 141.0 ],
					"patching_rect" : [ 180.0, 210.0, 59.0, 141.0 ],
					"presentation" : 1,
					"numinlets" : 2
				}

			}
, 			{
				"box" : 				{
					"maxclass" : "gain~",
					"numoutlets" : 2,
					"id" : "obj-45",
					"outlettype" : [ "signal", "int" ],
					"bgcolor" : [ 0.364706, 0.709804, 0.768627, 1.0 ],
					"presentation_rect" : [ 0.0, 15.0, 59.0, 141.0 ],
					"patching_rect" : [ 45.0, 210.0, 59.0, 141.0 ],
					"presentation" : 1,
					"numinlets" : 2
				}

			}
, 			{
				"box" : 				{
					"maxclass" : "meter~",
					"numoutlets" : 1,
					"id" : "obj-17",
					"outlettype" : [ "float" ],
					"presentation_rect" : [ 1.0, 178.0, 63.0, 13.0 ],
					"patching_rect" : [ 75.0, 375.0, 80.0, 13.0 ],
					"presentation" : 1,
					"numinlets" : 1
				}

			}
, 			{
				"box" : 				{
					"maxclass" : "comment",
					"text" : "This Abstraction serves as a visual, mouse-controlled 7 channel mixer. It will take 7 stereo inputs and send them to the dac for audio output.",
					"linecount" : 4,
					"fontname" : "Arial",
					"numoutlets" : 0,
					"id" : "obj-16",
					"fontsize" : 12.0,
					"patching_rect" : [ 1080.0, 45.0, 205.0, 62.0 ],
					"numinlets" : 1
				}

			}
, 			{
				"box" : 				{
					"maxclass" : "inlet",
					"numoutlets" : 1,
					"id" : "obj-14",
					"outlettype" : [ "" ],
					"patching_rect" : [ 855.0, 150.0, 25.0, 25.0 ],
					"numinlets" : 0,
					"comment" : ""
				}

			}
, 			{
				"box" : 				{
					"maxclass" : "inlet",
					"numoutlets" : 1,
					"id" : "obj-10",
					"outlettype" : [ "" ],
					"patching_rect" : [ 720.0, 150.0, 25.0, 25.0 ],
					"numinlets" : 0,
					"comment" : ""
				}

			}
, 			{
				"box" : 				{
					"maxclass" : "inlet",
					"numoutlets" : 1,
					"id" : "obj-12",
					"outlettype" : [ "" ],
					"patching_rect" : [ 585.0, 150.0, 25.0, 25.0 ],
					"numinlets" : 0,
					"comment" : ""
				}

			}
, 			{
				"box" : 				{
					"maxclass" : "inlet",
					"numoutlets" : 1,
					"id" : "obj-6",
					"outlettype" : [ "" ],
					"patching_rect" : [ 450.0, 150.0, 25.0, 25.0 ],
					"numinlets" : 0,
					"comment" : ""
				}

			}
, 			{
				"box" : 				{
					"maxclass" : "inlet",
					"numoutlets" : 1,
					"id" : "obj-8",
					"outlettype" : [ "" ],
					"patching_rect" : [ 315.0, 150.0, 25.0, 25.0 ],
					"numinlets" : 0,
					"comment" : ""
				}

			}
, 			{
				"box" : 				{
					"maxclass" : "inlet",
					"numoutlets" : 1,
					"id" : "obj-4",
					"outlettype" : [ "" ],
					"patching_rect" : [ 180.0, 150.0, 25.0, 25.0 ],
					"numinlets" : 0,
					"comment" : ""
				}

			}
, 			{
				"box" : 				{
					"maxclass" : "inlet",
					"numoutlets" : 1,
					"id" : "obj-1",
					"outlettype" : [ "" ],
					"patching_rect" : [ 45.0, 150.0, 25.0, 25.0 ],
					"numinlets" : 0,
					"comment" : ""
				}

			}
, 			{
				"box" : 				{
					"maxclass" : "panel",
					"numoutlets" : 0,
					"id" : "obj-87",
					"bgcolor" : [ 1.0, 1.0, 1.0, 1.0 ],
					"presentation_rect" : [ 527.0, 4.0, 4.0, 178.0 ],
					"border" : 1,
					"patching_rect" : [ 1080.0, 45.0, 203.0, 64.0 ],
					"presentation" : 1,
					"numinlets" : 1
				}

			}
 ],
		"lines" : [ 			{
				"patchline" : 				{
					"source" : [ "obj-116", 0 ],
					"destination" : [ "obj-60", 0 ],
					"hidden" : 0,
					"midpoints" : [  ]
				}

			}
, 			{
				"patchline" : 				{
					"source" : [ "obj-113", 0 ],
					"destination" : [ "obj-54", 0 ],
					"hidden" : 0,
					"midpoints" : [  ]
				}

			}
, 			{
				"patchline" : 				{
					"source" : [ "obj-110", 0 ],
					"destination" : [ "obj-56", 0 ],
					"hidden" : 0,
					"midpoints" : [  ]
				}

			}
, 			{
				"patchline" : 				{
					"source" : [ "obj-107", 0 ],
					"destination" : [ "obj-50", 0 ],
					"hidden" : 0,
					"midpoints" : [  ]
				}

			}
, 			{
				"patchline" : 				{
					"source" : [ "obj-104", 0 ],
					"destination" : [ "obj-52", 0 ],
					"hidden" : 0,
					"midpoints" : [  ]
				}

			}
, 			{
				"patchline" : 				{
					"source" : [ "obj-101", 0 ],
					"destination" : [ "obj-48", 0 ],
					"hidden" : 0,
					"midpoints" : [  ]
				}

			}
, 			{
				"patchline" : 				{
					"source" : [ "obj-98", 0 ],
					"destination" : [ "obj-45", 0 ],
					"hidden" : 0,
					"midpoints" : [  ]
				}

			}
, 			{
				"patchline" : 				{
					"source" : [ "obj-60", 0 ],
					"destination" : [ "obj-64", 0 ],
					"hidden" : 0,
					"midpoints" : [ 864.5, 420.0, 54.5, 420.0 ]
				}

			}
, 			{
				"patchline" : 				{
					"source" : [ "obj-54", 0 ],
					"destination" : [ "obj-64", 0 ],
					"hidden" : 0,
					"midpoints" : [ 729.5, 420.0, 54.5, 420.0 ]
				}

			}
, 			{
				"patchline" : 				{
					"source" : [ "obj-56", 0 ],
					"destination" : [ "obj-64", 0 ],
					"hidden" : 0,
					"midpoints" : [ 594.5, 420.0, 54.5, 420.0 ]
				}

			}
, 			{
				"patchline" : 				{
					"source" : [ "obj-50", 0 ],
					"destination" : [ "obj-64", 0 ],
					"hidden" : 0,
					"midpoints" : [ 459.5, 420.0, 54.5, 420.0 ]
				}

			}
, 			{
				"patchline" : 				{
					"source" : [ "obj-52", 0 ],
					"destination" : [ "obj-64", 0 ],
					"hidden" : 0,
					"midpoints" : [ 324.5, 420.0, 54.5, 420.0 ]
				}

			}
, 			{
				"patchline" : 				{
					"source" : [ "obj-48", 0 ],
					"destination" : [ "obj-64", 0 ],
					"hidden" : 0,
					"midpoints" : [ 189.5, 420.0, 54.5, 420.0 ]
				}

			}
, 			{
				"patchline" : 				{
					"source" : [ "obj-45", 0 ],
					"destination" : [ "obj-64", 0 ],
					"hidden" : 0,
					"midpoints" : [ 54.5, 351.0, 54.5, 351.0 ]
				}

			}
, 			{
				"patchline" : 				{
					"source" : [ "obj-64", 0 ],
					"destination" : [ "obj-69", 1 ],
					"hidden" : 0,
					"midpoints" : [  ]
				}

			}
, 			{
				"patchline" : 				{
					"source" : [ "obj-64", 0 ],
					"destination" : [ "obj-69", 0 ],
					"hidden" : 0,
					"midpoints" : [  ]
				}

			}
, 			{
				"patchline" : 				{
					"source" : [ "obj-64", 0 ],
					"destination" : [ "obj-88", 0 ],
					"hidden" : 0,
					"midpoints" : [  ]
				}

			}
, 			{
				"patchline" : 				{
					"source" : [ "obj-60", 0 ],
					"destination" : [ "obj-75", 0 ],
					"hidden" : 0,
					"midpoints" : [  ]
				}

			}
, 			{
				"patchline" : 				{
					"source" : [ "obj-14", 0 ],
					"destination" : [ "obj-60", 0 ],
					"hidden" : 0,
					"midpoints" : [  ]
				}

			}
, 			{
				"patchline" : 				{
					"source" : [ "obj-54", 0 ],
					"destination" : [ "obj-74", 0 ],
					"hidden" : 0,
					"midpoints" : [  ]
				}

			}
, 			{
				"patchline" : 				{
					"source" : [ "obj-10", 0 ],
					"destination" : [ "obj-54", 0 ],
					"hidden" : 0,
					"midpoints" : [  ]
				}

			}
, 			{
				"patchline" : 				{
					"source" : [ "obj-56", 0 ],
					"destination" : [ "obj-73", 0 ],
					"hidden" : 0,
					"midpoints" : [  ]
				}

			}
, 			{
				"patchline" : 				{
					"source" : [ "obj-12", 0 ],
					"destination" : [ "obj-56", 0 ],
					"hidden" : 0,
					"midpoints" : [  ]
				}

			}
, 			{
				"patchline" : 				{
					"source" : [ "obj-50", 0 ],
					"destination" : [ "obj-72", 0 ],
					"hidden" : 0,
					"midpoints" : [  ]
				}

			}
, 			{
				"patchline" : 				{
					"source" : [ "obj-6", 0 ],
					"destination" : [ "obj-50", 0 ],
					"hidden" : 0,
					"midpoints" : [  ]
				}

			}
, 			{
				"patchline" : 				{
					"source" : [ "obj-52", 0 ],
					"destination" : [ "obj-71", 0 ],
					"hidden" : 0,
					"midpoints" : [  ]
				}

			}
, 			{
				"patchline" : 				{
					"source" : [ "obj-8", 0 ],
					"destination" : [ "obj-52", 0 ],
					"hidden" : 0,
					"midpoints" : [  ]
				}

			}
, 			{
				"patchline" : 				{
					"source" : [ "obj-48", 0 ],
					"destination" : [ "obj-70", 0 ],
					"hidden" : 0,
					"midpoints" : [  ]
				}

			}
, 			{
				"patchline" : 				{
					"source" : [ "obj-4", 0 ],
					"destination" : [ "obj-48", 0 ],
					"hidden" : 0,
					"midpoints" : [  ]
				}

			}
, 			{
				"patchline" : 				{
					"source" : [ "obj-45", 0 ],
					"destination" : [ "obj-17", 0 ],
					"hidden" : 0,
					"midpoints" : [  ]
				}

			}
, 			{
				"patchline" : 				{
					"source" : [ "obj-1", 0 ],
					"destination" : [ "obj-45", 0 ],
					"hidden" : 0,
					"midpoints" : [  ]
				}

			}
, 			{
				"patchline" : 				{
					"source" : [ "obj-89", 1 ],
					"destination" : [ "obj-90", 0 ],
					"hidden" : 0,
					"midpoints" : [  ]
				}

			}
, 			{
				"patchline" : 				{
					"source" : [ "obj-99", 1 ],
					"destination" : [ "obj-95", 0 ],
					"hidden" : 0,
					"midpoints" : [  ]
				}

			}
, 			{
				"patchline" : 				{
					"source" : [ "obj-95", 0 ],
					"destination" : [ "obj-98", 0 ],
					"hidden" : 0,
					"midpoints" : [  ]
				}

			}
, 			{
				"patchline" : 				{
					"source" : [ "obj-102", 0 ],
					"destination" : [ "obj-101", 0 ],
					"hidden" : 0,
					"midpoints" : [  ]
				}

			}
, 			{
				"patchline" : 				{
					"source" : [ "obj-100", 1 ],
					"destination" : [ "obj-102", 0 ],
					"hidden" : 0,
					"midpoints" : [  ]
				}

			}
, 			{
				"patchline" : 				{
					"source" : [ "obj-103", 1 ],
					"destination" : [ "obj-105", 0 ],
					"hidden" : 0,
					"midpoints" : [  ]
				}

			}
, 			{
				"patchline" : 				{
					"source" : [ "obj-105", 0 ],
					"destination" : [ "obj-104", 0 ],
					"hidden" : 0,
					"midpoints" : [  ]
				}

			}
, 			{
				"patchline" : 				{
					"source" : [ "obj-108", 0 ],
					"destination" : [ "obj-107", 0 ],
					"hidden" : 0,
					"midpoints" : [  ]
				}

			}
, 			{
				"patchline" : 				{
					"source" : [ "obj-106", 1 ],
					"destination" : [ "obj-108", 0 ],
					"hidden" : 0,
					"midpoints" : [  ]
				}

			}
, 			{
				"patchline" : 				{
					"source" : [ "obj-109", 1 ],
					"destination" : [ "obj-111", 0 ],
					"hidden" : 0,
					"midpoints" : [  ]
				}

			}
, 			{
				"patchline" : 				{
					"source" : [ "obj-111", 0 ],
					"destination" : [ "obj-110", 0 ],
					"hidden" : 0,
					"midpoints" : [  ]
				}

			}
, 			{
				"patchline" : 				{
					"source" : [ "obj-114", 0 ],
					"destination" : [ "obj-113", 0 ],
					"hidden" : 0,
					"midpoints" : [  ]
				}

			}
, 			{
				"patchline" : 				{
					"source" : [ "obj-112", 1 ],
					"destination" : [ "obj-114", 0 ],
					"hidden" : 0,
					"midpoints" : [  ]
				}

			}
, 			{
				"patchline" : 				{
					"source" : [ "obj-117", 0 ],
					"destination" : [ "obj-116", 0 ],
					"hidden" : 0,
					"midpoints" : [  ]
				}

			}
, 			{
				"patchline" : 				{
					"source" : [ "obj-115", 1 ],
					"destination" : [ "obj-117", 0 ],
					"hidden" : 0,
					"midpoints" : [  ]
				}

			}
, 			{
				"patchline" : 				{
					"source" : [ "obj-90", 0 ],
					"destination" : [ "obj-69", 0 ],
					"hidden" : 0,
					"midpoints" : [  ]
				}

			}
 ]
	}

}
