{
	"patcher" : 	{
		"fileversion" : 1,
		"rect" : [ 8.0, 50.0, 636.0, 684.0 ],
		"bglocked" : 0,
		"defrect" : [ 8.0, 50.0, 636.0, 684.0 ],
		"openrect" : [ 0.0, 0.0, 0.0, 0.0 ],
		"openinpresentation" : 0,
		"default_fontsize" : 12.0,
		"default_fontface" : 0,
		"default_fontname" : "Arial",
		"gridonopen" : 0,
		"gridsize" : [ 15.0, 15.0 ],
		"gridsnaponopen" : 0,
		"toolbarvisible" : 1,
		"boxanimatetime" : 200,
		"imprint" : 0,
		"boxes" : [ 			{
				"box" : 				{
					"maxclass" : "comment",
					"text" : "All x, y releases.",
					"fontsize" : 12.0,
					"numinlets" : 1,
					"patching_rect" : [ 345.0, 555.0, 150.0, 20.0 ],
					"numoutlets" : 0,
					"fontname" : "Arial",
					"id" : "obj-7"
				}

			}
, 			{
				"box" : 				{
					"maxclass" : "outlet",
					"presentation_rect" : [ 322.0, 555.0, 0.0, 0.0 ],
					"numinlets" : 1,
					"patching_rect" : [ 315.0, 555.0, 25.0, 25.0 ],
					"numoutlets" : 0,
					"id" : "obj-5",
					"comment" : "All x, y releases."
				}

			}
, 			{
				"box" : 				{
					"maxclass" : "comment",
					"text" : "All x, y presses.",
					"fontsize" : 12.0,
					"numinlets" : 1,
					"patching_rect" : [ 225.0, 615.0, 150.0, 20.0 ],
					"numoutlets" : 0,
					"fontname" : "Arial",
					"id" : "obj-4"
				}

			}
, 			{
				"box" : 				{
					"maxclass" : "outlet",
					"presentation_rect" : [ 230.0, 251.0, 0.0, 0.0 ],
					"numinlets" : 1,
					"patching_rect" : [ 195.0, 615.0, 25.0, 25.0 ],
					"numoutlets" : 0,
					"id" : "obj-1",
					"comment" : "All x, y presses."
				}

			}
, 			{
				"box" : 				{
					"maxclass" : "comment",
					"text" : "number of presses counter. manages the gates for the press and release outlets.----------->",
					"linecount" : 4,
					"fontsize" : 12.0,
					"numinlets" : 1,
					"patching_rect" : [ 30.0, 285.0, 150.0, 62.0 ],
					"numoutlets" : 0,
					"fontname" : "Arial",
					"id" : "obj-90"
				}

			}
, 			{
				"box" : 				{
					"maxclass" : "inlet",
					"numinlets" : 0,
					"patching_rect" : [ 255.0, 0.0, 25.0, 25.0 ],
					"numoutlets" : 1,
					"outlettype" : [ "" ],
					"id" : "obj-88",
					"comment" : ""
				}

			}
, 			{
				"box" : 				{
					"maxclass" : "button",
					"numinlets" : 1,
					"patching_rect" : [ 390.0, 315.0, 20.0, 20.0 ],
					"numoutlets" : 1,
					"outlettype" : [ "bang" ],
					"id" : "obj-87"
				}

			}
, 			{
				"box" : 				{
					"maxclass" : "newobj",
					"text" : "onebang",
					"fontsize" : 12.0,
					"numinlets" : 2,
					"patching_rect" : [ 390.0, 345.0, 57.0, 20.0 ],
					"numoutlets" : 2,
					"outlettype" : [ "bang", "bang" ],
					"fontname" : "Arial",
					"id" : "obj-86"
				}

			}
, 			{
				"box" : 				{
					"maxclass" : "button",
					"numinlets" : 1,
					"patching_rect" : [ 420.0, 315.0, 20.0, 20.0 ],
					"numoutlets" : 1,
					"outlettype" : [ "bang" ],
					"id" : "obj-85"
				}

			}
, 			{
				"box" : 				{
					"maxclass" : "button",
					"numinlets" : 1,
					"patching_rect" : [ 240.0, 390.0, 20.0, 20.0 ],
					"numoutlets" : 1,
					"outlettype" : [ "bang" ],
					"id" : "obj-80"
				}

			}
, 			{
				"box" : 				{
					"maxclass" : "message",
					"text" : "0",
					"fontsize" : 12.0,
					"numinlets" : 2,
					"patching_rect" : [ 240.0, 420.0, 32.5, 18.0 ],
					"numoutlets" : 1,
					"outlettype" : [ "" ],
					"fontname" : "Arial",
					"id" : "obj-81"
				}

			}
, 			{
				"box" : 				{
					"maxclass" : "message",
					"text" : "1",
					"fontsize" : 12.0,
					"numinlets" : 2,
					"patching_rect" : [ 210.0, 420.0, 32.5, 18.0 ],
					"numoutlets" : 1,
					"outlettype" : [ "" ],
					"fontname" : "Arial",
					"id" : "obj-82"
				}

			}
, 			{
				"box" : 				{
					"maxclass" : "newobj",
					"text" : "sel 0",
					"fontsize" : 12.0,
					"numinlets" : 2,
					"patching_rect" : [ 225.0, 360.0, 36.0, 20.0 ],
					"numoutlets" : 2,
					"outlettype" : [ "bang", "" ],
					"fontname" : "Arial",
					"id" : "obj-83"
				}

			}
, 			{
				"box" : 				{
					"maxclass" : "message",
					"text" : "set 0",
					"fontsize" : 12.0,
					"numinlets" : 2,
					"patching_rect" : [ 255.0, 300.0, 37.0, 18.0 ],
					"numoutlets" : 1,
					"outlettype" : [ "" ],
					"fontname" : "Arial",
					"id" : "obj-71"
				}

			}
, 			{
				"box" : 				{
					"maxclass" : "button",
					"numinlets" : 1,
					"patching_rect" : [ 255.0, 270.0, 20.0, 20.0 ],
					"numoutlets" : 1,
					"outlettype" : [ "bang" ],
					"id" : "obj-69"
				}

			}
, 			{
				"box" : 				{
					"maxclass" : "button",
					"numinlets" : 1,
					"patching_rect" : [ 225.0, 300.0, 20.0, 20.0 ],
					"numoutlets" : 1,
					"outlettype" : [ "bang" ],
					"id" : "obj-68"
				}

			}
, 			{
				"box" : 				{
					"maxclass" : "newobj",
					"text" : "counter",
					"fontsize" : 12.0,
					"numinlets" : 5,
					"patching_rect" : [ 225.0, 330.0, 73.0, 20.0 ],
					"numoutlets" : 4,
					"outlettype" : [ "int", "", "", "int" ],
					"fontname" : "Arial",
					"id" : "obj-66"
				}

			}
, 			{
				"box" : 				{
					"maxclass" : "toggle",
					"numinlets" : 1,
					"patching_rect" : [ 285.0, 480.0, 20.0, 20.0 ],
					"numoutlets" : 1,
					"outlettype" : [ "int" ],
					"id" : "obj-61"
				}

			}
, 			{
				"box" : 				{
					"maxclass" : "comment",
					"text" : "do not send releases after multipress\n<---------------",
					"linecount" : 4,
					"fontsize" : 12.0,
					"numinlets" : 1,
					"patching_rect" : [ 420.0, 480.0, 85.0, 62.0 ],
					"numoutlets" : 0,
					"fontname" : "Arial",
					"id" : "obj-59"
				}

			}
, 			{
				"box" : 				{
					"maxclass" : "newobj",
					"text" : "gate",
					"fontsize" : 12.0,
					"numinlets" : 2,
					"patching_rect" : [ 375.0, 405.0, 34.0, 20.0 ],
					"numoutlets" : 1,
					"outlettype" : [ "" ],
					"fontname" : "Arial",
					"id" : "obj-56"
				}

			}
, 			{
				"box" : 				{
					"maxclass" : "comment",
					"text" : "after the first press, no other may pass.",
					"linecount" : 2,
					"fontsize" : 12.0,
					"numinlets" : 1,
					"patching_rect" : [ 14.999991, 480.0, 131.0, 34.0 ],
					"numoutlets" : 0,
					"fontname" : "Arial",
					"id" : "obj-55"
				}

			}
, 			{
				"box" : 				{
					"maxclass" : "toggle",
					"numinlets" : 1,
					"patching_rect" : [ 165.0, 480.0, 20.0, 20.0 ],
					"numoutlets" : 1,
					"outlettype" : [ "int" ],
					"id" : "obj-49"
				}

			}
, 			{
				"box" : 				{
					"maxclass" : "newobj",
					"text" : "gate",
					"fontsize" : 12.0,
					"numinlets" : 2,
					"patching_rect" : [ 285.0, 510.0, 34.0, 20.0 ],
					"numoutlets" : 1,
					"outlettype" : [ "" ],
					"fontname" : "Arial",
					"id" : "obj-47"
				}

			}
, 			{
				"box" : 				{
					"maxclass" : "newobj",
					"text" : "gate",
					"fontsize" : 12.0,
					"numinlets" : 2,
					"patching_rect" : [ 165.0, 510.0, 34.0, 20.0 ],
					"numoutlets" : 1,
					"outlettype" : [ "" ],
					"fontname" : "Arial",
					"id" : "obj-46"
				}

			}
, 			{
				"box" : 				{
					"maxclass" : "newobj",
					"text" : "prepend append",
					"fontsize" : 12.0,
					"numinlets" : 1,
					"patching_rect" : [ 450.0, 345.0, 98.0, 20.0 ],
					"numoutlets" : 1,
					"outlettype" : [ "" ],
					"fontname" : "Arial",
					"id" : "obj-45"
				}

			}
, 			{
				"box" : 				{
					"maxclass" : "comment",
					"text" : "sends a list of x y x y when miltipule buttons are pressed. Presses after the first are not sent.",
					"linecount" : 4,
					"fontsize" : 12.0,
					"numinlets" : 1,
					"patching_rect" : [ 420.0, 405.0, 158.0, 62.0 ],
					"numoutlets" : 0,
					"fontname" : "Arial",
					"id" : "obj-43"
				}

			}
, 			{
				"box" : 				{
					"maxclass" : "outlet",
					"numinlets" : 1,
					"patching_rect" : [ 375.0, 435.0, 25.0, 25.0 ],
					"numoutlets" : 0,
					"id" : "obj-44",
					"comment" : "x and y when released."
				}

			}
, 			{
				"box" : 				{
					"maxclass" : "message",
					"text" : "5 2",
					"fontsize" : 12.0,
					"numinlets" : 2,
					"patching_rect" : [ 120.0, 540.0, 50.0, 18.0 ],
					"numoutlets" : 1,
					"outlettype" : [ "" ],
					"fontname" : "Arial",
					"id" : "obj-42"
				}

			}
, 			{
				"box" : 				{
					"maxclass" : "message",
					"text" : "12 4",
					"fontsize" : 12.0,
					"numinlets" : 2,
					"patching_rect" : [ 240.0, 540.0, 50.0, 18.0 ],
					"numoutlets" : 1,
					"outlettype" : [ "" ],
					"fontname" : "Arial",
					"id" : "obj-40"
				}

			}
, 			{
				"box" : 				{
					"maxclass" : "message",
					"text" : "set",
					"fontsize" : 12.0,
					"numinlets" : 2,
					"patching_rect" : [ 345.0, 345.0, 32.5, 18.0 ],
					"numoutlets" : 1,
					"outlettype" : [ "" ],
					"fontname" : "Arial",
					"id" : "obj-29"
				}

			}
, 			{
				"box" : 				{
					"maxclass" : "message",
					"fontsize" : 12.0,
					"numinlets" : 2,
					"patching_rect" : [ 390.0, 375.0, 182.0, 18.0 ],
					"numoutlets" : 1,
					"outlettype" : [ "" ],
					"fontname" : "Arial",
					"id" : "obj-27"
				}

			}
, 			{
				"box" : 				{
					"maxclass" : "message",
					"text" : "1",
					"fontsize" : 12.0,
					"numinlets" : 2,
					"patching_rect" : [ 300.0, 120.0, 32.5, 18.0 ],
					"numoutlets" : 1,
					"outlettype" : [ "" ],
					"fontname" : "Arial",
					"id" : "obj-25"
				}

			}
, 			{
				"box" : 				{
					"maxclass" : "message",
					"text" : "0",
					"fontsize" : 12.0,
					"numinlets" : 2,
					"patching_rect" : [ 345.0, 120.0, 32.5, 18.0 ],
					"numoutlets" : 1,
					"outlettype" : [ "" ],
					"fontname" : "Arial",
					"id" : "obj-23"
				}

			}
, 			{
				"box" : 				{
					"maxclass" : "newobj",
					"text" : "sel 0 1",
					"fontsize" : 12.0,
					"numinlets" : 1,
					"patching_rect" : [ 300.0, 90.0, 46.0, 20.0 ],
					"numoutlets" : 3,
					"outlettype" : [ "bang", "bang", "" ],
					"fontname" : "Arial",
					"id" : "obj-21"
				}

			}
, 			{
				"box" : 				{
					"maxclass" : "newobj",
					"text" : "pack 0 0",
					"fontsize" : 12.0,
					"numinlets" : 2,
					"patching_rect" : [ 300.0, 180.0, 56.0, 20.0 ],
					"numoutlets" : 1,
					"outlettype" : [ "" ],
					"fontname" : "Arial",
					"id" : "obj-18"
				}

			}
, 			{
				"box" : 				{
					"maxclass" : "newobj",
					"text" : "gate",
					"fontsize" : 12.0,
					"numinlets" : 2,
					"patching_rect" : [ 345.0, 150.0, 34.0, 20.0 ],
					"numoutlets" : 1,
					"outlettype" : [ "" ],
					"fontname" : "Arial",
					"id" : "obj-19"
				}

			}
, 			{
				"box" : 				{
					"maxclass" : "newobj",
					"text" : "gate",
					"fontsize" : 12.0,
					"numinlets" : 2,
					"patching_rect" : [ 300.0, 150.0, 34.0, 20.0 ],
					"numoutlets" : 1,
					"outlettype" : [ "" ],
					"fontname" : "Arial",
					"id" : "obj-20"
				}

			}
, 			{
				"box" : 				{
					"maxclass" : "newobj",
					"text" : "pack 0 0",
					"fontsize" : 12.0,
					"numinlets" : 2,
					"patching_rect" : [ 180.0, 180.0, 56.0, 20.0 ],
					"numoutlets" : 1,
					"outlettype" : [ "" ],
					"fontname" : "Arial",
					"id" : "obj-17"
				}

			}
, 			{
				"box" : 				{
					"maxclass" : "newobj",
					"text" : "gate",
					"fontsize" : 12.0,
					"numinlets" : 2,
					"patching_rect" : [ 225.0, 150.0, 34.0, 20.0 ],
					"numoutlets" : 1,
					"outlettype" : [ "" ],
					"fontname" : "Arial",
					"id" : "obj-16"
				}

			}
, 			{
				"box" : 				{
					"maxclass" : "newobj",
					"text" : "gate",
					"fontsize" : 12.0,
					"numinlets" : 2,
					"patching_rect" : [ 180.0, 150.0, 34.0, 20.0 ],
					"numoutlets" : 1,
					"outlettype" : [ "" ],
					"fontname" : "Arial",
					"id" : "obj-15"
				}

			}
, 			{
				"box" : 				{
					"maxclass" : "comment",
					"text" : "1st x, y release.",
					"fontsize" : 12.0,
					"numinlets" : 1,
					"patching_rect" : [ 315.0, 585.0, 150.0, 20.0 ],
					"numoutlets" : 0,
					"fontname" : "Arial",
					"id" : "obj-11"
				}

			}
, 			{
				"box" : 				{
					"maxclass" : "outlet",
					"numinlets" : 1,
					"patching_rect" : [ 285.0, 585.0, 25.0, 25.0 ],
					"numoutlets" : 0,
					"id" : "obj-12",
					"comment" : "1st x, y release."
				}

			}
, 			{
				"box" : 				{
					"maxclass" : "comment",
					"text" : "1st x, y press.",
					"fontsize" : 12.0,
					"numinlets" : 1,
					"patching_rect" : [ 195.0, 645.0, 150.0, 20.0 ],
					"numoutlets" : 0,
					"fontname" : "Arial",
					"id" : "obj-10"
				}

			}
, 			{
				"box" : 				{
					"maxclass" : "outlet",
					"numinlets" : 1,
					"patching_rect" : [ 165.0, 645.0, 25.0, 25.0 ],
					"numoutlets" : 0,
					"id" : "obj-8",
					"comment" : "1st x, y press."
				}

			}
, 			{
				"box" : 				{
					"maxclass" : "newobj",
					"text" : "unpack 0 0 0",
					"fontsize" : 12.0,
					"numinlets" : 1,
					"patching_rect" : [ 255.0, 45.0, 139.0, 20.0 ],
					"numoutlets" : 3,
					"outlettype" : [ "int", "int", "int" ],
					"fontname" : "Arial",
					"id" : "obj-2"
				}

			}
 ],
		"lines" : [ 			{
				"patchline" : 				{
					"source" : [ "obj-18", 0 ],
					"destination" : [ "obj-5", 0 ],
					"hidden" : 0,
					"midpoints" : [  ]
				}

			}
, 			{
				"patchline" : 				{
					"source" : [ "obj-17", 0 ],
					"destination" : [ "obj-1", 0 ],
					"hidden" : 0,
					"midpoints" : [  ]
				}

			}
, 			{
				"patchline" : 				{
					"source" : [ "obj-2", 2 ],
					"destination" : [ "obj-16", 0 ],
					"hidden" : 0,
					"midpoints" : [ 384.5, 75.0, 234.5, 75.0 ]
				}

			}
, 			{
				"patchline" : 				{
					"source" : [ "obj-2", 2 ],
					"destination" : [ "obj-15", 0 ],
					"hidden" : 0,
					"midpoints" : [ 384.5, 75.0, 189.5, 75.0 ]
				}

			}
, 			{
				"patchline" : 				{
					"source" : [ "obj-2", 0 ],
					"destination" : [ "obj-15", 1 ],
					"hidden" : 0,
					"midpoints" : [  ]
				}

			}
, 			{
				"patchline" : 				{
					"source" : [ "obj-2", 1 ],
					"destination" : [ "obj-16", 1 ],
					"hidden" : 0,
					"midpoints" : [  ]
				}

			}
, 			{
				"patchline" : 				{
					"source" : [ "obj-15", 0 ],
					"destination" : [ "obj-17", 0 ],
					"hidden" : 0,
					"midpoints" : [  ]
				}

			}
, 			{
				"patchline" : 				{
					"source" : [ "obj-16", 0 ],
					"destination" : [ "obj-17", 1 ],
					"hidden" : 0,
					"midpoints" : [  ]
				}

			}
, 			{
				"patchline" : 				{
					"source" : [ "obj-19", 0 ],
					"destination" : [ "obj-18", 1 ],
					"hidden" : 0,
					"midpoints" : [  ]
				}

			}
, 			{
				"patchline" : 				{
					"source" : [ "obj-20", 0 ],
					"destination" : [ "obj-18", 0 ],
					"hidden" : 0,
					"midpoints" : [  ]
				}

			}
, 			{
				"patchline" : 				{
					"source" : [ "obj-2", 2 ],
					"destination" : [ "obj-21", 0 ],
					"hidden" : 0,
					"midpoints" : [ 384.5, 75.0, 309.5, 75.0 ]
				}

			}
, 			{
				"patchline" : 				{
					"source" : [ "obj-2", 0 ],
					"destination" : [ "obj-20", 1 ],
					"hidden" : 0,
					"midpoints" : [  ]
				}

			}
, 			{
				"patchline" : 				{
					"source" : [ "obj-2", 1 ],
					"destination" : [ "obj-19", 1 ],
					"hidden" : 0,
					"midpoints" : [  ]
				}

			}
, 			{
				"patchline" : 				{
					"source" : [ "obj-21", 0 ],
					"destination" : [ "obj-25", 0 ],
					"hidden" : 0,
					"midpoints" : [  ]
				}

			}
, 			{
				"patchline" : 				{
					"source" : [ "obj-25", 0 ],
					"destination" : [ "obj-20", 0 ],
					"hidden" : 0,
					"midpoints" : [  ]
				}

			}
, 			{
				"patchline" : 				{
					"source" : [ "obj-21", 1 ],
					"destination" : [ "obj-23", 0 ],
					"hidden" : 0,
					"midpoints" : [  ]
				}

			}
, 			{
				"patchline" : 				{
					"source" : [ "obj-23", 0 ],
					"destination" : [ "obj-19", 0 ],
					"hidden" : 0,
					"midpoints" : [  ]
				}

			}
, 			{
				"patchline" : 				{
					"source" : [ "obj-23", 0 ],
					"destination" : [ "obj-20", 0 ],
					"hidden" : 0,
					"midpoints" : [  ]
				}

			}
, 			{
				"patchline" : 				{
					"source" : [ "obj-25", 0 ],
					"destination" : [ "obj-19", 0 ],
					"hidden" : 0,
					"midpoints" : [  ]
				}

			}
, 			{
				"patchline" : 				{
					"source" : [ "obj-18", 0 ],
					"destination" : [ "obj-47", 1 ],
					"hidden" : 0,
					"midpoints" : [  ]
				}

			}
, 			{
				"patchline" : 				{
					"source" : [ "obj-47", 0 ],
					"destination" : [ "obj-12", 0 ],
					"hidden" : 0,
					"midpoints" : [  ]
				}

			}
, 			{
				"patchline" : 				{
					"source" : [ "obj-17", 0 ],
					"destination" : [ "obj-46", 1 ],
					"hidden" : 0,
					"midpoints" : [  ]
				}

			}
, 			{
				"patchline" : 				{
					"source" : [ "obj-46", 0 ],
					"destination" : [ "obj-8", 0 ],
					"hidden" : 0,
					"midpoints" : [  ]
				}

			}
, 			{
				"patchline" : 				{
					"source" : [ "obj-45", 0 ],
					"destination" : [ "obj-27", 0 ],
					"hidden" : 0,
					"midpoints" : [  ]
				}

			}
, 			{
				"patchline" : 				{
					"source" : [ "obj-17", 0 ],
					"destination" : [ "obj-45", 0 ],
					"hidden" : 0,
					"midpoints" : [ 189.5, 239.0, 459.5, 239.0 ]
				}

			}
, 			{
				"patchline" : 				{
					"source" : [ "obj-49", 0 ],
					"destination" : [ "obj-46", 0 ],
					"hidden" : 0,
					"midpoints" : [  ]
				}

			}
, 			{
				"patchline" : 				{
					"source" : [ "obj-46", 0 ],
					"destination" : [ "obj-42", 1 ],
					"hidden" : 0,
					"midpoints" : [  ]
				}

			}
, 			{
				"patchline" : 				{
					"source" : [ "obj-27", 0 ],
					"destination" : [ "obj-56", 1 ],
					"hidden" : 0,
					"midpoints" : [  ]
				}

			}
, 			{
				"patchline" : 				{
					"source" : [ "obj-61", 0 ],
					"destination" : [ "obj-47", 0 ],
					"hidden" : 0,
					"midpoints" : [  ]
				}

			}
, 			{
				"patchline" : 				{
					"source" : [ "obj-47", 0 ],
					"destination" : [ "obj-40", 1 ],
					"hidden" : 0,
					"midpoints" : [  ]
				}

			}
, 			{
				"patchline" : 				{
					"source" : [ "obj-56", 0 ],
					"destination" : [ "obj-44", 0 ],
					"hidden" : 0,
					"midpoints" : [  ]
				}

			}
, 			{
				"patchline" : 				{
					"source" : [ "obj-66", 0 ],
					"destination" : [ "obj-56", 0 ],
					"hidden" : 0,
					"midpoints" : [  ]
				}

			}
, 			{
				"patchline" : 				{
					"source" : [ "obj-17", 0 ],
					"destination" : [ "obj-68", 0 ],
					"hidden" : 0,
					"midpoints" : [  ]
				}

			}
, 			{
				"patchline" : 				{
					"source" : [ "obj-68", 0 ],
					"destination" : [ "obj-66", 0 ],
					"hidden" : 0,
					"midpoints" : [  ]
				}

			}
, 			{
				"patchline" : 				{
					"source" : [ "obj-69", 0 ],
					"destination" : [ "obj-29", 0 ],
					"hidden" : 0,
					"midpoints" : [  ]
				}

			}
, 			{
				"patchline" : 				{
					"source" : [ "obj-69", 0 ],
					"destination" : [ "obj-71", 0 ],
					"hidden" : 0,
					"midpoints" : [  ]
				}

			}
, 			{
				"patchline" : 				{
					"source" : [ "obj-71", 0 ],
					"destination" : [ "obj-66", 0 ],
					"hidden" : 0,
					"midpoints" : [  ]
				}

			}
, 			{
				"patchline" : 				{
					"source" : [ "obj-18", 0 ],
					"destination" : [ "obj-69", 0 ],
					"hidden" : 0,
					"midpoints" : [  ]
				}

			}
, 			{
				"patchline" : 				{
					"source" : [ "obj-83", 0 ],
					"destination" : [ "obj-82", 0 ],
					"hidden" : 0,
					"midpoints" : [  ]
				}

			}
, 			{
				"patchline" : 				{
					"source" : [ "obj-80", 0 ],
					"destination" : [ "obj-81", 0 ],
					"hidden" : 0,
					"midpoints" : [  ]
				}

			}
, 			{
				"patchline" : 				{
					"source" : [ "obj-83", 1 ],
					"destination" : [ "obj-80", 0 ],
					"hidden" : 0,
					"midpoints" : [  ]
				}

			}
, 			{
				"patchline" : 				{
					"source" : [ "obj-66", 0 ],
					"destination" : [ "obj-83", 0 ],
					"hidden" : 0,
					"midpoints" : [  ]
				}

			}
, 			{
				"patchline" : 				{
					"source" : [ "obj-82", 0 ],
					"destination" : [ "obj-49", 0 ],
					"hidden" : 0,
					"midpoints" : [  ]
				}

			}
, 			{
				"patchline" : 				{
					"source" : [ "obj-81", 0 ],
					"destination" : [ "obj-49", 0 ],
					"hidden" : 0,
					"midpoints" : [  ]
				}

			}
, 			{
				"patchline" : 				{
					"source" : [ "obj-82", 0 ],
					"destination" : [ "obj-61", 0 ],
					"hidden" : 0,
					"midpoints" : [  ]
				}

			}
, 			{
				"patchline" : 				{
					"source" : [ "obj-81", 0 ],
					"destination" : [ "obj-61", 0 ],
					"hidden" : 0,
					"midpoints" : [  ]
				}

			}
, 			{
				"patchline" : 				{
					"source" : [ "obj-29", 0 ],
					"destination" : [ "obj-27", 0 ],
					"hidden" : 0,
					"midpoints" : [  ]
				}

			}
, 			{
				"patchline" : 				{
					"source" : [ "obj-87", 0 ],
					"destination" : [ "obj-86", 0 ],
					"hidden" : 0,
					"midpoints" : [  ]
				}

			}
, 			{
				"patchline" : 				{
					"source" : [ "obj-85", 0 ],
					"destination" : [ "obj-86", 1 ],
					"hidden" : 0,
					"midpoints" : [  ]
				}

			}
, 			{
				"patchline" : 				{
					"source" : [ "obj-86", 0 ],
					"destination" : [ "obj-27", 0 ],
					"hidden" : 0,
					"midpoints" : [  ]
				}

			}
, 			{
				"patchline" : 				{
					"source" : [ "obj-17", 0 ],
					"destination" : [ "obj-85", 0 ],
					"hidden" : 0,
					"midpoints" : [  ]
				}

			}
, 			{
				"patchline" : 				{
					"source" : [ "obj-18", 0 ],
					"destination" : [ "obj-87", 0 ],
					"hidden" : 0,
					"midpoints" : [  ]
				}

			}
, 			{
				"patchline" : 				{
					"source" : [ "obj-88", 0 ],
					"destination" : [ "obj-2", 0 ],
					"hidden" : 0,
					"midpoints" : [  ]
				}

			}
 ]
	}

}
