#N canvas 575 47 789 658 10;
#X text 494 18 Should we legato - smoothly and connected;
#X text 65 168 Saw/Square;
#X text 99 268 Filter;
#X text 119 591 Sound Out;
#X text 521 47 Should we note off;
#X text 298 397 Envelope;
#X text 244 362;
#X text 142 30 Signal in;
#X text 404 34 Evelope affects filter;
#X obj 182 169 phasor~;
#X obj 23 22 pddp/dsp;
#X obj 182 593 dac~;
#X floatatom 182 149 5 0 0 0 - - -;
#X obj 72 196 expr~ $v1 > 0.5;
#X obj 244 426 line~;
#X obj 246 363 bng 15 250 50 0 empty empty empty 17 7 0 10 -262144
-1 -1;
#X obj 181 456 *~;
#X obj 243 458 slider 127 0 15;
#X obj 182 562 *~ 1;
#X obj 203 539 / 127;
#X msg 325 99 440;
#X msg 203 398 1 250;
#X obj 246 382 del 250;
#X msg 244 402 0 100;
#X msg 247 99 220;
#X obj 397 491 biquad~;
#X obj 450 491 biquad~;
#X obj 416 566 env~;
#X msg 396 381 1.41407 -0.9998 1 -1.41421 1;
#X text 408 359 list sets filter parameters;
#X msg 431 411 set 0 0;
#X msg 432 436 clear;
#X text 501 413 set internal state;
#X text 499 435 ... or just clear it;
#X text 19 459 Multiply filter by enveope;
#X obj 408 269 biquad~ 1.41407 -0.9998 1 -1.41421 1;
#X obj 408 295 biquad~ 1.41407 -0.9998 1 -1.41421 1;
#X text 29 497 Need the low pass filter here;
#X text -17 510 Which is some hwo done with two biquads;
#X text 291 526 Env mod is where envelope affects the parapeters of
the filter (resonance and frequency cutoff) by a factor of itself;
#X obj 279 497 lop~ 500;
#X msg 286 99 110;
#X connect 9 0 13 0;
#X connect 9 0 16 0;
#X connect 12 0 9 0;
#X connect 14 0 16 1;
#X connect 15 0 21 0;
#X connect 15 0 22 0;
#X connect 16 0 40 0;
#X connect 17 0 19 0;
#X connect 18 0 11 0;
#X connect 18 0 11 1;
#X connect 19 0 18 1;
#X connect 20 0 12 0;
#X connect 20 0 15 0;
#X connect 21 0 14 0;
#X connect 22 0 23 0;
#X connect 23 0 14 0;
#X connect 24 0 12 0;
#X connect 24 0 15 0;
#X connect 25 0 26 0;
#X connect 28 0 25 0;
#X connect 28 0 26 0;
#X connect 30 0 25 0;
#X connect 30 0 26 0;
#X connect 31 0 25 0;
#X connect 31 0 26 0;
#X connect 35 0 36 0;
#X connect 40 0 18 0;
#X connect 41 0 12 0;
#X connect 41 0 15 0;
