#N canvas 79 120 951 505 10;
#X obj 144 137 ctlin;
#X obj 87 49 pgmin;
#X obj 406 94 touchin;
#X obj 405 70 polytouchin;
#X obj 87 71 midiin;
#X obj 405 48 sysexin;
#X obj 83 19 notein;
#X obj 689 194 print;
#X obj 188 373 ctlout;
#X msg 183 342 127 104 0;
#X text 183 322 play;
#X text 254 322 new loop;
#X text 324 324 record;
#X msg 325 344 127 102 0;
#X msg 254 342 127 103 0;
#X obj 203 132 midirealtimein;
#X obj 210 153 midiclkin;
#X msg 577 211 248;
#X obj 580 269 midiout;
#X obj 483 14 pddp/dsp;
#X obj 553 81 /;
#X obj 553 19 nbx 5 14 -1e+37 1e+37 0 0 empty empty empty 0 -8 0 10
-262144 -1 -1 90 256;
#X msg 553 59 60000 \$1;
#X obj 532 105 metro 120;
#X obj 532 83 tgl 15 0 empty empty empty 17 7 0 10 -262144 -1 -1 0
250;
#X obj 553 38 * 32;
#X text 505 -9 Temp control;
#X obj 572 133 float;
#X obj 614 133 + 1;
#X obj 572 156 mod 32;
#X obj 493 219 route 0;
#X obj 493 245 bng 15 250 50 0 empty empty empty 17 7 0 10 -262144
-1 -1;
#X msg 617 211 250;
#X msg 642 239 252;
#X connect 9 0 8 0;
#X connect 13 0 8 0;
#X connect 14 0 8 0;
#X connect 17 0 18 0;
#X connect 20 0 23 1;
#X connect 21 0 25 0;
#X connect 22 0 20 0;
#X connect 23 0 27 0;
#X connect 24 0 23 0;
#X connect 25 0 22 0;
#X connect 27 0 28 0;
#X connect 27 0 29 0;
#X connect 28 0 27 1;
#X connect 29 0 17 0;
#X connect 29 0 7 0;
#X connect 29 0 30 0;
#X connect 30 0 31 0;
#X connect 32 0 18 0;
#X connect 33 0 18 0;
