#N canvas 430 266 452 302 12;
#X msg 186 136 252;
#X msg 147 135 250;
#X obj 146 226 f;
#X msg 260 102 248;
#N canvas 8 41 462 312 make.clock 0;
#X obj 190 148 t3_metro 25;
#X obj 287 73 expr 60000 / (24 * $f1);
#X obj 287 46 inlet;
#X obj 51 24 inlet;
#X obj 183 240 outlet;
#X msg 86 111 start 0;
#X msg 144 113 stop;
#X obj 146 64 sel start stop;
#X obj 189 208 spigot;
#X msg 311 177 1;
#X msg 339 176 0;
#X obj 191 171 b;
#X obj 50 257 outlet;
#X connect 0 0 11 0;
#X connect 1 0 0 1;
#X connect 2 0 1 0;
#X connect 3 0 7 0;
#X connect 3 0 12 0;
#X connect 5 0 0 0;
#X connect 6 0 0 0;
#X connect 7 0 5 0;
#X connect 7 0 9 0;
#X connect 7 1 6 0;
#X connect 7 1 10 0;
#X connect 8 0 4 0;
#X connect 9 0 8 1;
#X connect 10 0 8 1;
#X connect 11 0 8 0;
#X restore 147 67 pd make.clock;
#X obj 147 99 sel start stop;
#X obj 150 34 symbol;
#X msg 139 9 start;
#X msg 182 10 stop;
#X obj 144 258 midiout;
#X text 270 162 midi-out example;
#X text 269 180 e.skogen/audionerd.com;
#X text 269 198 uses t3_metro from IEM;
#X obj 231 31 nbx 3 14 -1e+37 1e+37 0 0 empty empty BPM 0 -6 1 12 -262131
-123526 -1 130 256;
#N canvas 0 0 446 505 kick~ 0;
#X obj 107 313 *~;
#X obj 161 185 vline~;
#X obj 160 206 dbtorms~;
#X obj 97 20 inlet;
#X obj 108 370 outlet~;
#X msg 161 164 100 5 \, 0 420 15;
#X obj 47 86 vline~;
#X obj 48 127 phasor~ 240;
#X obj 48 153 >~ 0.5;
#X obj 67 207 vline~;
#X obj 97 39 t b b b b;
#X obj 106 245 cos~;
#X msg 47 65 200 5 \, 80 25 5 \, 0 80 100;
#X obj 48 243 vcf~ 19;
#X msg 67 186 1200 \, 80 17;
#X obj 48 292 *~ 6;
#X obj 108 345 *~ 0.5;
#X text 230 90 most basic kick drum synthesis;
#X text 230 109 wants >~ for the aliased square;
#X msg 109 102 0.5;
#X connect 0 0 16 0;
#X connect 1 0 2 0;
#X connect 2 0 0 1;
#X connect 3 0 10 0;
#X connect 5 0 1 0;
#X connect 6 0 7 0;
#X connect 7 0 8 0;
#X connect 7 0 11 0;
#X connect 8 0 13 0;
#X connect 9 0 13 1;
#X connect 10 0 12 0;
#X connect 10 1 19 0;
#X connect 10 2 14 0;
#X connect 10 3 5 0;
#X connect 11 0 0 0;
#X connect 12 0 6 0;
#X connect 13 0 15 0;
#X connect 14 0 9 0;
#X connect 15 0 0 0;
#X connect 16 0 4 0;
#X connect 19 0 7 1;
#X restore 23 226 pd kick~;
#X obj 23 274 dac~;
#X obj 302 69 s clock24;
#X obj 23 69 r clock24;
#X obj 23 125 f;
#X obj 50 147 + 1;
#X obj 50 168 mod 24;
#X obj 23 203 sel 0;
#X msg 56 100 0;
#X text 320 84 internal clock;
#X text 193 258 external clock;
#X text 80 97 reset;
#X text 72 152 counter (0-23);
#X connect 0 0 2 0;
#X connect 1 0 2 0;
#X connect 2 0 9 0;
#X connect 3 0 2 0;
#X connect 4 0 5 0;
#X connect 4 1 3 0;
#X connect 4 1 16 0;
#X connect 5 0 1 0;
#X connect 5 0 22 0;
#X connect 5 1 0 0;
#X connect 6 0 4 0;
#X connect 7 0 6 0;
#X connect 8 0 6 0;
#X connect 13 0 4 1;
#X connect 14 0 15 0;
#X connect 14 0 15 1;
#X connect 17 0 18 0;
#X connect 18 0 19 0;
#X connect 18 0 21 0;
#X connect 19 0 20 0;
#X connect 20 0 18 1;
#X connect 21 0 14 0;
#X connect 22 0 18 0;
