#N canvas 214 228 867 428 10;
#X msg 77 344 disconnect;
#X obj 642 107 /;
#X msg 642 85 60000 \$1;
#X obj 621 131 metro 120;
#X obj 621 109 tgl 15 0 empty empty empty 17 7 0 10 -262144 -1 -1 0
1;
#X obj 642 64 * 32;
#X text 594 17 Temp control;
#X obj 600 364 sendOSC;
#X msg 650 364 disconnect;
#X text 73 256 serialosc out;
#X msg 65 172 send /sys/prefix qseq;
#X text 650 276 to qseq daemon;
#X msg 650 318 send /quit;
#X msg 650 297 send /tick;
#X msg 77 323 connect localhost 13090;
#X obj 26 345 sendOSC;
#X msg 77 302 send /qseq/grid/led/intensity 1;
#X msg 650 339 connect localhost 7720;
#X obj 661 159 float;
#X obj 703 159 + 1;
#X obj 661 182 mod 32;
#X msg 77 278 send /qseq/grid/led/all 0;
#X obj 658 215 prepend send /tick;
#X msg 63 149 send /sys/info 8888;
#X msg 66 197 send /sys/prefix bridge;
#X msg 430 299 248;
#X obj 430 325 midiout;
#X obj 108 54 pddp/dsp;
#X obj 430 271 mod 32;
#X obj 379 299 route 0;
#X obj 379 325 bng 15 250 50 0 empty empty empty 17 7 0 10 -262144
-1 -1;
#X msg 485 268 250;
#X msg 520 269 252;
#X obj 269 53 float;
#X floatatom 732 27 5 0 0 0 - - -;
#X msg 450 48 120;
#X msg 397 138 100;
#X obj 384 107 bng 15 250 50 0 empty empty empty 17 7 0 10 -262144
-1 -1;
#X msg 445 140 252;
#X msg 368 145 250;
#X obj 498 100 bng 15 250 50 0 empty empty empty 17 7 0 10 -262144
-1 -1;
#X msg 559 133 252;
#X msg 482 138 250;
#X msg 511 131 140;
#X obj 284 192 print;
#X obj 209 113 dump OSC 8000;
#X msg 88 225 send /slider/grid/led/all 0;
#X connect 0 0 15 0;
#X connect 1 0 3 1;
#X connect 2 0 1 0;
#X connect 3 0 18 0;
#X connect 4 0 3 0;
#X connect 5 0 2 0;
#X connect 8 0 7 0;
#X connect 10 0 15 0;
#X connect 12 0 7 0;
#X connect 13 0 7 0;
#X connect 14 0 15 0;
#X connect 16 0 15 0;
#X connect 17 0 7 0;
#X connect 18 0 19 0;
#X connect 18 0 20 0;
#X connect 18 0 28 0;
#X connect 19 0 18 1;
#X connect 20 0 22 0;
#X connect 21 0 15 0;
#X connect 22 0 7 0;
#X connect 23 0 15 0;
#X connect 24 0 15 0;
#X connect 25 0 26 0;
#X connect 28 0 25 0;
#X connect 28 0 29 0;
#X connect 29 0 30 0;
#X connect 31 0 26 0;
#X connect 32 0 26 0;
#X connect 34 0 5 0;
#X connect 35 0 5 0;
#X connect 36 0 5 0;
#X connect 37 0 38 0;
#X connect 37 0 36 0;
#X connect 37 0 39 0;
#X connect 38 0 26 0;
#X connect 39 0 26 0;
#X connect 40 0 41 0;
#X connect 40 0 43 0;
#X connect 40 0 42 0;
#X connect 41 0 26 0;
#X connect 42 0 26 0;
#X connect 43 0 5 0;
#X connect 45 0 44 0;
#X connect 46 0 15 0;
