#N canvas 192 199 524 486 10;
#X obj 113 47 dumpOSC 7771;
#X obj 116 341 print 7771;
#X obj 113 70 route /play;
#X obj 113 93 unpack 0 0;
#X obj 112 142 + 1;
#X obj 170 125 + 1;
#X obj 115 315 * 440;
#X obj 175 211 pow;
#X msg 241 151 1.04427;
#X obj 168 182 bng 15 250 50 0 empty empty empty 17 7 0 10 -262144
-1 -1;
#X obj 118 278 +;
#X obj 402 353 *~;
#X obj 425 329 tgl 15 0 empty empty empty 0 -6 0 8 -24198 -1 -1 0 1
;
#X obj 402 295 osc~ 500;
#X obj 390 397 dac~;
#X text 241 374 audio (thick cord) -->;
#X obj 543 30 pddp/dsp;
#X obj 360 64 dumpOSC 7770;
#X obj 362 111 print 7770;
#X connect 0 0 2 0;
#X connect 2 0 3 0;
#X connect 3 0 5 0;
#X connect 3 1 4 0;
#X connect 4 0 10 1;
#X connect 5 0 7 1;
#X connect 5 0 9 0;
#X connect 6 0 1 0;
#X connect 6 0 13 0;
#X connect 7 0 10 0;
#X connect 8 0 7 0;
#X connect 9 0 7 0;
#X connect 10 0 6 0;
#X connect 11 0 14 0;
#X connect 11 0 14 1;
#X connect 12 0 11 1;
#X connect 13 0 11 0;
#X connect 17 0 18 0;
