{
	"patcher" : 	{
		"fileversion" : 1,
		"rect" : [ 134.0, 68.0, 950.0, 506.0 ],
		"bglocked" : 0,
		"defrect" : [ 134.0, 68.0, 950.0, 506.0 ],
		"openrect" : [ 0.0, 0.0, 0.0, 0.0 ],
		"openinpresentation" : 0,
		"default_fontsize" : 12.0,
		"default_fontface" : 0,
		"default_fontname" : "Arial",
		"gridonopen" : 0,
		"gridsize" : [ 15.0, 15.0 ],
		"gridsnaponopen" : 0,
		"toolbarvisible" : 1,
		"boxanimatetime" : 200,
		"imprint" : 0,
		"boxes" : [ 			{
				"box" : 				{
					"maxclass" : "message",
					"text" : "1",
					"fontname" : "Arial",
					"numoutlets" : 1,
					"id" : "obj-79",
					"outlettype" : [ "" ],
					"fontsize" : 12.0,
					"patching_rect" : [ 585.0, 150.0, 32.5, 18.0 ],
					"numinlets" : 2
				}

			}
, 			{
				"box" : 				{
					"maxclass" : "message",
					"text" : "0",
					"fontname" : "Arial",
					"numoutlets" : 1,
					"id" : "obj-80",
					"outlettype" : [ "" ],
					"fontsize" : 12.0,
					"patching_rect" : [ 615.0, 150.0, 32.5, 18.0 ],
					"numinlets" : 2
				}

			}
, 			{
				"box" : 				{
					"maxclass" : "newobj",
					"text" : "sel 0 1",
					"fontname" : "Arial",
					"numoutlets" : 3,
					"id" : "obj-81",
					"outlettype" : [ "bang", "bang", "" ],
					"fontsize" : 12.0,
					"patching_rect" : [ 585.0, 90.0, 60.0, 20.0 ],
					"numinlets" : 1
				}

			}
, 			{
				"box" : 				{
					"maxclass" : "message",
					"text" : "1",
					"fontname" : "Arial",
					"numoutlets" : 1,
					"id" : "obj-76",
					"outlettype" : [ "" ],
					"fontsize" : 12.0,
					"patching_rect" : [ 510.0, 150.0, 32.5, 18.0 ],
					"numinlets" : 2
				}

			}
, 			{
				"box" : 				{
					"maxclass" : "message",
					"text" : "0",
					"fontname" : "Arial",
					"numoutlets" : 1,
					"id" : "obj-77",
					"outlettype" : [ "" ],
					"fontsize" : 12.0,
					"patching_rect" : [ 540.0, 150.0, 32.5, 18.0 ],
					"numinlets" : 2
				}

			}
, 			{
				"box" : 				{
					"maxclass" : "newobj",
					"text" : "sel 0 1",
					"fontname" : "Arial",
					"numoutlets" : 3,
					"id" : "obj-78",
					"outlettype" : [ "bang", "bang", "" ],
					"fontsize" : 12.0,
					"patching_rect" : [ 510.0, 90.0, 60.0, 20.0 ],
					"numinlets" : 1
				}

			}
, 			{
				"box" : 				{
					"maxclass" : "message",
					"text" : "1",
					"fontname" : "Arial",
					"numoutlets" : 1,
					"id" : "obj-73",
					"outlettype" : [ "" ],
					"fontsize" : 12.0,
					"patching_rect" : [ 435.0, 150.0, 32.5, 18.0 ],
					"numinlets" : 2
				}

			}
, 			{
				"box" : 				{
					"maxclass" : "message",
					"text" : "0",
					"fontname" : "Arial",
					"numoutlets" : 1,
					"id" : "obj-74",
					"outlettype" : [ "" ],
					"fontsize" : 12.0,
					"patching_rect" : [ 465.0, 150.0, 32.5, 18.0 ],
					"numinlets" : 2
				}

			}
, 			{
				"box" : 				{
					"maxclass" : "newobj",
					"text" : "sel 0 1",
					"fontname" : "Arial",
					"numoutlets" : 3,
					"id" : "obj-75",
					"outlettype" : [ "bang", "bang", "" ],
					"fontsize" : 12.0,
					"patching_rect" : [ 435.0, 90.0, 60.0, 20.0 ],
					"numinlets" : 1
				}

			}
, 			{
				"box" : 				{
					"maxclass" : "message",
					"text" : "1",
					"fontname" : "Arial",
					"numoutlets" : 1,
					"id" : "obj-70",
					"outlettype" : [ "" ],
					"fontsize" : 12.0,
					"patching_rect" : [ 360.0, 150.0, 32.5, 18.0 ],
					"numinlets" : 2
				}

			}
, 			{
				"box" : 				{
					"maxclass" : "message",
					"text" : "0",
					"fontname" : "Arial",
					"numoutlets" : 1,
					"id" : "obj-71",
					"outlettype" : [ "" ],
					"fontsize" : 12.0,
					"patching_rect" : [ 390.0, 150.0, 32.5, 18.0 ],
					"numinlets" : 2
				}

			}
, 			{
				"box" : 				{
					"maxclass" : "newobj",
					"text" : "sel 0 1",
					"fontname" : "Arial",
					"numoutlets" : 3,
					"id" : "obj-72",
					"outlettype" : [ "bang", "bang", "" ],
					"fontsize" : 12.0,
					"patching_rect" : [ 360.0, 90.0, 60.0, 20.0 ],
					"numinlets" : 1
				}

			}
, 			{
				"box" : 				{
					"maxclass" : "message",
					"text" : "1",
					"fontname" : "Arial",
					"numoutlets" : 1,
					"id" : "obj-67",
					"outlettype" : [ "" ],
					"fontsize" : 12.0,
					"patching_rect" : [ 285.0, 150.0, 32.5, 18.0 ],
					"numinlets" : 2
				}

			}
, 			{
				"box" : 				{
					"maxclass" : "message",
					"text" : "0",
					"fontname" : "Arial",
					"numoutlets" : 1,
					"id" : "obj-68",
					"outlettype" : [ "" ],
					"fontsize" : 12.0,
					"patching_rect" : [ 315.0, 150.0, 32.5, 18.0 ],
					"numinlets" : 2
				}

			}
, 			{
				"box" : 				{
					"maxclass" : "newobj",
					"text" : "sel 0 1",
					"fontname" : "Arial",
					"numoutlets" : 3,
					"id" : "obj-69",
					"outlettype" : [ "bang", "bang", "" ],
					"fontsize" : 12.0,
					"patching_rect" : [ 285.0, 90.0, 60.0, 20.0 ],
					"numinlets" : 1
				}

			}
, 			{
				"box" : 				{
					"maxclass" : "message",
					"text" : "1",
					"fontname" : "Arial",
					"numoutlets" : 1,
					"id" : "obj-64",
					"outlettype" : [ "" ],
					"fontsize" : 12.0,
					"patching_rect" : [ 210.0, 150.0, 32.5, 18.0 ],
					"numinlets" : 2
				}

			}
, 			{
				"box" : 				{
					"maxclass" : "message",
					"text" : "0",
					"fontname" : "Arial",
					"numoutlets" : 1,
					"id" : "obj-65",
					"outlettype" : [ "" ],
					"fontsize" : 12.0,
					"patching_rect" : [ 240.0, 150.0, 32.5, 18.0 ],
					"numinlets" : 2
				}

			}
, 			{
				"box" : 				{
					"maxclass" : "newobj",
					"text" : "sel 0 1",
					"fontname" : "Arial",
					"numoutlets" : 3,
					"id" : "obj-66",
					"outlettype" : [ "bang", "bang", "" ],
					"fontsize" : 12.0,
					"patching_rect" : [ 210.0, 90.0, 60.0, 20.0 ],
					"numinlets" : 1
				}

			}
, 			{
				"box" : 				{
					"maxclass" : "message",
					"text" : "1",
					"fontname" : "Arial",
					"numoutlets" : 1,
					"id" : "obj-63",
					"outlettype" : [ "" ],
					"fontsize" : 12.0,
					"patching_rect" : [ 135.0, 150.0, 32.5, 18.0 ],
					"numinlets" : 2
				}

			}
, 			{
				"box" : 				{
					"maxclass" : "message",
					"text" : "0",
					"fontname" : "Arial",
					"numoutlets" : 1,
					"id" : "obj-61",
					"outlettype" : [ "" ],
					"fontsize" : 12.0,
					"patching_rect" : [ 165.0, 150.0, 32.5, 18.0 ],
					"numinlets" : 2
				}

			}
, 			{
				"box" : 				{
					"maxclass" : "newobj",
					"text" : "sel 0 1",
					"fontname" : "Arial",
					"numoutlets" : 3,
					"id" : "obj-59",
					"outlettype" : [ "bang", "bang", "" ],
					"fontsize" : 12.0,
					"patching_rect" : [ 135.0, 90.0, 60.0, 20.0 ],
					"numinlets" : 1
				}

			}
, 			{
				"box" : 				{
					"maxclass" : "newobj",
					"text" : "gate",
					"fontname" : "Arial",
					"numoutlets" : 1,
					"id" : "obj-52",
					"outlettype" : [ "" ],
					"fontsize" : 12.0,
					"patching_rect" : [ 585.0, 195.0, 34.0, 20.0 ],
					"numinlets" : 2
				}

			}
, 			{
				"box" : 				{
					"maxclass" : "newobj",
					"text" : "gate",
					"fontname" : "Arial",
					"numoutlets" : 1,
					"id" : "obj-50",
					"outlettype" : [ "" ],
					"fontsize" : 12.0,
					"patching_rect" : [ 510.0, 195.0, 34.0, 20.0 ],
					"numinlets" : 2
				}

			}
, 			{
				"box" : 				{
					"maxclass" : "newobj",
					"text" : "gate",
					"fontname" : "Arial",
					"numoutlets" : 1,
					"id" : "obj-48",
					"outlettype" : [ "" ],
					"fontsize" : 12.0,
					"patching_rect" : [ 435.0, 195.0, 34.0, 20.0 ],
					"numinlets" : 2
				}

			}
, 			{
				"box" : 				{
					"maxclass" : "newobj",
					"text" : "gate",
					"fontname" : "Arial",
					"numoutlets" : 1,
					"id" : "obj-46",
					"outlettype" : [ "" ],
					"fontsize" : 12.0,
					"patching_rect" : [ 360.0, 195.0, 34.0, 20.0 ],
					"numinlets" : 2
				}

			}
, 			{
				"box" : 				{
					"maxclass" : "newobj",
					"text" : "gate",
					"fontname" : "Arial",
					"numoutlets" : 1,
					"id" : "obj-44",
					"outlettype" : [ "" ],
					"fontsize" : 12.0,
					"patching_rect" : [ 285.0, 195.0, 34.0, 20.0 ],
					"numinlets" : 2
				}

			}
, 			{
				"box" : 				{
					"maxclass" : "newobj",
					"text" : "gate",
					"fontname" : "Arial",
					"numoutlets" : 1,
					"id" : "obj-42",
					"outlettype" : [ "" ],
					"fontsize" : 12.0,
					"patching_rect" : [ 210.0, 195.0, 34.0, 20.0 ],
					"numinlets" : 2
				}

			}
, 			{
				"box" : 				{
					"maxclass" : "newobj",
					"text" : "gate",
					"fontname" : "Arial",
					"numoutlets" : 1,
					"id" : "obj-41",
					"outlettype" : [ "" ],
					"fontsize" : 12.0,
					"patching_rect" : [ 135.0, 195.0, 34.0, 20.0 ],
					"numinlets" : 2
				}

			}
, 			{
				"box" : 				{
					"maxclass" : "newobj",
					"text" : "sel 1",
					"fontname" : "Arial",
					"numoutlets" : 2,
					"id" : "obj-58",
					"outlettype" : [ "bang", "" ],
					"fontsize" : 12.0,
					"patching_rect" : [ 675.0, 150.0, 36.0, 20.0 ],
					"numinlets" : 2
				}

			}
, 			{
				"box" : 				{
					"maxclass" : "comment",
					"text" : "Master mute on",
					"fontname" : "Arial",
					"numoutlets" : 0,
					"id" : "obj-57",
					"fontsize" : 12.0,
					"patching_rect" : [ 720.0, 225.0, 150.0, 20.0 ],
					"numinlets" : 1
				}

			}
, 			{
				"box" : 				{
					"maxclass" : "message",
					"text" : "7 7 1",
					"fontname" : "Arial",
					"numoutlets" : 1,
					"id" : "obj-55",
					"outlettype" : [ "" ],
					"fontsize" : 12.0,
					"patching_rect" : [ 675.0, 285.0, 37.0, 18.0 ],
					"numinlets" : 2
				}

			}
, 			{
				"box" : 				{
					"maxclass" : "newobj",
					"text" : "prepend 6 7",
					"fontname" : "Arial",
					"numoutlets" : 1,
					"id" : "obj-22",
					"outlettype" : [ "" ],
					"fontsize" : 12.0,
					"patching_rect" : [ 570.0, 285.0, 75.0, 20.0 ],
					"numinlets" : 1
				}

			}
, 			{
				"box" : 				{
					"maxclass" : "newobj",
					"text" : "prepend 5 7",
					"fontname" : "Arial",
					"numoutlets" : 1,
					"id" : "obj-20",
					"outlettype" : [ "" ],
					"fontsize" : 12.0,
					"patching_rect" : [ 495.0, 285.0, 75.0, 20.0 ],
					"numinlets" : 1
				}

			}
, 			{
				"box" : 				{
					"maxclass" : "newobj",
					"text" : "prepend 4 7",
					"fontname" : "Arial",
					"numoutlets" : 1,
					"id" : "obj-21",
					"outlettype" : [ "" ],
					"fontsize" : 12.0,
					"patching_rect" : [ 420.0, 285.0, 75.0, 20.0 ],
					"numinlets" : 1
				}

			}
, 			{
				"box" : 				{
					"maxclass" : "newobj",
					"text" : "prepend 3 7",
					"fontname" : "Arial",
					"numoutlets" : 1,
					"id" : "obj-18",
					"outlettype" : [ "" ],
					"fontsize" : 12.0,
					"patching_rect" : [ 345.0, 285.0, 75.0, 20.0 ],
					"numinlets" : 1
				}

			}
, 			{
				"box" : 				{
					"maxclass" : "newobj",
					"text" : "prepend 2 7",
					"fontname" : "Arial",
					"numoutlets" : 1,
					"id" : "obj-19",
					"outlettype" : [ "" ],
					"fontsize" : 12.0,
					"patching_rect" : [ 270.0, 285.0, 75.0, 20.0 ],
					"numinlets" : 1
				}

			}
, 			{
				"box" : 				{
					"maxclass" : "newobj",
					"text" : "prepend 1 7",
					"fontname" : "Arial",
					"numoutlets" : 1,
					"id" : "obj-17",
					"outlettype" : [ "" ],
					"fontsize" : 12.0,
					"patching_rect" : [ 195.0, 285.0, 75.0, 20.0 ],
					"numinlets" : 1
				}

			}
, 			{
				"box" : 				{
					"maxclass" : "newobj",
					"text" : "prepend 0 7",
					"fontname" : "Arial",
					"numoutlets" : 1,
					"id" : "obj-16",
					"outlettype" : [ "" ],
					"fontsize" : 12.0,
					"patching_rect" : [ 120.0, 285.0, 75.0, 20.0 ],
					"numinlets" : 1
				}

			}
, 			{
				"box" : 				{
					"maxclass" : "newobj",
					"text" : "udpsend localhost 8080",
					"fontname" : "Arial",
					"numoutlets" : 0,
					"id" : "obj-24",
					"fontsize" : 12.0,
					"patching_rect" : [ 495.0, 435.0, 137.0, 20.0 ],
					"numinlets" : 1
				}

			}
, 			{
				"box" : 				{
					"maxclass" : "comment",
					"text" : "1 0n, 0 off.",
					"fontname" : "Arial",
					"numoutlets" : 0,
					"id" : "obj-13",
					"fontsize" : 12.0,
					"patching_rect" : [ 600.0, 45.0, 150.0, 20.0 ],
					"numinlets" : 1
				}

			}
, 			{
				"box" : 				{
					"maxclass" : "newobj",
					"text" : "prepend /Slicer/led",
					"fontname" : "Arial",
					"numoutlets" : 1,
					"id" : "obj-10",
					"outlettype" : [ "" ],
					"fontsize" : 12.0,
					"patching_rect" : [ 495.0, 360.0, 111.0, 20.0 ],
					"numinlets" : 1
				}

			}
, 			{
				"box" : 				{
					"maxclass" : "inlet",
					"numoutlets" : 1,
					"id" : "obj-9",
					"outlettype" : [ "" ],
					"presentation_rect" : [ 284.0, 16.0, 0.0, 0.0 ],
					"patching_rect" : [ 570.0, 45.0, 25.0, 25.0 ],
					"numinlets" : 0,
					"comment" : ""
				}

			}
, 			{
				"box" : 				{
					"maxclass" : "inlet",
					"numoutlets" : 1,
					"id" : "obj-7",
					"outlettype" : [ "" ],
					"presentation_rect" : [ 240.0, 9.0, 0.0, 0.0 ],
					"patching_rect" : [ 495.0, 45.0, 25.0, 25.0 ],
					"numinlets" : 0,
					"comment" : ""
				}

			}
, 			{
				"box" : 				{
					"maxclass" : "inlet",
					"numoutlets" : 1,
					"id" : "obj-8",
					"outlettype" : [ "" ],
					"presentation_rect" : [ 195.0, 9.0, 0.0, 0.0 ],
					"patching_rect" : [ 420.0, 45.0, 25.0, 25.0 ],
					"numinlets" : 0,
					"comment" : ""
				}

			}
, 			{
				"box" : 				{
					"maxclass" : "inlet",
					"numoutlets" : 1,
					"id" : "obj-5",
					"outlettype" : [ "" ],
					"presentation_rect" : [ 146.0, 19.0, 0.0, 0.0 ],
					"patching_rect" : [ 345.0, 45.0, 25.0, 25.0 ],
					"numinlets" : 0,
					"comment" : ""
				}

			}
, 			{
				"box" : 				{
					"maxclass" : "inlet",
					"numoutlets" : 1,
					"id" : "obj-6",
					"outlettype" : [ "" ],
					"presentation_rect" : [ 101.0, 19.0, 0.0, 0.0 ],
					"patching_rect" : [ 270.0, 45.0, 25.0, 25.0 ],
					"numinlets" : 0,
					"comment" : ""
				}

			}
, 			{
				"box" : 				{
					"maxclass" : "inlet",
					"numoutlets" : 1,
					"id" : "obj-4",
					"outlettype" : [ "" ],
					"presentation_rect" : [ 45.0, 15.0, 0.0, 0.0 ],
					"patching_rect" : [ 195.0, 45.0, 25.0, 25.0 ],
					"numinlets" : 0,
					"comment" : ""
				}

			}
, 			{
				"box" : 				{
					"maxclass" : "inlet",
					"numoutlets" : 1,
					"id" : "obj-3",
					"outlettype" : [ "" ],
					"patching_rect" : [ 120.0, 45.0, 25.0, 25.0 ],
					"numinlets" : 0,
					"comment" : ""
				}

			}
 ],
		"lines" : [ 			{
				"patchline" : 				{
					"source" : [ "obj-80", 0 ],
					"destination" : [ "obj-52", 0 ],
					"hidden" : 0,
					"midpoints" : [  ]
				}

			}
, 			{
				"patchline" : 				{
					"source" : [ "obj-79", 0 ],
					"destination" : [ "obj-52", 0 ],
					"hidden" : 0,
					"midpoints" : [  ]
				}

			}
, 			{
				"patchline" : 				{
					"source" : [ "obj-77", 0 ],
					"destination" : [ "obj-50", 0 ],
					"hidden" : 0,
					"midpoints" : [  ]
				}

			}
, 			{
				"patchline" : 				{
					"source" : [ "obj-76", 0 ],
					"destination" : [ "obj-50", 0 ],
					"hidden" : 0,
					"midpoints" : [  ]
				}

			}
, 			{
				"patchline" : 				{
					"source" : [ "obj-74", 0 ],
					"destination" : [ "obj-48", 0 ],
					"hidden" : 0,
					"midpoints" : [  ]
				}

			}
, 			{
				"patchline" : 				{
					"source" : [ "obj-73", 0 ],
					"destination" : [ "obj-48", 0 ],
					"hidden" : 0,
					"midpoints" : [  ]
				}

			}
, 			{
				"patchline" : 				{
					"source" : [ "obj-71", 0 ],
					"destination" : [ "obj-46", 0 ],
					"hidden" : 0,
					"midpoints" : [  ]
				}

			}
, 			{
				"patchline" : 				{
					"source" : [ "obj-70", 0 ],
					"destination" : [ "obj-46", 0 ],
					"hidden" : 0,
					"midpoints" : [  ]
				}

			}
, 			{
				"patchline" : 				{
					"source" : [ "obj-68", 0 ],
					"destination" : [ "obj-44", 0 ],
					"hidden" : 0,
					"midpoints" : [  ]
				}

			}
, 			{
				"patchline" : 				{
					"source" : [ "obj-67", 0 ],
					"destination" : [ "obj-44", 0 ],
					"hidden" : 0,
					"midpoints" : [  ]
				}

			}
, 			{
				"patchline" : 				{
					"source" : [ "obj-65", 0 ],
					"destination" : [ "obj-42", 0 ],
					"hidden" : 0,
					"midpoints" : [  ]
				}

			}
, 			{
				"patchline" : 				{
					"source" : [ "obj-64", 0 ],
					"destination" : [ "obj-42", 0 ],
					"hidden" : 0,
					"midpoints" : [  ]
				}

			}
, 			{
				"patchline" : 				{
					"source" : [ "obj-61", 0 ],
					"destination" : [ "obj-41", 0 ],
					"hidden" : 0,
					"midpoints" : [  ]
				}

			}
, 			{
				"patchline" : 				{
					"source" : [ "obj-63", 0 ],
					"destination" : [ "obj-41", 0 ],
					"hidden" : 0,
					"midpoints" : [  ]
				}

			}
, 			{
				"patchline" : 				{
					"source" : [ "obj-9", 0 ],
					"destination" : [ "obj-81", 0 ],
					"hidden" : 0,
					"midpoints" : [  ]
				}

			}
, 			{
				"patchline" : 				{
					"source" : [ "obj-7", 0 ],
					"destination" : [ "obj-78", 0 ],
					"hidden" : 0,
					"midpoints" : [  ]
				}

			}
, 			{
				"patchline" : 				{
					"source" : [ "obj-8", 0 ],
					"destination" : [ "obj-75", 0 ],
					"hidden" : 0,
					"midpoints" : [  ]
				}

			}
, 			{
				"patchline" : 				{
					"source" : [ "obj-5", 0 ],
					"destination" : [ "obj-72", 0 ],
					"hidden" : 0,
					"midpoints" : [  ]
				}

			}
, 			{
				"patchline" : 				{
					"source" : [ "obj-6", 0 ],
					"destination" : [ "obj-69", 0 ],
					"hidden" : 0,
					"midpoints" : [  ]
				}

			}
, 			{
				"patchline" : 				{
					"source" : [ "obj-4", 0 ],
					"destination" : [ "obj-66", 0 ],
					"hidden" : 0,
					"midpoints" : [  ]
				}

			}
, 			{
				"patchline" : 				{
					"source" : [ "obj-3", 0 ],
					"destination" : [ "obj-59", 0 ],
					"hidden" : 0,
					"midpoints" : [  ]
				}

			}
, 			{
				"patchline" : 				{
					"source" : [ "obj-81", 1 ],
					"destination" : [ "obj-80", 0 ],
					"hidden" : 0,
					"midpoints" : [  ]
				}

			}
, 			{
				"patchline" : 				{
					"source" : [ "obj-81", 0 ],
					"destination" : [ "obj-79", 0 ],
					"hidden" : 0,
					"midpoints" : [  ]
				}

			}
, 			{
				"patchline" : 				{
					"source" : [ "obj-78", 1 ],
					"destination" : [ "obj-77", 0 ],
					"hidden" : 0,
					"midpoints" : [  ]
				}

			}
, 			{
				"patchline" : 				{
					"source" : [ "obj-78", 0 ],
					"destination" : [ "obj-76", 0 ],
					"hidden" : 0,
					"midpoints" : [  ]
				}

			}
, 			{
				"patchline" : 				{
					"source" : [ "obj-75", 1 ],
					"destination" : [ "obj-74", 0 ],
					"hidden" : 0,
					"midpoints" : [  ]
				}

			}
, 			{
				"patchline" : 				{
					"source" : [ "obj-75", 0 ],
					"destination" : [ "obj-73", 0 ],
					"hidden" : 0,
					"midpoints" : [  ]
				}

			}
, 			{
				"patchline" : 				{
					"source" : [ "obj-72", 1 ],
					"destination" : [ "obj-71", 0 ],
					"hidden" : 0,
					"midpoints" : [  ]
				}

			}
, 			{
				"patchline" : 				{
					"source" : [ "obj-72", 0 ],
					"destination" : [ "obj-70", 0 ],
					"hidden" : 0,
					"midpoints" : [  ]
				}

			}
, 			{
				"patchline" : 				{
					"source" : [ "obj-69", 1 ],
					"destination" : [ "obj-68", 0 ],
					"hidden" : 0,
					"midpoints" : [  ]
				}

			}
, 			{
				"patchline" : 				{
					"source" : [ "obj-69", 0 ],
					"destination" : [ "obj-67", 0 ],
					"hidden" : 0,
					"midpoints" : [  ]
				}

			}
, 			{
				"patchline" : 				{
					"source" : [ "obj-66", 1 ],
					"destination" : [ "obj-65", 0 ],
					"hidden" : 0,
					"midpoints" : [  ]
				}

			}
, 			{
				"patchline" : 				{
					"source" : [ "obj-66", 0 ],
					"destination" : [ "obj-64", 0 ],
					"hidden" : 0,
					"midpoints" : [  ]
				}

			}
, 			{
				"patchline" : 				{
					"source" : [ "obj-59", 1 ],
					"destination" : [ "obj-61", 0 ],
					"hidden" : 0,
					"midpoints" : [  ]
				}

			}
, 			{
				"patchline" : 				{
					"source" : [ "obj-59", 0 ],
					"destination" : [ "obj-63", 0 ],
					"hidden" : 0,
					"midpoints" : [  ]
				}

			}
, 			{
				"patchline" : 				{
					"source" : [ "obj-9", 0 ],
					"destination" : [ "obj-58", 0 ],
					"hidden" : 0,
					"midpoints" : [ 579.5, 135.0, 684.5, 135.0 ]
				}

			}
, 			{
				"patchline" : 				{
					"source" : [ "obj-7", 0 ],
					"destination" : [ "obj-58", 0 ],
					"hidden" : 0,
					"midpoints" : [ 504.5, 135.0, 684.5, 135.0 ]
				}

			}
, 			{
				"patchline" : 				{
					"source" : [ "obj-8", 0 ],
					"destination" : [ "obj-58", 0 ],
					"hidden" : 0,
					"midpoints" : [ 429.5, 135.0, 684.5, 135.0 ]
				}

			}
, 			{
				"patchline" : 				{
					"source" : [ "obj-5", 0 ],
					"destination" : [ "obj-58", 0 ],
					"hidden" : 0,
					"midpoints" : [ 354.5, 135.0, 684.5, 135.0 ]
				}

			}
, 			{
				"patchline" : 				{
					"source" : [ "obj-6", 0 ],
					"destination" : [ "obj-58", 0 ],
					"hidden" : 0,
					"midpoints" : [ 279.5, 135.0, 684.5, 135.0 ]
				}

			}
, 			{
				"patchline" : 				{
					"source" : [ "obj-4", 0 ],
					"destination" : [ "obj-58", 0 ],
					"hidden" : 0,
					"midpoints" : [ 204.5, 135.0, 684.5, 135.0 ]
				}

			}
, 			{
				"patchline" : 				{
					"source" : [ "obj-3", 0 ],
					"destination" : [ "obj-58", 0 ],
					"hidden" : 0,
					"midpoints" : [ 129.5, 135.0, 684.5, 135.0 ]
				}

			}
, 			{
				"patchline" : 				{
					"source" : [ "obj-41", 0 ],
					"destination" : [ "obj-42", 1 ],
					"hidden" : 0,
					"midpoints" : [ 144.5, 225.0, 195.0, 225.0, 195.0, 192.0, 234.5, 192.0 ]
				}

			}
, 			{
				"patchline" : 				{
					"source" : [ "obj-42", 0 ],
					"destination" : [ "obj-44", 1 ],
					"hidden" : 0,
					"midpoints" : [ 219.5, 225.0, 270.0, 225.0, 270.0, 192.0, 309.5, 192.0 ]
				}

			}
, 			{
				"patchline" : 				{
					"source" : [ "obj-44", 0 ],
					"destination" : [ "obj-46", 1 ],
					"hidden" : 0,
					"midpoints" : [ 294.5, 225.0, 345.0, 225.0, 345.0, 192.0, 384.5, 192.0 ]
				}

			}
, 			{
				"patchline" : 				{
					"source" : [ "obj-46", 0 ],
					"destination" : [ "obj-48", 1 ],
					"hidden" : 0,
					"midpoints" : [ 369.5, 225.0, 420.0, 225.0, 420.0, 192.0, 459.5, 192.0 ]
				}

			}
, 			{
				"patchline" : 				{
					"source" : [ "obj-48", 0 ],
					"destination" : [ "obj-50", 1 ],
					"hidden" : 0,
					"midpoints" : [ 444.5, 225.0, 495.0, 225.0, 495.0, 192.0, 534.5, 192.0 ]
				}

			}
, 			{
				"patchline" : 				{
					"source" : [ "obj-50", 0 ],
					"destination" : [ "obj-52", 1 ],
					"hidden" : 0,
					"midpoints" : [ 519.5, 225.0, 570.0, 225.0, 570.0, 192.0, 609.5, 192.0 ]
				}

			}
, 			{
				"patchline" : 				{
					"source" : [ "obj-58", 0 ],
					"destination" : [ "obj-55", 0 ],
					"hidden" : 0,
					"midpoints" : [  ]
				}

			}
, 			{
				"patchline" : 				{
					"source" : [ "obj-55", 0 ],
					"destination" : [ "obj-10", 0 ],
					"hidden" : 0,
					"midpoints" : [  ]
				}

			}
, 			{
				"patchline" : 				{
					"source" : [ "obj-22", 0 ],
					"destination" : [ "obj-10", 0 ],
					"hidden" : 0,
					"midpoints" : [  ]
				}

			}
, 			{
				"patchline" : 				{
					"source" : [ "obj-20", 0 ],
					"destination" : [ "obj-10", 0 ],
					"hidden" : 0,
					"midpoints" : [  ]
				}

			}
, 			{
				"patchline" : 				{
					"source" : [ "obj-21", 0 ],
					"destination" : [ "obj-10", 0 ],
					"hidden" : 0,
					"midpoints" : [  ]
				}

			}
, 			{
				"patchline" : 				{
					"source" : [ "obj-18", 0 ],
					"destination" : [ "obj-10", 0 ],
					"hidden" : 0,
					"midpoints" : [  ]
				}

			}
, 			{
				"patchline" : 				{
					"source" : [ "obj-19", 0 ],
					"destination" : [ "obj-10", 0 ],
					"hidden" : 0,
					"midpoints" : [  ]
				}

			}
, 			{
				"patchline" : 				{
					"source" : [ "obj-17", 0 ],
					"destination" : [ "obj-10", 0 ],
					"hidden" : 0,
					"midpoints" : [  ]
				}

			}
, 			{
				"patchline" : 				{
					"source" : [ "obj-16", 0 ],
					"destination" : [ "obj-10", 0 ],
					"hidden" : 0,
					"midpoints" : [  ]
				}

			}
, 			{
				"patchline" : 				{
					"source" : [ "obj-9", 0 ],
					"destination" : [ "obj-22", 0 ],
					"hidden" : 0,
					"midpoints" : [  ]
				}

			}
, 			{
				"patchline" : 				{
					"source" : [ "obj-7", 0 ],
					"destination" : [ "obj-20", 0 ],
					"hidden" : 0,
					"midpoints" : [  ]
				}

			}
, 			{
				"patchline" : 				{
					"source" : [ "obj-8", 0 ],
					"destination" : [ "obj-21", 0 ],
					"hidden" : 0,
					"midpoints" : [  ]
				}

			}
, 			{
				"patchline" : 				{
					"source" : [ "obj-5", 0 ],
					"destination" : [ "obj-18", 0 ],
					"hidden" : 0,
					"midpoints" : [  ]
				}

			}
, 			{
				"patchline" : 				{
					"source" : [ "obj-6", 0 ],
					"destination" : [ "obj-19", 0 ],
					"hidden" : 0,
					"midpoints" : [  ]
				}

			}
, 			{
				"patchline" : 				{
					"source" : [ "obj-4", 0 ],
					"destination" : [ "obj-17", 0 ],
					"hidden" : 0,
					"midpoints" : [  ]
				}

			}
, 			{
				"patchline" : 				{
					"source" : [ "obj-3", 0 ],
					"destination" : [ "obj-16", 0 ],
					"hidden" : 0,
					"midpoints" : [  ]
				}

			}
, 			{
				"patchline" : 				{
					"source" : [ "obj-10", 0 ],
					"destination" : [ "obj-24", 0 ],
					"hidden" : 0,
					"midpoints" : [  ]
				}

			}
 ]
	}

}
