{
	"patcher" : 	{
		"fileversion" : 1,
		"rect" : [ 529.0, 102.0, 640.0, 506.0 ],
		"bglocked" : 0,
		"defrect" : [ 529.0, 102.0, 640.0, 506.0 ],
		"openrect" : [ 0.0, 0.0, 0.0, 0.0 ],
		"openinpresentation" : 0,
		"default_fontsize" : 12.0,
		"default_fontface" : 0,
		"default_fontname" : "Arial",
		"gridonopen" : 0,
		"gridsize" : [ 15.0, 15.0 ],
		"gridsnaponopen" : 0,
		"toolbarvisible" : 1,
		"boxanimatetime" : 200,
		"imprint" : 0,
		"boxes" : [ 			{
				"box" : 				{
					"maxclass" : "newobj",
					"text" : "int #1",
					"patching_rect" : [ 165.0, 270.0, 40.0, 20.0 ],
					"numinlets" : 2,
					"fontname" : "Arial",
					"numoutlets" : 1,
					"id" : "obj-11",
					"outlettype" : [ "int" ],
					"fontsize" : 12.0
				}

			}
, 			{
				"box" : 				{
					"maxclass" : "newobj",
					"text" : "udpsend localhost 8080",
					"patching_rect" : [ 225.0, 480.0, 137.0, 20.0 ],
					"numinlets" : 1,
					"fontname" : "Arial",
					"numoutlets" : 0,
					"id" : "obj-24",
					"fontsize" : 12.0
				}

			}
, 			{
				"box" : 				{
					"maxclass" : "newobj",
					"text" : "prepend /Slicer/led",
					"patching_rect" : [ 225.0, 450.0, 111.0, 20.0 ],
					"numinlets" : 1,
					"fontname" : "Arial",
					"numoutlets" : 1,
					"id" : "obj-23",
					"outlettype" : [ "" ],
					"fontsize" : 12.0
				}

			}
, 			{
				"box" : 				{
					"maxclass" : "newobj",
					"text" : "pak 0 0 0",
					"patching_rect" : [ 375.0, 360.0, 64.0, 20.0 ],
					"numinlets" : 3,
					"fontname" : "Arial",
					"numoutlets" : 1,
					"id" : "obj-22",
					"outlettype" : [ "" ],
					"fontsize" : 12.0
				}

			}
, 			{
				"box" : 				{
					"maxclass" : "newobj",
					"text" : "int",
					"patching_rect" : [ 165.0, 225.0, 32.5, 20.0 ],
					"numinlets" : 2,
					"fontname" : "Arial",
					"numoutlets" : 1,
					"id" : "obj-18",
					"outlettype" : [ "int" ],
					"fontsize" : 12.0
				}

			}
, 			{
				"box" : 				{
					"maxclass" : "newobj",
					"text" : "sel",
					"patching_rect" : [ 375.0, 180.0, 32.5, 20.0 ],
					"numinlets" : 2,
					"fontname" : "Arial",
					"numoutlets" : 2,
					"id" : "obj-17",
					"outlettype" : [ "bang", "" ],
					"fontsize" : 12.0
				}

			}
, 			{
				"box" : 				{
					"maxclass" : "newobj",
					"text" : "sel",
					"patching_rect" : [ 330.0, 180.0, 32.5, 20.0 ],
					"numinlets" : 2,
					"fontname" : "Arial",
					"numoutlets" : 2,
					"id" : "obj-16",
					"outlettype" : [ "bang", "" ],
					"fontsize" : 12.0
				}

			}
, 			{
				"box" : 				{
					"maxclass" : "toggle",
					"patching_rect" : [ 420.0, 135.0, 20.0, 20.0 ],
					"numinlets" : 1,
					"numoutlets" : 1,
					"id" : "obj-15",
					"outlettype" : [ "int" ]
				}

			}
, 			{
				"box" : 				{
					"maxclass" : "message",
					"text" : "0",
					"patching_rect" : [ 420.0, 105.0, 32.5, 18.0 ],
					"numinlets" : 2,
					"fontname" : "Arial",
					"numoutlets" : 1,
					"id" : "obj-14",
					"outlettype" : [ "" ],
					"fontsize" : 12.0
				}

			}
, 			{
				"box" : 				{
					"maxclass" : "message",
					"text" : "1",
					"patching_rect" : [ 375.0, 105.0, 32.5, 18.0 ],
					"numinlets" : 2,
					"fontname" : "Arial",
					"numoutlets" : 1,
					"id" : "obj-12",
					"outlettype" : [ "" ],
					"fontsize" : 12.0
				}

			}
, 			{
				"box" : 				{
					"maxclass" : "newobj",
					"text" : "route play stop",
					"patching_rect" : [ 375.0, 75.0, 108.0, 20.0 ],
					"numinlets" : 1,
					"fontname" : "Arial",
					"numoutlets" : 3,
					"id" : "obj-10",
					"outlettype" : [ "", "", "" ],
					"fontsize" : 12.0
				}

			}
, 			{
				"box" : 				{
					"maxclass" : "matrixctrl",
					"patching_rect" : [ 136.0, 358.0, 130.0, 18.0 ],
					"numinlets" : 1,
					"numoutlets" : 2,
					"one/row" : 1,
					"id" : "obj-9",
					"outlettype" : [ "list", "list" ],
					"rows" : 1,
					"autosize" : 1,
					"presentation_rect" : [ 15.0, 15.0, 128.0, 18.0 ]
				}

			}
, 			{
				"box" : 				{
					"maxclass" : "newobj",
					"text" : "pack 0 0 1",
					"patching_rect" : [ 135.0, 300.0, 79.0, 20.0 ],
					"numinlets" : 3,
					"fontname" : "Arial",
					"numoutlets" : 1,
					"id" : "obj-8",
					"outlettype" : [ "" ],
					"fontsize" : 12.0
				}

			}
, 			{
				"box" : 				{
					"maxclass" : "newobj",
					"text" : "change",
					"patching_rect" : [ 135.0, 195.0, 50.0, 20.0 ],
					"numinlets" : 1,
					"fontname" : "Arial",
					"numoutlets" : 3,
					"id" : "obj-7",
					"outlettype" : [ "", "int", "int" ],
					"fontsize" : 12.0
				}

			}
, 			{
				"box" : 				{
					"maxclass" : "newobj",
					"text" : "int",
					"patching_rect" : [ 135.0, 165.0, 32.5, 20.0 ],
					"numinlets" : 2,
					"fontname" : "Arial",
					"numoutlets" : 1,
					"id" : "obj-6",
					"outlettype" : [ "int" ],
					"fontsize" : 12.0
				}

			}
, 			{
				"box" : 				{
					"maxclass" : "newobj",
					"text" : "snapshot~ 10",
					"patching_rect" : [ 135.0, 135.0, 83.0, 20.0 ],
					"numinlets" : 2,
					"fontname" : "Arial",
					"numoutlets" : 1,
					"id" : "obj-5",
					"outlettype" : [ "float" ],
					"fontsize" : 12.0
				}

			}
, 			{
				"box" : 				{
					"maxclass" : "newobj",
					"text" : "*~ 8",
					"patching_rect" : [ 135.0, 105.0, 32.5, 20.0 ],
					"numinlets" : 2,
					"fontname" : "Arial",
					"numoutlets" : 1,
					"id" : "obj-4",
					"outlettype" : [ "signal" ],
					"fontsize" : 12.0
				}

			}
, 			{
				"box" : 				{
					"maxclass" : "number~",
					"patching_rect" : [ 60.0, 90.0, 56.0, 20.0 ],
					"numinlets" : 2,
					"sig" : 0.0,
					"fontname" : "Arial",
					"numoutlets" : 2,
					"id" : "obj-3",
					"outlettype" : [ "signal", "float" ],
					"mode" : 2,
					"fontsize" : 12.0
				}

			}
, 			{
				"box" : 				{
					"maxclass" : "inlet",
					"patching_rect" : [ 375.0, 45.0, 25.0, 25.0 ],
					"numinlets" : 0,
					"numoutlets" : 1,
					"id" : "obj-2",
					"outlettype" : [ "" ],
					"comment" : "Audio control messages"
				}

			}
, 			{
				"box" : 				{
					"maxclass" : "inlet",
					"patching_rect" : [ 135.0, 45.0, 25.0, 25.0 ],
					"numinlets" : 0,
					"numoutlets" : 1,
					"id" : "obj-1",
					"outlettype" : [ "" ],
					"comment" : "Sig: ramp in"
				}

			}
 ],
		"lines" : [ 			{
				"patchline" : 				{
					"source" : [ "obj-1", 0 ],
					"destination" : [ "obj-3", 0 ],
					"hidden" : 0,
					"midpoints" : [  ]
				}

			}
, 			{
				"patchline" : 				{
					"source" : [ "obj-11", 0 ],
					"destination" : [ "obj-8", 1 ],
					"hidden" : 0,
					"midpoints" : [  ]
				}

			}
, 			{
				"patchline" : 				{
					"source" : [ "obj-9", 0 ],
					"destination" : [ "obj-23", 0 ],
					"hidden" : 0,
					"midpoints" : [  ]
				}

			}
, 			{
				"patchline" : 				{
					"source" : [ "obj-22", 0 ],
					"destination" : [ "obj-23", 0 ],
					"hidden" : 0,
					"midpoints" : [  ]
				}

			}
, 			{
				"patchline" : 				{
					"source" : [ "obj-23", 0 ],
					"destination" : [ "obj-24", 0 ],
					"hidden" : 0,
					"midpoints" : [  ]
				}

			}
, 			{
				"patchline" : 				{
					"source" : [ "obj-15", 0 ],
					"destination" : [ "obj-22", 2 ],
					"hidden" : 0,
					"midpoints" : [  ]
				}

			}
, 			{
				"patchline" : 				{
					"source" : [ "obj-18", 0 ],
					"destination" : [ "obj-8", 0 ],
					"hidden" : 0,
					"midpoints" : [  ]
				}

			}
, 			{
				"patchline" : 				{
					"source" : [ "obj-16", 0 ],
					"destination" : [ "obj-18", 0 ],
					"hidden" : 0,
					"midpoints" : [ 339.5, 220.0, 174.5, 220.0 ]
				}

			}
, 			{
				"patchline" : 				{
					"source" : [ "obj-7", 0 ],
					"destination" : [ "obj-18", 0 ],
					"hidden" : 0,
					"midpoints" : [  ]
				}

			}
, 			{
				"patchline" : 				{
					"source" : [ "obj-17", 0 ],
					"destination" : [ "obj-9", 0 ],
					"hidden" : 0,
					"midpoints" : [ 384.5, 336.0, 145.5, 336.0 ]
				}

			}
, 			{
				"patchline" : 				{
					"source" : [ "obj-15", 0 ],
					"destination" : [ "obj-16", 0 ],
					"hidden" : 0,
					"midpoints" : [  ]
				}

			}
, 			{
				"patchline" : 				{
					"source" : [ "obj-15", 0 ],
					"destination" : [ "obj-17", 0 ],
					"hidden" : 0,
					"midpoints" : [  ]
				}

			}
, 			{
				"patchline" : 				{
					"source" : [ "obj-14", 0 ],
					"destination" : [ "obj-15", 0 ],
					"hidden" : 0,
					"midpoints" : [  ]
				}

			}
, 			{
				"patchline" : 				{
					"source" : [ "obj-12", 0 ],
					"destination" : [ "obj-15", 0 ],
					"hidden" : 0,
					"midpoints" : [  ]
				}

			}
, 			{
				"patchline" : 				{
					"source" : [ "obj-10", 1 ],
					"destination" : [ "obj-14", 0 ],
					"hidden" : 0,
					"midpoints" : [  ]
				}

			}
, 			{
				"patchline" : 				{
					"source" : [ "obj-10", 0 ],
					"destination" : [ "obj-12", 0 ],
					"hidden" : 0,
					"midpoints" : [  ]
				}

			}
, 			{
				"patchline" : 				{
					"source" : [ "obj-2", 0 ],
					"destination" : [ "obj-10", 0 ],
					"hidden" : 0,
					"midpoints" : [  ]
				}

			}
, 			{
				"patchline" : 				{
					"source" : [ "obj-8", 0 ],
					"destination" : [ "obj-9", 0 ],
					"hidden" : 0,
					"midpoints" : [  ]
				}

			}
, 			{
				"patchline" : 				{
					"source" : [ "obj-1", 0 ],
					"destination" : [ "obj-4", 0 ],
					"hidden" : 0,
					"midpoints" : [  ]
				}

			}
, 			{
				"patchline" : 				{
					"source" : [ "obj-7", 0 ],
					"destination" : [ "obj-8", 0 ],
					"hidden" : 0,
					"midpoints" : [  ]
				}

			}
, 			{
				"patchline" : 				{
					"source" : [ "obj-6", 0 ],
					"destination" : [ "obj-7", 0 ],
					"hidden" : 0,
					"midpoints" : [  ]
				}

			}
, 			{
				"patchline" : 				{
					"source" : [ "obj-5", 0 ],
					"destination" : [ "obj-6", 0 ],
					"hidden" : 0,
					"midpoints" : [  ]
				}

			}
, 			{
				"patchline" : 				{
					"source" : [ "obj-4", 0 ],
					"destination" : [ "obj-5", 0 ],
					"hidden" : 0,
					"midpoints" : [  ]
				}

			}
 ]
	}

}
